<?xml version="1.0" encoding="utf-8" standalone="no"?>
<!DOCTYPE svg PUBLIC "-//W3C//DTD SVG 1.1//EN"
  "http://www.w3.org/Graphics/SVG/1.1/DTD/svg11.dtd">
<!-- Created with matplotlib (http://matplotlib.org/) -->
<svg height="288pt" version="1.1" viewBox="0 0 432 288" width="432pt" xmlns="http://www.w3.org/2000/svg" xmlns:xlink="http://www.w3.org/1999/xlink">
 <defs>
  <style type="text/css">
*{stroke-linecap:butt;stroke-linejoin:round;}
  </style>
 </defs>
 <g id="figure_1">
  <g id="patch_1">
   <path d="M 0 288 
L 432 288 
L 432 0 
L 0 0 
z
" style="fill:#ffffff;"/>
  </g>
  <g id="axes_1">
   <g id="patch_2">
    <path d="M 40.834646 258.685354 
L 429.165354 258.685354 
L 429.165354 2.834646 
L 40.834646 2.834646 
z
" style="fill:#ffffff;"/>
   </g>
   <g id="matplotlib.axis_1">
    <g id="xtick_1">
     <g id="line2d_1">
      <path clip-path="url(#p08aba5df64)" d="M 155.493584 258.685354 
L 155.493584 2.834646 
" style="fill:none;stroke:#000000;stroke-dasharray:0.8,1.32;stroke-dashoffset:0;stroke-width:0.8;"/>
     </g>
     <g id="line2d_2">
      <defs>
       <path d="M 0 0 
L 0 3.5 
" id="m9cafef5052" style="stroke:#000000;stroke-width:0.8;"/>
      </defs>
      <g>
       <use style="stroke:#000000;stroke-width:0.8;" x="155.493584" xlink:href="#m9cafef5052" y="258.685354"/>
      </g>
     </g>
     <g id="text_1">
      <!-- 0.25 -->
      <defs>
       <path d="M 31.78125 66.40625 
Q 24.171875 66.40625 20.328125 58.90625 
Q 16.5 51.421875 16.5 36.375 
Q 16.5 21.390625 20.328125 13.890625 
Q 24.171875 6.390625 31.78125 6.390625 
Q 39.453125 6.390625 43.28125 13.890625 
Q 47.125 21.390625 47.125 36.375 
Q 47.125 51.421875 43.28125 58.90625 
Q 39.453125 66.40625 31.78125 66.40625 
z
M 31.78125 74.21875 
Q 44.046875 74.21875 50.515625 64.515625 
Q 56.984375 54.828125 56.984375 36.375 
Q 56.984375 17.96875 50.515625 8.265625 
Q 44.046875 -1.421875 31.78125 -1.421875 
Q 19.53125 -1.421875 13.0625 8.265625 
Q 6.59375 17.96875 6.59375 36.375 
Q 6.59375 54.828125 13.0625 64.515625 
Q 19.53125 74.21875 31.78125 74.21875 
z
" id="DejaVuSans-30"/>
       <path d="M 10.6875 12.40625 
L 21 12.40625 
L 21 0 
L 10.6875 0 
z
" id="DejaVuSans-2e"/>
       <path d="M 19.1875 8.296875 
L 53.609375 8.296875 
L 53.609375 0 
L 7.328125 0 
L 7.328125 8.296875 
Q 12.9375 14.109375 22.625 23.890625 
Q 32.328125 33.6875 34.8125 36.53125 
Q 39.546875 41.84375 41.421875 45.53125 
Q 43.3125 49.21875 43.3125 52.78125 
Q 43.3125 58.59375 39.234375 62.25 
Q 35.15625 65.921875 28.609375 65.921875 
Q 23.96875 65.921875 18.8125 64.3125 
Q 13.671875 62.703125 7.8125 59.421875 
L 7.8125 69.390625 
Q 13.765625 71.78125 18.9375 73 
Q 24.125 74.21875 28.421875 74.21875 
Q 39.75 74.21875 46.484375 68.546875 
Q 53.21875 62.890625 53.21875 53.421875 
Q 53.21875 48.921875 51.53125 44.890625 
Q 49.859375 40.875 45.40625 35.40625 
Q 44.1875 33.984375 37.640625 27.21875 
Q 31.109375 20.453125 19.1875 8.296875 
z
" id="DejaVuSans-32"/>
       <path d="M 10.796875 72.90625 
L 49.515625 72.90625 
L 49.515625 64.59375 
L 19.828125 64.59375 
L 19.828125 46.734375 
Q 21.96875 47.46875 24.109375 47.828125 
Q 26.265625 48.1875 28.421875 48.1875 
Q 40.625 48.1875 47.75 41.5 
Q 54.890625 34.8125 54.890625 23.390625 
Q 54.890625 11.625 47.5625 5.09375 
Q 40.234375 -1.421875 26.90625 -1.421875 
Q 22.3125 -1.421875 17.546875 -0.640625 
Q 12.796875 0.140625 7.71875 1.703125 
L 7.71875 11.625 
Q 12.109375 9.234375 16.796875 8.0625 
Q 21.484375 6.890625 26.703125 6.890625 
Q 35.15625 6.890625 40.078125 11.328125 
Q 45.015625 15.765625 45.015625 23.390625 
Q 45.015625 31 40.078125 35.4375 
Q 35.15625 39.890625 26.703125 39.890625 
Q 22.75 39.890625 18.8125 39.015625 
Q 14.890625 38.140625 10.796875 36.28125 
z
" id="DejaVuSans-35"/>
      </defs>
      <g transform="translate(146.587334 271.764104)scale(0.08 -0.08)">
       <use xlink:href="#DejaVuSans-30"/>
       <use x="63.623047" xlink:href="#DejaVuSans-2e"/>
       <use x="95.410156" xlink:href="#DejaVuSans-32"/>
       <use x="159.033203" xlink:href="#DejaVuSans-35"/>
      </g>
     </g>
    </g>
    <g id="xtick_2">
     <g id="line2d_3">
      <path clip-path="url(#p08aba5df64)" d="M 270.786437 258.685354 
L 270.786437 2.834646 
" style="fill:none;stroke:#000000;stroke-dasharray:0.8,1.32;stroke-dashoffset:0;stroke-width:0.8;"/>
     </g>
     <g id="line2d_4">
      <g>
       <use style="stroke:#000000;stroke-width:0.8;" x="270.786437" xlink:href="#m9cafef5052" y="258.685354"/>
      </g>
     </g>
     <g id="text_2">
      <!-- 0.50 -->
      <g transform="translate(261.880187 271.764104)scale(0.08 -0.08)">
       <use xlink:href="#DejaVuSans-30"/>
       <use x="63.623047" xlink:href="#DejaVuSans-2e"/>
       <use x="95.410156" xlink:href="#DejaVuSans-35"/>
       <use x="159.033203" xlink:href="#DejaVuSans-30"/>
      </g>
     </g>
    </g>
    <g id="xtick_3">
     <g id="line2d_5">
      <path clip-path="url(#p08aba5df64)" d="M 386.079291 258.685354 
L 386.079291 2.834646 
" style="fill:none;stroke:#000000;stroke-dasharray:0.8,1.32;stroke-dashoffset:0;stroke-width:0.8;"/>
     </g>
     <g id="line2d_6">
      <g>
       <use style="stroke:#000000;stroke-width:0.8;" x="386.079291" xlink:href="#m9cafef5052" y="258.685354"/>
      </g>
     </g>
     <g id="text_3">
      <!-- 0.75 -->
      <defs>
       <path d="M 8.203125 72.90625 
L 55.078125 72.90625 
L 55.078125 68.703125 
L 28.609375 0 
L 18.3125 0 
L 43.21875 64.59375 
L 8.203125 64.59375 
z
" id="DejaVuSans-37"/>
      </defs>
      <g transform="translate(377.173041 271.764104)scale(0.08 -0.08)">
       <use xlink:href="#DejaVuSans-30"/>
       <use x="63.623047" xlink:href="#DejaVuSans-2e"/>
       <use x="95.410156" xlink:href="#DejaVuSans-37"/>
       <use x="159.033203" xlink:href="#DejaVuSans-35"/>
      </g>
     </g>
    </g>
    <g id="text_4">
     <!-- λ -->
     <defs>
      <path d="M 30.953125 67.4375 
L 56.203125 0 
L 46.6875 0 
L 31.34375 40.4375 
L 12.5 0 
L 2.984375 0 
L 26.953125 52.4375 
L 23.34375 62.109375 
Q 21.046875 68.265625 15.828125 68.265625 
L 11.140625 68.265625 
L 11.140625 75.984375 
L 16.84375 75.875 
Q 27.875 75.734375 30.953125 67.4375 
z
" id="DejaVuSans-3bb"/>
     </defs>
     <g transform="translate(231.744687 285.786136)scale(0.11 -0.11)">
      <use xlink:href="#DejaVuSans-3bb"/>
     </g>
    </g>
   </g>
   <g id="matplotlib.axis_2">
    <g id="ytick_1">
     <g id="line2d_7">
      <path clip-path="url(#p08aba5df64)" d="M 40.834646 210.33856 
L 429.165354 210.33856 
" style="fill:none;stroke:#000000;stroke-dasharray:0.8,1.32;stroke-dashoffset:0;stroke-width:0.8;"/>
     </g>
     <g id="line2d_8">
      <defs>
       <path d="M 0 0 
L -3.5 0 
" id="mdc7585c9ee" style="stroke:#000000;stroke-width:0.8;"/>
      </defs>
      <g>
       <use style="stroke:#000000;stroke-width:0.8;" x="40.834646" xlink:href="#mdc7585c9ee" y="210.33856"/>
      </g>
     </g>
     <g id="text_5">
      <!-- 0.00 -->
      <g transform="translate(16.022146 213.377935)scale(0.08 -0.08)">
       <use xlink:href="#DejaVuSans-30"/>
       <use x="63.623047" xlink:href="#DejaVuSans-2e"/>
       <use x="95.410156" xlink:href="#DejaVuSans-30"/>
       <use x="159.033203" xlink:href="#DejaVuSans-30"/>
      </g>
     </g>
    </g>
    <g id="ytick_2">
     <g id="line2d_9">
      <path clip-path="url(#p08aba5df64)" d="M 40.834646 131.88134 
L 429.165354 131.88134 
" style="fill:none;stroke:#000000;stroke-dasharray:0.8,1.32;stroke-dashoffset:0;stroke-width:0.8;"/>
     </g>
     <g id="line2d_10">
      <g>
       <use style="stroke:#000000;stroke-width:0.8;" x="40.834646" xlink:href="#mdc7585c9ee" y="131.88134"/>
      </g>
     </g>
     <g id="text_6">
      <!-- 0.25 -->
      <g transform="translate(16.022146 134.920715)scale(0.08 -0.08)">
       <use xlink:href="#DejaVuSans-30"/>
       <use x="63.623047" xlink:href="#DejaVuSans-2e"/>
       <use x="95.410156" xlink:href="#DejaVuSans-32"/>
       <use x="159.033203" xlink:href="#DejaVuSans-35"/>
      </g>
     </g>
    </g>
    <g id="ytick_3">
     <g id="line2d_11">
      <path clip-path="url(#p08aba5df64)" d="M 40.834646 53.424119 
L 429.165354 53.424119 
" style="fill:none;stroke:#000000;stroke-dasharray:0.8,1.32;stroke-dashoffset:0;stroke-width:0.8;"/>
     </g>
     <g id="line2d_12">
      <g>
       <use style="stroke:#000000;stroke-width:0.8;" x="40.834646" xlink:href="#mdc7585c9ee" y="53.424119"/>
      </g>
     </g>
     <g id="text_7">
      <!-- 0.50 -->
      <g transform="translate(16.022146 56.463494)scale(0.08 -0.08)">
       <use xlink:href="#DejaVuSans-30"/>
       <use x="63.623047" xlink:href="#DejaVuSans-2e"/>
       <use x="95.410156" xlink:href="#DejaVuSans-35"/>
       <use x="159.033203" xlink:href="#DejaVuSans-30"/>
      </g>
     </g>
    </g>
    <g id="text_8">
     <!-- β̂(λ) -->
     <defs>
      <path d="M 18.40625 3.375 
L 18.40625 -20.796875 
L 9.375 -20.796875 
L 9.375 54.34375 
Q 9.375 76.609375 30.171875 76.609375 
Q 51.375 76.609375 51.375 57.8125 
Q 51.375 44.4375 42.96875 39.546875 
Q 56.640625 35.15625 56.640625 22.125 
Q 56.640625 -1.03125 33.109375 -1.03125 
Q 22.75 -1.03125 18.40625 3.375 
z
M 18.40625 15.09375 
Q 23.828125 6.640625 33.453125 6.640625 
Q 47.515625 6.640625 47.515625 21.96875 
Q 47.515625 35.75 24.859375 34.671875 
L 24.859375 42.96875 
Q 42.578125 42.96875 42.578125 58.59375 
Q 42.578125 69.28125 31.15625 69.28125 
Q 18.40625 69.28125 18.40625 54.046875 
z
" id="DejaVuSans-3b2"/>
      <path d="M -28.609375 79.984375 
L -21.390625 79.984375 
L -9.421875 61.625 
L -16.21875 61.625 
L -25 73.578125 
L -33.796875 61.625 
L -40.578125 61.625 
z
M -25 56 
z
" id="DejaVuSans-302"/>
      <path d="M 31 75.875 
Q 24.46875 64.65625 21.28125 53.65625 
Q 18.109375 42.671875 18.109375 31.390625 
Q 18.109375 20.125 21.3125 9.0625 
Q 24.515625 -2 31 -13.1875 
L 23.1875 -13.1875 
Q 15.875 -1.703125 12.234375 9.375 
Q 8.59375 20.453125 8.59375 31.390625 
Q 8.59375 42.28125 12.203125 53.3125 
Q 15.828125 64.359375 23.1875 75.875 
z
" id="DejaVuSans-28"/>
      <path d="M 8.015625 75.875 
L 15.828125 75.875 
Q 23.140625 64.359375 26.78125 53.3125 
Q 30.421875 42.28125 30.421875 31.390625 
Q 30.421875 20.453125 26.78125 9.375 
Q 23.140625 -1.703125 15.828125 -13.1875 
L 8.015625 -13.1875 
Q 14.5 -2 17.703125 9.0625 
Q 20.90625 20.125 20.90625 31.390625 
Q 20.90625 42.671875 17.703125 53.65625 
Q 14.5 64.65625 8.015625 75.875 
z
" id="DejaVuSans-29"/>
     </defs>
     <g transform="translate(9.734489 141.816719)rotate(-90)scale(0.11 -0.11)">
      <use xlink:href="#DejaVuSans-3b2"/>
      <use x="63.818359" xlink:href="#DejaVuSans-302"/>
      <use x="63.818359" xlink:href="#DejaVuSans-28"/>
      <use x="102.832031" xlink:href="#DejaVuSans-3bb"/>
      <use x="162.011719" xlink:href="#DejaVuSans-29"/>
     </g>
    </g>
   </g>
   <g id="line2d_13">
    <path clip-path="url(#p08aba5df64)" d="M 429.165354 210.33856 
L 394.610809 186.701908 
L 363.125995 165.165071 
L 334.438204 145.541508 
L 308.298958 127.661247 
L 284.48185 111.36942 
L 262.780589 96.524913 
L 243.007208 82.999152 
L 224.990439 73.295934 
L 208.574231 65.995994 
L 193.616393 61.383484 
L 179.987368 57.333187 
L 167.569109 53.646425 
L 156.254053 50.287188 
L 145.944196 47.226376 
L 136.550238 44.437478 
L 127.990813 41.896338 
L 120.191784 39.580946 
L 113.085599 37.471246 
L 106.610708 35.548967 
L 100.711029 34.404531 
L 95.335461 33.25898 
L 90.437443 32.155688 
L 85.974552 31.141917 
L 81.908132 30.218131 
L 78.202961 29.376413 
L 74.826948 28.60947 
L 71.75085 27.91066 
L 68.948024 27.182527 
L 66.394194 26.28511 
L 64.067239 25.433571 
L 61.947004 24.65803 
L 60.015125 23.951387 
L 58.254869 23.30752 
L 56.650989 22.751429 
L 55.189593 22.37805 
L 53.858024 22.034816 
L 52.644748 21.721436 
L 51.539255 21.435794 
L 50.531972 21.175514 
L 49.614173 19.724217 
L 48.777909 18.103301 
L 48.015936 16.636687 
L 47.321655 15.292435 
L 46.689051 14.075645 
L 46.112647 12.967022 
L 45.587448 11.956881 
L 45.108907 11.036478 
L 44.672878 10.197841 
L 44.275585 9.429592 
L 43.913586 8.733721 
L 43.583746 8.099689 
L 43.283208 7.521953 
L 43.00937 6.995536 
L 42.759858 6.515885 
L 42.532512 6.078845 
L 42.325363 5.681073 
L 42.136616 5.318489 
L 41.964638 4.987965 
L 41.807937 4.68669 
L 41.665157 4.412156 
L 41.535061 4.167816 
L 41.416523 3.940577 
L 41.308515 3.73291 
L 41.210103 3.543302 
L 41.120433 3.3704 
L 41.038729 3.212814 
L 40.964284 3.081789 
L 40.896452 2.953259 
L 40.834646 2.834646 
" style="fill:none;stroke:#008000;stroke-linecap:round;"/>
   </g>
   <g id="line2d_14">
    <path clip-path="url(#p08aba5df64)" d="M 429.165354 210.33856 
L 394.610809 210.33856 
L 363.125995 210.33856 
L 334.438204 210.33856 
L 308.298958 210.33856 
L 284.48185 210.33856 
L 262.780589 210.33856 
L 243.007208 210.33856 
L 224.990439 210.33856 
L 208.574231 210.33856 
L 193.616393 203.007382 
L 179.987368 195.754697 
L 167.569109 189.146125 
L 156.254053 183.12464 
L 145.944196 177.638088 
L 136.550238 172.638945 
L 127.990813 168.083913 
L 120.191784 163.933537 
L 113.085599 160.151869 
L 106.610708 156.706154 
L 100.711029 153.528731 
L 95.335461 151.285369 
L 90.437443 149.975424 
L 85.974552 148.779703 
L 81.908132 147.690214 
L 78.202961 146.697513 
L 74.826948 145.793001 
L 71.75085 144.968843 
L 68.948024 144.009643 
L 66.394194 142.544035 
L 64.067239 141.218354 
L 61.947004 140.010455 
L 60.015125 138.909861 
L 58.254869 137.907041 
L 56.650989 136.984712 
L 55.189593 136.057904 
L 53.858024 135.230168 
L 52.644748 134.476289 
L 51.539255 133.789424 
L 50.531972 133.163584 
L 49.614173 132.603972 
L 48.777909 132.081311 
L 48.015936 131.604013 
L 47.321655 131.17387 
L 46.689051 130.777373 
L 46.112647 130.415984 
L 45.587448 130.086698 
L 45.108907 129.786664 
L 44.672878 129.513285 
L 44.275585 129.267376 
L 43.913586 129.040325 
L 43.583746 128.833256 
L 43.283208 128.644575 
L 43.00937 128.472656 
L 42.759858 128.316009 
L 42.532512 128.173279 
L 42.325363 128.044377 
L 42.136616 127.925984 
L 41.964638 127.817909 
L 41.807937 127.719429 
L 41.665157 127.629697 
L 41.535061 127.546991 
L 41.416523 127.472627 
L 41.308515 127.404771 
L 41.210103 127.34297 
L 41.120433 127.286675 
L 41.038729 127.235385 
L 40.964284 127.185725 
L 40.896452 127.142804 
L 40.834646 127.103946 
" style="fill:none;stroke:#ffa500;stroke-linecap:round;"/>
   </g>
   <g id="patch_3">
    <path d="M 40.834646 258.685354 
L 40.834646 2.834646 
" style="fill:none;stroke:#000000;stroke-linecap:square;stroke-linejoin:miter;stroke-width:0.8;"/>
   </g>
   <g id="patch_4">
    <path d="M 429.165354 258.685354 
L 429.165354 2.834646 
" style="fill:none;stroke:#000000;stroke-linecap:square;stroke-linejoin:miter;stroke-width:0.8;"/>
   </g>
   <g id="patch_5">
    <path d="M 40.834646 258.685354 
L 429.165354 258.685354 
" style="fill:none;stroke:#000000;stroke-linecap:square;stroke-linejoin:miter;stroke-width:0.8;"/>
   </g>
   <g id="patch_6">
    <path d="M 40.834646 2.834646 
L 429.165354 2.834646 
" style="fill:none;stroke:#000000;stroke-linecap:square;stroke-linejoin:miter;stroke-width:0.8;"/>
   </g>
   <g id="line2d_15">
    <path clip-path="url(#p08aba5df64)" d="M 429.165354 210.33856 
L 394.610809 210.33856 
L 363.125995 210.33856 
L 334.438204 210.33856 
L 308.298958 210.33856 
L 284.48185 210.33856 
L 262.780589 210.33856 
L 243.007208 210.33856 
L 224.990439 210.33856 
L 208.574231 210.33856 
L 193.616393 210.33856 
L 179.987368 210.33856 
L 167.569109 210.33856 
L 156.254053 210.33856 
L 145.944196 210.33856 
L 136.550238 210.33856 
L 127.990813 210.33856 
L 120.191784 210.33856 
L 113.085599 210.33856 
L 106.610708 210.33856 
L 100.711029 210.33856 
L 95.335461 210.33856 
L 90.437443 210.33856 
L 85.974552 210.33856 
L 81.908132 210.33856 
L 78.202961 210.33856 
L 74.826948 210.33856 
L 71.75085 210.33856 
L 68.948024 211.36891 
L 66.394194 215.239008 
L 64.067239 218.754595 
L 61.947004 221.957851 
L 60.015125 224.876539 
L 58.254869 227.535938 
L 56.650989 229.980368 
L 55.189593 232.2425 
L 53.858024 234.303437 
L 52.644748 236.181436 
L 51.539255 237.89262 
L 50.531972 239.45179 
L 49.614173 241.17087 
L 48.777909 242.85137 
L 48.015936 244.373843 
L 47.321655 245.748137 
L 46.689051 247.012542 
L 46.112647 248.164947 
L 45.587448 249.214989 
L 45.108907 250.171748 
L 44.672878 251.043512 
L 44.275585 251.824516 
L 43.913586 252.548625 
L 43.583746 253.209166 
L 43.283208 253.811087 
L 43.00937 254.359541 
L 42.759858 254.859272 
L 42.532512 255.314609 
L 42.325363 255.717242 
L 42.136616 256.094834 
L 41.964638 256.440182 
L 41.807937 256.755036 
L 41.665157 257.041951 
L 41.535061 257.290073 
L 41.416523 257.526502 
L 41.308515 257.74414 
L 41.210103 257.942981 
L 41.120433 258.124307 
L 41.038729 258.289569 
L 40.964284 258.426905 
L 40.896452 258.560693 
L 40.834646 258.685354 
" style="fill:none;stroke:#000000;stroke-linecap:round;"/>
   </g>
   <g id="line2d_16">
    <path clip-path="url(#p08aba5df64)" d="M 429.165354 210.33856 
L 394.610809 210.33856 
L 363.125995 210.33856 
L 334.438204 210.33856 
L 308.298958 210.33856 
L 284.48185 210.33856 
L 262.780589 210.33856 
L 243.007208 210.33856 
L 224.990439 210.33856 
L 208.574231 210.33856 
L 193.616393 210.33856 
L 179.987368 210.33856 
L 167.569109 210.33856 
L 156.254053 210.33856 
L 145.944196 210.33856 
L 136.550238 210.33856 
L 127.990813 210.33856 
L 120.191784 210.33856 
L 113.085599 210.33856 
L 106.610708 210.33856 
L 100.711029 210.33856 
L 95.335461 208.958697 
L 90.437443 206.158618 
L 85.974552 203.611576 
L 81.908132 201.290805 
L 78.202961 199.176205 
L 74.826948 197.249459 
L 71.75085 195.493881 
L 68.948024 193.64364 
L 66.394194 191.267387 
L 64.067239 189.099266 
L 61.947004 187.123692 
L 60.015125 185.323623 
L 58.254869 183.683467 
L 56.650989 182.193055 
L 55.189593 180.863687 
L 53.858024 179.642412 
L 52.644748 178.529797 
L 51.539255 177.516046 
L 50.531972 176.592357 
L 49.614173 175.686064 
L 48.777909 174.852672 
L 48.015936 174.093364 
L 47.321655 173.401473 
L 46.689051 172.770974 
L 46.112647 172.196541 
L 45.587448 171.67314 
L 45.108907 171.196237 
L 44.672878 170.761701 
L 44.275585 170.366918 
L 43.913586 170.005981 
L 43.583746 169.677179 
L 43.283208 169.377591 
L 43.00937 169.104619 
L 42.759858 168.855896 
L 42.532512 168.629269 
L 42.325363 168.42501 
L 42.136616 168.236644 
L 41.964638 168.065025 
L 41.807937 167.908656 
L 41.665157 167.76618 
L 41.535061 167.640222 
L 41.416523 167.521846 
L 41.308515 167.413773 
L 41.210103 167.315272 
L 41.120433 167.225514 
L 41.038729 167.143727 
L 40.964284 167.074363 
L 40.896452 167.007002 
L 40.834646 166.944924 
" style="fill:none;stroke:#800080;stroke-linecap:round;"/>
   </g>
   <g id="line2d_17">
    <path clip-path="url(#p08aba5df64)" d="M 429.165354 210.33856 
L 394.610809 210.33856 
L 363.125995 210.33856 
L 334.438204 210.33856 
L 308.298958 210.33856 
L 284.48185 210.33856 
L 262.780589 210.33856 
L 243.007208 210.33856 
L 224.990439 205.467404 
L 208.574231 198.171616 
L 193.616393 191.564456 
L 179.987368 185.551113 
L 167.569109 180.070006 
L 156.254053 175.075825 
L 145.944196 170.525312 
L 136.550238 166.379055 
L 127.990813 162.601139 
L 120.191784 159.158844 
L 113.085599 156.022352 
L 106.610708 153.164498 
L 100.711029 151.22744 
L 95.335461 149.29105 
L 90.437443 147.205828 
L 85.974552 145.316354 
L 81.908132 143.594743 
L 78.202961 142.026074 
L 74.826948 140.596762 
L 71.75085 139.294426 
L 68.948024 138.133946 
L 66.394194 137.212823 
L 64.067239 136.370142 
L 61.947004 135.602114 
L 60.015125 134.902317 
L 58.254869 134.264687 
L 56.650989 133.684409 
L 55.189593 133.073869 
L 53.858024 132.517069 
L 52.644748 132.011305 
L 51.539255 131.550681 
L 50.531972 131.131005 
L 49.614173 129.656109 
L 48.777909 128.028122 
L 48.015936 126.548998 
L 47.321655 125.216188 
L 46.689051 123.987069 
L 46.112647 122.867029 
L 45.587448 121.846487 
L 45.108907 120.916607 
L 44.672878 120.069334 
L 44.275585 119.315722 
L 43.913586 118.611103 
L 43.583746 117.968673 
L 43.283208 117.38329 
L 43.00937 116.849908 
L 42.759858 116.36391 
L 42.532512 115.921086 
L 42.325363 115.537028 
L 42.136616 115.168779 
L 41.964638 114.832251 
L 41.807937 114.525516 
L 41.665157 114.246014 
L 41.535061 114.014884 
L 41.416523 113.783689 
L 41.308515 113.570626 
L 41.210103 113.376092 
L 41.120433 113.198739 
L 41.038729 113.037113 
L 40.964284 112.915145 
L 40.896452 112.785055 
L 40.834646 112.662045 
" style="fill:none;stroke:#ff0000;stroke-linecap:round;"/>
   </g>
   <g id="line2d_18">
    <path clip-path="url(#p08aba5df64)" d="M 429.165354 210.33856 
L 394.610809 210.33856 
L 363.125995 210.33856 
L 334.438204 210.33856 
L 308.298958 210.33856 
L 284.48185 210.33856 
L 262.780589 210.33856 
L 243.007208 210.33856 
L 224.990439 210.33856 
L 208.574231 210.33856 
L 193.616393 210.33856 
L 179.987368 210.33856 
L 167.569109 210.33856 
L 156.254053 210.33856 
L 145.944196 210.33856 
L 136.550238 210.33856 
L 127.990813 210.33856 
L 120.191784 210.33856 
L 113.085599 210.33856 
L 106.610708 210.33856 
L 100.711029 210.33856 
L 95.335461 210.33856 
L 90.437443 210.33856 
L 85.974552 210.33856 
L 81.908132 210.33856 
L 78.202961 210.33856 
L 74.826948 210.33856 
L 71.75085 210.33856 
L 68.948024 210.33856 
L 66.394194 210.33856 
L 64.067239 210.33856 
L 61.947004 210.33856 
L 60.015125 210.33856 
L 58.254869 210.33856 
L 56.650989 210.33856 
L 55.189593 210.33856 
L 53.858024 210.33856 
L 52.644748 210.33856 
L 51.539255 210.33856 
L 50.531972 210.33856 
L 49.614173 213.571573 
L 48.777909 217.458737 
L 48.015936 220.961806 
L 47.321655 224.112598 
L 46.689051 227.022 
L 46.112647 229.673996 
L 45.587448 232.090445 
L 45.108907 234.292227 
L 44.672878 236.298409 
L 44.275585 238.080669 
L 43.913586 239.747401 
L 43.583746 241.268699 
L 43.283208 242.655084 
L 43.00937 243.918329 
L 42.759858 245.069354 
L 42.532512 246.118126 
L 42.325363 247.029002 
L 42.136616 247.898059 
L 41.964638 248.694642 
L 41.807937 249.421195 
L 41.665157 250.083332 
L 41.535061 250.636176 
L 41.416523 251.178887 
L 41.308515 251.681834 
L 41.210103 252.142278 
L 41.120433 252.562444 
L 41.038729 252.94547 
L 40.964284 253.243618 
L 40.896452 253.547079 
L 40.834646 253.834739 
" style="fill:none;stroke:#808080;stroke-linecap:round;"/>
   </g>
   <g id="line2d_19">
    <path clip-path="url(#p08aba5df64)" d="M 429.165354 210.33856 
L 394.610809 210.33856 
L 363.125995 210.33856 
L 334.438204 210.33856 
L 308.298958 210.33856 
L 284.48185 210.33856 
L 262.780589 210.33856 
L 243.007208 210.33856 
L 224.990439 210.33856 
L 208.574231 210.33856 
L 193.616393 210.33856 
L 179.987368 210.33856 
L 167.569109 210.33856 
L 156.254053 210.33856 
L 145.944196 210.33856 
L 136.550238 210.33856 
L 127.990813 210.33856 
L 120.191784 210.33856 
L 113.085599 210.33856 
L 106.610708 210.33856 
L 100.711029 210.33856 
L 95.335461 210.33856 
L 90.437443 210.33856 
L 85.974552 210.33856 
L 81.908132 210.33856 
L 78.202961 210.33856 
L 74.826948 210.33856 
L 71.75085 210.33856 
L 68.948024 210.33856 
L 66.394194 210.33856 
L 64.067239 210.33856 
L 61.947004 210.33856 
L 60.015125 210.33856 
L 58.254869 210.33856 
L 56.650989 210.117987 
L 55.189593 209.251391 
L 53.858024 208.494026 
L 52.644748 207.807682 
L 51.539255 207.182796 
L 50.531972 206.613487 
L 49.614173 205.929111 
L 48.777909 205.363833 
L 48.015936 204.815712 
L 47.321655 204.306036 
L 46.689051 203.850252 
L 46.112647 203.435518 
L 45.587448 203.057664 
L 45.108907 202.713378 
L 44.672878 202.399679 
L 44.275585 202.100375 
L 43.913586 201.839451 
L 43.583746 201.603204 
L 43.283208 201.388109 
L 43.00937 201.192141 
L 42.759858 201.013583 
L 42.532512 200.850888 
L 42.325363 200.687875 
L 42.136616 200.550733 
L 41.964638 200.428508 
L 41.807937 200.317672 
L 41.665157 200.216778 
L 41.535061 200.107099 
L 41.416523 200.017879 
L 41.308515 199.941365 
L 41.210103 199.873229 
L 41.120433 199.811631 
L 41.038729 199.755652 
L 40.964284 199.686261 
L 40.896452 199.629765 
L 40.834646 199.583999 
" style="fill:none;stroke:#a52a2a;stroke-linecap:round;"/>
   </g>
   <g id="line2d_20">
    <path clip-path="url(#p08aba5df64)" d="M 429.165354 210.33856 
L 394.610809 210.33856 
L 363.125995 210.33856 
L 334.438204 210.33856 
L 308.298958 210.33856 
L 284.48185 210.33856 
L 262.780589 210.33856 
L 243.007208 210.33856 
L 224.990439 210.33856 
L 208.574231 210.33856 
L 193.616393 210.33856 
L 179.987368 210.33856 
L 167.569109 210.33856 
L 156.254053 210.33856 
L 145.944196 210.33856 
L 136.550238 210.33856 
L 127.990813 210.33856 
L 120.191784 210.33856 
L 113.085599 210.33856 
L 106.610708 210.33856 
L 100.711029 208.186054 
L 95.335461 206.241009 
L 90.437443 204.683639 
L 85.974552 203.263391 
L 81.908132 201.969343 
L 78.202961 200.790254 
L 74.826948 199.715913 
L 71.75085 198.737013 
L 68.948024 197.63027 
L 66.394194 195.969265 
L 64.067239 194.47419 
L 61.947004 193.111886 
L 60.015125 191.870604 
L 58.254869 190.739594 
L 56.650989 189.856056 
L 55.189593 189.528527 
L 53.858024 189.206442 
L 52.644748 188.909627 
L 51.539255 188.638752 
L 50.531972 188.391885 
L 49.614173 187.197787 
L 48.777909 185.70138 
L 48.015936 184.383368 
L 47.321655 183.215765 
L 46.689051 182.12146 
L 46.112647 181.123219 
L 45.587448 180.213603 
L 45.108907 179.384792 
L 44.672878 178.629609 
L 44.275585 177.977116 
L 43.913586 177.350088 
L 43.583746 176.775957 
L 43.283208 176.252566 
L 43.00937 175.775645 
L 42.759858 175.34109 
L 42.532512 174.945139 
L 42.325363 174.617719 
L 42.136616 174.291887 
L 41.964638 173.99014 
L 41.807937 173.714381 
L 41.665157 173.462974 
L 41.535061 173.269302 
L 41.416523 173.068903 
L 41.308515 172.878163 
L 41.210103 172.702005 
L 41.120433 172.5408 
L 41.038729 172.393708 
L 40.964284 172.292163 
L 40.896452 172.184824 
L 40.834646 172.077645 
" style="fill:none;stroke:#0000ff;stroke-linecap:round;"/>
   </g>
   <g id="legend_1">
    <g id="patch_7">
     <path d="M 366.706604 103.174646 
L 423.565354 103.174646 
Q 425.165354 103.174646 425.165354 101.574646 
L 425.165354 8.434646 
Q 425.165354 6.834646 423.565354 6.834646 
L 366.706604 6.834646 
Q 365.106604 6.834646 365.106604 8.434646 
L 365.106604 101.574646 
Q 365.106604 103.174646 366.706604 103.174646 
z
" style="fill:#ffffff;opacity:0.8;stroke:#000000;stroke-linejoin:miter;"/>
    </g>
    <g id="line2d_21">
     <path d="M 368.306604 13.313396 
L 384.306604 13.313396 
" style="fill:none;stroke:#008000;stroke-linecap:round;"/>
    </g>
    <g id="line2d_22"/>
    <g id="text_9">
     <!-- lcavol -->
     <defs>
      <path d="M 9.421875 75.984375 
L 18.40625 75.984375 
L 18.40625 0 
L 9.421875 0 
z
" id="DejaVuSans-6c"/>
      <path d="M 48.78125 52.59375 
L 48.78125 44.1875 
Q 44.96875 46.296875 41.140625 47.34375 
Q 37.3125 48.390625 33.40625 48.390625 
Q 24.65625 48.390625 19.8125 42.84375 
Q 14.984375 37.3125 14.984375 27.296875 
Q 14.984375 17.28125 19.8125 11.734375 
Q 24.65625 6.203125 33.40625 6.203125 
Q 37.3125 6.203125 41.140625 7.25 
Q 44.96875 8.296875 48.78125 10.40625 
L 48.78125 2.09375 
Q 45.015625 0.34375 40.984375 -0.53125 
Q 36.96875 -1.421875 32.421875 -1.421875 
Q 20.0625 -1.421875 12.78125 6.34375 
Q 5.515625 14.109375 5.515625 27.296875 
Q 5.515625 40.671875 12.859375 48.328125 
Q 20.21875 56 33.015625 56 
Q 37.15625 56 41.109375 55.140625 
Q 45.0625 54.296875 48.78125 52.59375 
z
" id="DejaVuSans-63"/>
      <path d="M 34.28125 27.484375 
Q 23.390625 27.484375 19.1875 25 
Q 14.984375 22.515625 14.984375 16.5 
Q 14.984375 11.71875 18.140625 8.90625 
Q 21.296875 6.109375 26.703125 6.109375 
Q 34.1875 6.109375 38.703125 11.40625 
Q 43.21875 16.703125 43.21875 25.484375 
L 43.21875 27.484375 
z
M 52.203125 31.203125 
L 52.203125 0 
L 43.21875 0 
L 43.21875 8.296875 
Q 40.140625 3.328125 35.546875 0.953125 
Q 30.953125 -1.421875 24.3125 -1.421875 
Q 15.921875 -1.421875 10.953125 3.296875 
Q 6 8.015625 6 15.921875 
Q 6 25.140625 12.171875 29.828125 
Q 18.359375 34.515625 30.609375 34.515625 
L 43.21875 34.515625 
L 43.21875 35.40625 
Q 43.21875 41.609375 39.140625 45 
Q 35.0625 48.390625 27.6875 48.390625 
Q 23 48.390625 18.546875 47.265625 
Q 14.109375 46.140625 10.015625 43.890625 
L 10.015625 52.203125 
Q 14.9375 54.109375 19.578125 55.046875 
Q 24.21875 56 28.609375 56 
Q 40.484375 56 46.34375 49.84375 
Q 52.203125 43.703125 52.203125 31.203125 
z
" id="DejaVuSans-61"/>
      <path d="M 2.984375 54.6875 
L 12.5 54.6875 
L 29.59375 8.796875 
L 46.6875 54.6875 
L 56.203125 54.6875 
L 35.6875 0 
L 23.484375 0 
z
" id="DejaVuSans-76"/>
      <path d="M 30.609375 48.390625 
Q 23.390625 48.390625 19.1875 42.75 
Q 14.984375 37.109375 14.984375 27.296875 
Q 14.984375 17.484375 19.15625 11.84375 
Q 23.34375 6.203125 30.609375 6.203125 
Q 37.796875 6.203125 41.984375 11.859375 
Q 46.1875 17.53125 46.1875 27.296875 
Q 46.1875 37.015625 41.984375 42.703125 
Q 37.796875 48.390625 30.609375 48.390625 
z
M 30.609375 56 
Q 42.328125 56 49.015625 48.375 
Q 55.71875 40.765625 55.71875 27.296875 
Q 55.71875 13.875 49.015625 6.21875 
Q 42.328125 -1.421875 30.609375 -1.421875 
Q 18.84375 -1.421875 12.171875 6.21875 
Q 5.515625 13.875 5.515625 27.296875 
Q 5.515625 40.765625 12.171875 48.375 
Q 18.84375 56 30.609375 56 
z
" id="DejaVuSans-6f"/>
     </defs>
     <g transform="translate(390.706604 16.113396)scale(0.08 -0.08)">
      <use xlink:href="#DejaVuSans-6c"/>
      <use x="27.783203" xlink:href="#DejaVuSans-63"/>
      <use x="82.763672" xlink:href="#DejaVuSans-61"/>
      <use x="144.042969" xlink:href="#DejaVuSans-76"/>
      <use x="203.222656" xlink:href="#DejaVuSans-6f"/>
      <use x="264.404297" xlink:href="#DejaVuSans-6c"/>
     </g>
    </g>
    <g id="line2d_23">
     <path d="M 368.306604 25.055896 
L 384.306604 25.055896 
" style="fill:none;stroke:#ffa500;stroke-linecap:round;"/>
    </g>
    <g id="line2d_24"/>
    <g id="text_10">
     <!-- lweight -->
     <defs>
      <path d="M 4.203125 54.6875 
L 13.1875 54.6875 
L 24.421875 12.015625 
L 35.59375 54.6875 
L 46.1875 54.6875 
L 57.421875 12.015625 
L 68.609375 54.6875 
L 77.59375 54.6875 
L 63.28125 0 
L 52.6875 0 
L 40.921875 44.828125 
L 29.109375 0 
L 18.5 0 
z
" id="DejaVuSans-77"/>
      <path d="M 56.203125 29.59375 
L 56.203125 25.203125 
L 14.890625 25.203125 
Q 15.484375 15.921875 20.484375 11.0625 
Q 25.484375 6.203125 34.421875 6.203125 
Q 39.59375 6.203125 44.453125 7.46875 
Q 49.3125 8.734375 54.109375 11.28125 
L 54.109375 2.78125 
Q 49.265625 0.734375 44.1875 -0.34375 
Q 39.109375 -1.421875 33.890625 -1.421875 
Q 20.796875 -1.421875 13.15625 6.1875 
Q 5.515625 13.8125 5.515625 26.8125 
Q 5.515625 40.234375 12.765625 48.109375 
Q 20.015625 56 32.328125 56 
Q 43.359375 56 49.78125 48.890625 
Q 56.203125 41.796875 56.203125 29.59375 
z
M 47.21875 32.234375 
Q 47.125 39.59375 43.09375 43.984375 
Q 39.0625 48.390625 32.421875 48.390625 
Q 24.90625 48.390625 20.390625 44.140625 
Q 15.875 39.890625 15.1875 32.171875 
z
" id="DejaVuSans-65"/>
      <path d="M 9.421875 54.6875 
L 18.40625 54.6875 
L 18.40625 0 
L 9.421875 0 
z
M 9.421875 75.984375 
L 18.40625 75.984375 
L 18.40625 64.59375 
L 9.421875 64.59375 
z
" id="DejaVuSans-69"/>
      <path d="M 45.40625 27.984375 
Q 45.40625 37.75 41.375 43.109375 
Q 37.359375 48.484375 30.078125 48.484375 
Q 22.859375 48.484375 18.828125 43.109375 
Q 14.796875 37.75 14.796875 27.984375 
Q 14.796875 18.265625 18.828125 12.890625 
Q 22.859375 7.515625 30.078125 7.515625 
Q 37.359375 7.515625 41.375 12.890625 
Q 45.40625 18.265625 45.40625 27.984375 
z
M 54.390625 6.78125 
Q 54.390625 -7.171875 48.1875 -13.984375 
Q 42 -20.796875 29.203125 -20.796875 
Q 24.46875 -20.796875 20.265625 -20.09375 
Q 16.0625 -19.390625 12.109375 -17.921875 
L 12.109375 -9.1875 
Q 16.0625 -11.328125 19.921875 -12.34375 
Q 23.78125 -13.375 27.78125 -13.375 
Q 36.625 -13.375 41.015625 -8.765625 
Q 45.40625 -4.15625 45.40625 5.171875 
L 45.40625 9.625 
Q 42.625 4.78125 38.28125 2.390625 
Q 33.9375 0 27.875 0 
Q 17.828125 0 11.671875 7.65625 
Q 5.515625 15.328125 5.515625 27.984375 
Q 5.515625 40.671875 11.671875 48.328125 
Q 17.828125 56 27.875 56 
Q 33.9375 56 38.28125 53.609375 
Q 42.625 51.21875 45.40625 46.390625 
L 45.40625 54.6875 
L 54.390625 54.6875 
z
" id="DejaVuSans-67"/>
      <path d="M 54.890625 33.015625 
L 54.890625 0 
L 45.90625 0 
L 45.90625 32.71875 
Q 45.90625 40.484375 42.875 44.328125 
Q 39.84375 48.1875 33.796875 48.1875 
Q 26.515625 48.1875 22.3125 43.546875 
Q 18.109375 38.921875 18.109375 30.90625 
L 18.109375 0 
L 9.078125 0 
L 9.078125 75.984375 
L 18.109375 75.984375 
L 18.109375 46.1875 
Q 21.34375 51.125 25.703125 53.5625 
Q 30.078125 56 35.796875 56 
Q 45.21875 56 50.046875 50.171875 
Q 54.890625 44.34375 54.890625 33.015625 
z
" id="DejaVuSans-68"/>
      <path d="M 18.3125 70.21875 
L 18.3125 54.6875 
L 36.8125 54.6875 
L 36.8125 47.703125 
L 18.3125 47.703125 
L 18.3125 18.015625 
Q 18.3125 11.328125 20.140625 9.421875 
Q 21.96875 7.515625 27.59375 7.515625 
L 36.8125 7.515625 
L 36.8125 0 
L 27.59375 0 
Q 17.1875 0 13.234375 3.875 
Q 9.28125 7.765625 9.28125 18.015625 
L 9.28125 47.703125 
L 2.6875 47.703125 
L 2.6875 54.6875 
L 9.28125 54.6875 
L 9.28125 70.21875 
z
" id="DejaVuSans-74"/>
     </defs>
     <g transform="translate(390.706604 27.855896)scale(0.08 -0.08)">
      <use xlink:href="#DejaVuSans-6c"/>
      <use x="27.783203" xlink:href="#DejaVuSans-77"/>
      <use x="109.570312" xlink:href="#DejaVuSans-65"/>
      <use x="171.09375" xlink:href="#DejaVuSans-69"/>
      <use x="198.876953" xlink:href="#DejaVuSans-67"/>
      <use x="262.353516" xlink:href="#DejaVuSans-68"/>
      <use x="325.732422" xlink:href="#DejaVuSans-74"/>
     </g>
    </g>
    <g id="line2d_25">
     <path d="M 368.306604 36.798396 
L 384.306604 36.798396 
" style="fill:none;stroke:#000000;stroke-linecap:round;"/>
    </g>
    <g id="line2d_26"/>
    <g id="text_11">
     <!-- age -->
     <g transform="translate(390.706604 39.598396)scale(0.08 -0.08)">
      <use xlink:href="#DejaVuSans-61"/>
      <use x="61.279297" xlink:href="#DejaVuSans-67"/>
      <use x="124.755859" xlink:href="#DejaVuSans-65"/>
     </g>
    </g>
    <g id="line2d_27">
     <path d="M 368.306604 48.540896 
L 384.306604 48.540896 
" style="fill:none;stroke:#800080;stroke-linecap:round;"/>
    </g>
    <g id="line2d_28"/>
    <g id="text_12">
     <!-- lbph -->
     <defs>
      <path d="M 48.6875 27.296875 
Q 48.6875 37.203125 44.609375 42.84375 
Q 40.53125 48.484375 33.40625 48.484375 
Q 26.265625 48.484375 22.1875 42.84375 
Q 18.109375 37.203125 18.109375 27.296875 
Q 18.109375 17.390625 22.1875 11.75 
Q 26.265625 6.109375 33.40625 6.109375 
Q 40.53125 6.109375 44.609375 11.75 
Q 48.6875 17.390625 48.6875 27.296875 
z
M 18.109375 46.390625 
Q 20.953125 51.265625 25.265625 53.625 
Q 29.59375 56 35.59375 56 
Q 45.5625 56 51.78125 48.09375 
Q 58.015625 40.1875 58.015625 27.296875 
Q 58.015625 14.40625 51.78125 6.484375 
Q 45.5625 -1.421875 35.59375 -1.421875 
Q 29.59375 -1.421875 25.265625 0.953125 
Q 20.953125 3.328125 18.109375 8.203125 
L 18.109375 0 
L 9.078125 0 
L 9.078125 75.984375 
L 18.109375 75.984375 
z
" id="DejaVuSans-62"/>
      <path d="M 18.109375 8.203125 
L 18.109375 -20.796875 
L 9.078125 -20.796875 
L 9.078125 54.6875 
L 18.109375 54.6875 
L 18.109375 46.390625 
Q 20.953125 51.265625 25.265625 53.625 
Q 29.59375 56 35.59375 56 
Q 45.5625 56 51.78125 48.09375 
Q 58.015625 40.1875 58.015625 27.296875 
Q 58.015625 14.40625 51.78125 6.484375 
Q 45.5625 -1.421875 35.59375 -1.421875 
Q 29.59375 -1.421875 25.265625 0.953125 
Q 20.953125 3.328125 18.109375 8.203125 
z
M 48.6875 27.296875 
Q 48.6875 37.203125 44.609375 42.84375 
Q 40.53125 48.484375 33.40625 48.484375 
Q 26.265625 48.484375 22.1875 42.84375 
Q 18.109375 37.203125 18.109375 27.296875 
Q 18.109375 17.390625 22.1875 11.75 
Q 26.265625 6.109375 33.40625 6.109375 
Q 40.53125 6.109375 44.609375 11.75 
Q 48.6875 17.390625 48.6875 27.296875 
z
" id="DejaVuSans-70"/>
     </defs>
     <g transform="translate(390.706604 51.340896)scale(0.08 -0.08)">
      <use xlink:href="#DejaVuSans-6c"/>
      <use x="27.783203" xlink:href="#DejaVuSans-62"/>
      <use x="91.259766" xlink:href="#DejaVuSans-70"/>
      <use x="154.736328" xlink:href="#DejaVuSans-68"/>
     </g>
    </g>
    <g id="line2d_29">
     <path d="M 368.306604 60.283396 
L 384.306604 60.283396 
" style="fill:none;stroke:#ff0000;stroke-linecap:round;"/>
    </g>
    <g id="line2d_30"/>
    <g id="text_13">
     <!-- svi -->
     <defs>
      <path d="M 44.28125 53.078125 
L 44.28125 44.578125 
Q 40.484375 46.53125 36.375 47.5 
Q 32.28125 48.484375 27.875 48.484375 
Q 21.1875 48.484375 17.84375 46.4375 
Q 14.5 44.390625 14.5 40.28125 
Q 14.5 37.15625 16.890625 35.375 
Q 19.28125 33.59375 26.515625 31.984375 
L 29.59375 31.296875 
Q 39.15625 29.25 43.1875 25.515625 
Q 47.21875 21.78125 47.21875 15.09375 
Q 47.21875 7.46875 41.1875 3.015625 
Q 35.15625 -1.421875 24.609375 -1.421875 
Q 20.21875 -1.421875 15.453125 -0.5625 
Q 10.6875 0.296875 5.421875 2 
L 5.421875 11.28125 
Q 10.40625 8.6875 15.234375 7.390625 
Q 20.0625 6.109375 24.8125 6.109375 
Q 31.15625 6.109375 34.5625 8.28125 
Q 37.984375 10.453125 37.984375 14.40625 
Q 37.984375 18.0625 35.515625 20.015625 
Q 33.0625 21.96875 24.703125 23.78125 
L 21.578125 24.515625 
Q 13.234375 26.265625 9.515625 29.90625 
Q 5.8125 33.546875 5.8125 39.890625 
Q 5.8125 47.609375 11.28125 51.796875 
Q 16.75 56 26.8125 56 
Q 31.78125 56 36.171875 55.265625 
Q 40.578125 54.546875 44.28125 53.078125 
z
" id="DejaVuSans-73"/>
     </defs>
     <g transform="translate(390.706604 63.083396)scale(0.08 -0.08)">
      <use xlink:href="#DejaVuSans-73"/>
      <use x="52.099609" xlink:href="#DejaVuSans-76"/>
      <use x="111.279297" xlink:href="#DejaVuSans-69"/>
     </g>
    </g>
    <g id="line2d_31">
     <path d="M 368.306604 72.025896 
L 384.306604 72.025896 
" style="fill:none;stroke:#808080;stroke-linecap:round;"/>
    </g>
    <g id="line2d_32"/>
    <g id="text_14">
     <!-- lcp -->
     <g transform="translate(390.706604 74.825896)scale(0.08 -0.08)">
      <use xlink:href="#DejaVuSans-6c"/>
      <use x="27.783203" xlink:href="#DejaVuSans-63"/>
      <use x="82.763672" xlink:href="#DejaVuSans-70"/>
     </g>
    </g>
    <g id="line2d_33">
     <path d="M 368.306604 83.768396 
L 384.306604 83.768396 
" style="fill:none;stroke:#a52a2a;stroke-linecap:round;"/>
    </g>
    <g id="line2d_34"/>
    <g id="text_15">
     <!-- gleason -->
     <defs>
      <path d="M 54.890625 33.015625 
L 54.890625 0 
L 45.90625 0 
L 45.90625 32.71875 
Q 45.90625 40.484375 42.875 44.328125 
Q 39.84375 48.1875 33.796875 48.1875 
Q 26.515625 48.1875 22.3125 43.546875 
Q 18.109375 38.921875 18.109375 30.90625 
L 18.109375 0 
L 9.078125 0 
L 9.078125 54.6875 
L 18.109375 54.6875 
L 18.109375 46.1875 
Q 21.34375 51.125 25.703125 53.5625 
Q 30.078125 56 35.796875 56 
Q 45.21875 56 50.046875 50.171875 
Q 54.890625 44.34375 54.890625 33.015625 
z
" id="DejaVuSans-6e"/>
     </defs>
     <g transform="translate(390.706604 86.568396)scale(0.08 -0.08)">
      <use xlink:href="#DejaVuSans-67"/>
      <use x="63.476562" xlink:href="#DejaVuSans-6c"/>
      <use x="91.259766" xlink:href="#DejaVuSans-65"/>
      <use x="152.783203" xlink:href="#DejaVuSans-61"/>
      <use x="214.0625" xlink:href="#DejaVuSans-73"/>
      <use x="266.162109" xlink:href="#DejaVuSans-6f"/>
      <use x="327.34375" xlink:href="#DejaVuSans-6e"/>
     </g>
    </g>
    <g id="line2d_35">
     <path d="M 368.306604 95.510896 
L 384.306604 95.510896 
" style="fill:none;stroke:#0000ff;stroke-linecap:round;"/>
    </g>
    <g id="line2d_36"/>
    <g id="text_16">
     <!-- pgg45 -->
     <defs>
      <path d="M 37.796875 64.3125 
L 12.890625 25.390625 
L 37.796875 25.390625 
z
M 35.203125 72.90625 
L 47.609375 72.90625 
L 47.609375 25.390625 
L 58.015625 25.390625 
L 58.015625 17.1875 
L 47.609375 17.1875 
L 47.609375 0 
L 37.796875 0 
L 37.796875 17.1875 
L 4.890625 17.1875 
L 4.890625 26.703125 
z
" id="DejaVuSans-34"/>
     </defs>
     <g transform="translate(390.706604 98.310896)scale(0.08 -0.08)">
      <use xlink:href="#DejaVuSans-70"/>
      <use x="63.476562" xlink:href="#DejaVuSans-67"/>
      <use x="126.953125" xlink:href="#DejaVuSans-67"/>
      <use x="190.429688" xlink:href="#DejaVuSans-34"/>
      <use x="254.052734" xlink:href="#DejaVuSans-35"/>
     </g>
    </g>
   </g>
  </g>
 </g>
 <defs>
  <clipPath id="p08aba5df64">
   <rect height="255.850709" width="388.330709" x="40.834646" y="2.834646"/>
  </clipPath>
 </defs>
</svg>
