<?xml version="1.0" encoding="utf-8" standalone="no"?>
<!DOCTYPE svg PUBLIC "-//W3C//DTD SVG 1.1//EN"
  "http://www.w3.org/Graphics/SVG/1.1/DTD/svg11.dtd">
<!-- Created with matplotlib (http://matplotlib.org/) -->
<svg height="288pt" version="1.1" viewBox="0 0 432 288" width="432pt" xmlns="http://www.w3.org/2000/svg" xmlns:xlink="http://www.w3.org/1999/xlink">
 <defs>
  <style type="text/css">
*{stroke-linecap:butt;stroke-linejoin:round;}
  </style>
 </defs>
 <g id="figure_1">
  <g id="patch_1">
   <path d="M 0 288 
L 432 288 
L 432 0 
L 0 0 
z
" style="fill:#ffffff;"/>
  </g>
  <g id="axes_1">
   <g id="patch_2">
    <path d="M 30.844646 258.685354 
L 429.165354 258.685354 
L 429.165354 17.114646 
L 30.844646 17.114646 
z
" style="fill:#ffffff;"/>
   </g>
   <g id="matplotlib.axis_1">
    <g id="xtick_1">
     <g id="line2d_1">
      <path clip-path="url(#pe543d50108)" d="M 158.307272 258.685354 
L 158.307272 17.114646 
" style="fill:none;stroke:#000000;stroke-dasharray:0.8,1.32;stroke-dashoffset:0;stroke-width:0.8;"/>
     </g>
     <g id="line2d_2">
      <defs>
       <path d="M 0 0 
L 0 3.5 
" id="m7651f6c757" style="stroke:#000000;stroke-width:0.8;"/>
      </defs>
      <g>
       <use style="stroke:#000000;stroke-width:0.8;" x="158.307272" xlink:href="#m7651f6c757" y="258.685354"/>
      </g>
     </g>
     <g id="text_1">
      <!-- 50 -->
      <defs>
       <path d="M 10.796875 72.90625 
L 49.515625 72.90625 
L 49.515625 64.59375 
L 19.828125 64.59375 
L 19.828125 46.734375 
Q 21.96875 47.46875 24.109375 47.828125 
Q 26.265625 48.1875 28.421875 48.1875 
Q 40.625 48.1875 47.75 41.5 
Q 54.890625 34.8125 54.890625 23.390625 
Q 54.890625 11.625 47.5625 5.09375 
Q 40.234375 -1.421875 26.90625 -1.421875 
Q 22.3125 -1.421875 17.546875 -0.640625 
Q 12.796875 0.140625 7.71875 1.703125 
L 7.71875 11.625 
Q 12.109375 9.234375 16.796875 8.0625 
Q 21.484375 6.890625 26.703125 6.890625 
Q 35.15625 6.890625 40.078125 11.328125 
Q 45.015625 15.765625 45.015625 23.390625 
Q 45.015625 31 40.078125 35.4375 
Q 35.15625 39.890625 26.703125 39.890625 
Q 22.75 39.890625 18.8125 39.015625 
Q 14.890625 38.140625 10.796875 36.28125 
z
" id="DejaVuSans-35"/>
       <path d="M 31.78125 66.40625 
Q 24.171875 66.40625 20.328125 58.90625 
Q 16.5 51.421875 16.5 36.375 
Q 16.5 21.390625 20.328125 13.890625 
Q 24.171875 6.390625 31.78125 6.390625 
Q 39.453125 6.390625 43.28125 13.890625 
Q 47.125 21.390625 47.125 36.375 
Q 47.125 51.421875 43.28125 58.90625 
Q 39.453125 66.40625 31.78125 66.40625 
z
M 31.78125 74.21875 
Q 44.046875 74.21875 50.515625 64.515625 
Q 56.984375 54.828125 56.984375 36.375 
Q 56.984375 17.96875 50.515625 8.265625 
Q 44.046875 -1.421875 31.78125 -1.421875 
Q 19.53125 -1.421875 13.0625 8.265625 
Q 6.59375 17.96875 6.59375 36.375 
Q 6.59375 54.828125 13.0625 64.515625 
Q 19.53125 74.21875 31.78125 74.21875 
z
" id="DejaVuSans-30"/>
      </defs>
      <g transform="translate(153.217272 271.764104)scale(0.08 -0.08)">
       <use xlink:href="#DejaVuSans-35"/>
       <use x="63.623047" xlink:href="#DejaVuSans-30"/>
      </g>
     </g>
    </g>
    <g id="xtick_2">
     <g id="line2d_3">
      <path clip-path="url(#pe543d50108)" d="M 291.080842 258.685354 
L 291.080842 17.114646 
" style="fill:none;stroke:#000000;stroke-dasharray:0.8,1.32;stroke-dashoffset:0;stroke-width:0.8;"/>
     </g>
     <g id="line2d_4">
      <g>
       <use style="stroke:#000000;stroke-width:0.8;" x="291.080842" xlink:href="#m7651f6c757" y="258.685354"/>
      </g>
     </g>
     <g id="text_2">
      <!-- 100 -->
      <defs>
       <path d="M 12.40625 8.296875 
L 28.515625 8.296875 
L 28.515625 63.921875 
L 10.984375 60.40625 
L 10.984375 69.390625 
L 28.421875 72.90625 
L 38.28125 72.90625 
L 38.28125 8.296875 
L 54.390625 8.296875 
L 54.390625 0 
L 12.40625 0 
z
" id="DejaVuSans-31"/>
      </defs>
      <g transform="translate(283.445842 271.764104)scale(0.08 -0.08)">
       <use xlink:href="#DejaVuSans-31"/>
       <use x="63.623047" xlink:href="#DejaVuSans-30"/>
       <use x="127.246094" xlink:href="#DejaVuSans-30"/>
      </g>
     </g>
    </g>
    <g id="xtick_3">
     <g id="line2d_5">
      <path clip-path="url(#pe543d50108)" d="M 423.854412 258.685354 
L 423.854412 17.114646 
" style="fill:none;stroke:#000000;stroke-dasharray:0.8,1.32;stroke-dashoffset:0;stroke-width:0.8;"/>
     </g>
     <g id="line2d_6">
      <g>
       <use style="stroke:#000000;stroke-width:0.8;" x="423.854412" xlink:href="#m7651f6c757" y="258.685354"/>
      </g>
     </g>
     <g id="text_3">
      <!-- 150 -->
      <g transform="translate(416.219412 271.764104)scale(0.08 -0.08)">
       <use xlink:href="#DejaVuSans-31"/>
       <use x="63.623047" xlink:href="#DejaVuSans-35"/>
       <use x="127.246094" xlink:href="#DejaVuSans-30"/>
      </g>
     </g>
    </g>
    <g id="text_4">
     <!-- ρ -->
     <defs>
      <path d="M 13.484375 44.921875 
Q 16.453125 49.90625 23.828125 54.296875 
Q 26.703125 56 35.59375 56 
Q 45.5625 56 51.78125 48.09375 
Q 58.015625 40.1875 58.015625 27.296875 
Q 58.015625 14.40625 51.78125 6.484375 
Q 45.5625 -1.421875 35.59375 -1.421875 
Q 29.59375 -1.421875 25.265625 0.953125 
Q 20.953125 3.328125 18.109375 8.203125 
L 18.109375 -20.796875 
L 9.078125 -20.796875 
L 9.078125 26.8125 
Q 9.078125 38.09375 13.484375 44.921875 
z
M 48.6875 27.296875 
Q 48.6875 37.203125 44.609375 42.84375 
Q 40.53125 48.484375 33.40625 48.484375 
Q 26.265625 48.484375 22.1875 42.84375 
Q 18.109375 37.203125 18.109375 27.296875 
Q 18.109375 17.390625 22.1875 11.75 
Q 26.265625 6.109375 33.40625 6.109375 
Q 40.53125 6.109375 44.609375 11.75 
Q 48.6875 17.390625 48.6875 27.296875 
z
" id="DejaVuSans-3c1"/>
     </defs>
     <g transform="translate(226.513359 285.786136)scale(0.11 -0.11)">
      <use xlink:href="#DejaVuSans-3c1"/>
     </g>
    </g>
   </g>
   <g id="matplotlib.axis_2">
    <g id="ytick_1">
     <g id="line2d_7">
      <path clip-path="url(#pe543d50108)" d="M 30.844646 208.372018 
L 429.165354 208.372018 
" style="fill:none;stroke:#000000;stroke-dasharray:0.8,1.32;stroke-dashoffset:0;stroke-width:0.8;"/>
     </g>
     <g id="line2d_8">
      <defs>
       <path d="M 0 0 
L -3.5 0 
" id="m4351e1abb3" style="stroke:#000000;stroke-width:0.8;"/>
      </defs>
      <g>
       <use style="stroke:#000000;stroke-width:0.8;" x="30.844646" xlink:href="#m4351e1abb3" y="208.372018"/>
      </g>
     </g>
     <g id="text_5">
      <!-- -1 -->
      <defs>
       <path d="M 4.890625 31.390625 
L 31.203125 31.390625 
L 31.203125 23.390625 
L 4.890625 23.390625 
z
" id="DejaVuSans-2d"/>
      </defs>
      <g transform="translate(15.868396 211.411393)scale(0.08 -0.08)">
       <use xlink:href="#DejaVuSans-2d"/>
       <use x="36.083984" xlink:href="#DejaVuSans-31"/>
      </g>
     </g>
    </g>
    <g id="ytick_2">
     <g id="line2d_9">
      <path clip-path="url(#pe543d50108)" d="M 30.844646 134.298309 
L 429.165354 134.298309 
" style="fill:none;stroke:#000000;stroke-dasharray:0.8,1.32;stroke-dashoffset:0;stroke-width:0.8;"/>
     </g>
     <g id="line2d_10">
      <g>
       <use style="stroke:#000000;stroke-width:0.8;" x="30.844646" xlink:href="#m4351e1abb3" y="134.298309"/>
      </g>
     </g>
     <g id="text_6">
      <!-- 0 -->
      <g transform="translate(18.754646 137.337684)scale(0.08 -0.08)">
       <use xlink:href="#DejaVuSans-30"/>
      </g>
     </g>
    </g>
    <g id="ytick_3">
     <g id="line2d_11">
      <path clip-path="url(#pe543d50108)" d="M 30.844646 60.224601 
L 429.165354 60.224601 
" style="fill:none;stroke:#000000;stroke-dasharray:0.8,1.32;stroke-dashoffset:0;stroke-width:0.8;"/>
     </g>
     <g id="line2d_12">
      <g>
       <use style="stroke:#000000;stroke-width:0.8;" x="30.844646" xlink:href="#m4351e1abb3" y="60.224601"/>
      </g>
     </g>
     <g id="text_7">
      <!-- 1 -->
      <g transform="translate(18.754646 63.263976)scale(0.08 -0.08)">
       <use xlink:href="#DejaVuSans-31"/>
      </g>
     </g>
    </g>
    <g id="text_8">
     <!-- β̂(ρ) -->
     <defs>
      <path d="M 18.40625 3.375 
L 18.40625 -20.796875 
L 9.375 -20.796875 
L 9.375 54.34375 
Q 9.375 76.609375 30.171875 76.609375 
Q 51.375 76.609375 51.375 57.8125 
Q 51.375 44.4375 42.96875 39.546875 
Q 56.640625 35.15625 56.640625 22.125 
Q 56.640625 -1.03125 33.109375 -1.03125 
Q 22.75 -1.03125 18.40625 3.375 
z
M 18.40625 15.09375 
Q 23.828125 6.640625 33.453125 6.640625 
Q 47.515625 6.640625 47.515625 21.96875 
Q 47.515625 35.75 24.859375 34.671875 
L 24.859375 42.96875 
Q 42.578125 42.96875 42.578125 58.59375 
Q 42.578125 69.28125 31.15625 69.28125 
Q 18.40625 69.28125 18.40625 54.046875 
z
" id="DejaVuSans-3b2"/>
      <path d="M -28.609375 79.984375 
L -21.390625 79.984375 
L -9.421875 61.625 
L -16.21875 61.625 
L -25 73.578125 
L -33.796875 61.625 
L -40.578125 61.625 
z
M -25 56 
z
" id="DejaVuSans-302"/>
      <path d="M 31 75.875 
Q 24.46875 64.65625 21.28125 53.65625 
Q 18.109375 42.671875 18.109375 31.390625 
Q 18.109375 20.125 21.3125 9.0625 
Q 24.515625 -2 31 -13.1875 
L 23.1875 -13.1875 
Q 15.875 -1.703125 12.234375 9.375 
Q 8.59375 20.453125 8.59375 31.390625 
Q 8.59375 42.28125 12.203125 53.3125 
Q 15.828125 64.359375 23.1875 75.875 
z
" id="DejaVuSans-28"/>
      <path d="M 8.015625 75.875 
L 15.828125 75.875 
Q 23.140625 64.359375 26.78125 53.3125 
Q 30.421875 42.28125 30.421875 31.390625 
Q 30.421875 20.453125 26.78125 9.375 
Q 23.140625 -1.703125 15.828125 -13.1875 
L 8.015625 -13.1875 
Q 14.5 -2 17.703125 9.0625 
Q 20.90625 20.125 20.90625 31.390625 
Q 20.90625 42.671875 17.703125 53.65625 
Q 14.5 64.65625 8.015625 75.875 
z
" id="DejaVuSans-29"/>
     </defs>
     <g transform="translate(9.580739 149.193047)rotate(-90)scale(0.11 -0.11)">
      <use xlink:href="#DejaVuSans-3b2"/>
      <use x="63.818359" xlink:href="#DejaVuSans-302"/>
      <use x="63.818359" xlink:href="#DejaVuSans-28"/>
      <use x="102.832031" xlink:href="#DejaVuSans-3c1"/>
      <use x="166.308594" xlink:href="#DejaVuSans-29"/>
     </g>
    </g>
   </g>
   <g id="line2d_13">
    <path clip-path="url(#pe543d50108)" d="M 429.165354 134.297561 
L 389.333283 134.298922 
L 349.501213 134.298383 
L 309.669142 134.298271 
L 269.837071 134.298311 
L 230.005 134.298362 
L 190.172929 134.298387 
L 150.340858 134.298436 
L 110.508787 134.29959 
L 70.676717 134.298143 
L 30.844646 134.298311 
" style="fill:none;stroke:#009afa;stroke-linecap:round;stroke-width:0.5;"/>
   </g>
   <g id="line2d_14">
    <path clip-path="url(#pe543d50108)" d="M 429.165354 134.298991 
L 389.333283 134.299598 
L 349.501213 134.298462 
L 309.669142 134.298372 
L 269.837071 134.29846 
L 230.005 134.298249 
L 190.172929 134.298264 
L 150.340858 134.29824 
L 110.508787 134.299372 
L 70.676717 134.300241 
L 30.844646 121.055229 
" style="fill:none;stroke:#e36f47;stroke-linecap:round;stroke-width:0.5;"/>
   </g>
   <g id="patch_3">
    <path d="M 30.844646 258.685354 
L 30.844646 17.114646 
" style="fill:none;stroke:#000000;stroke-linecap:square;stroke-linejoin:miter;stroke-width:0.8;"/>
   </g>
   <g id="patch_4">
    <path d="M 429.165354 258.685354 
L 429.165354 17.114646 
" style="fill:none;stroke:#000000;stroke-linecap:square;stroke-linejoin:miter;stroke-width:0.8;"/>
   </g>
   <g id="patch_5">
    <path d="M 30.844646 258.685354 
L 429.165354 258.685354 
" style="fill:none;stroke:#000000;stroke-linecap:square;stroke-linejoin:miter;stroke-width:0.8;"/>
   </g>
   <g id="patch_6">
    <path d="M 30.844646 17.114646 
L 429.165354 17.114646 
" style="fill:none;stroke:#000000;stroke-linecap:square;stroke-linejoin:miter;stroke-width:0.8;"/>
   </g>
   <g id="line2d_15">
    <path clip-path="url(#pe543d50108)" d="M 429.165354 134.298727 
L 389.333283 134.299612 
L 349.501213 134.298449 
L 309.669142 134.298312 
L 269.837071 134.298381 
L 230.005 134.29829 
L 190.172929 134.298254 
L 150.340858 134.298128 
L 110.508787 134.296656 
L 70.676717 134.299063 
L 30.844646 134.298307 
" style="fill:none;stroke:#3ea44e;stroke-linecap:round;stroke-width:0.5;"/>
   </g>
   <g id="text_9">
    <!-- Solution Path at Fixed Parameter Values -->
    <defs>
     <path d="M 53.515625 70.515625 
L 53.515625 60.890625 
Q 47.90625 63.578125 42.921875 64.890625 
Q 37.9375 66.21875 33.296875 66.21875 
Q 25.25 66.21875 20.875 63.09375 
Q 16.5 59.96875 16.5 54.203125 
Q 16.5 49.359375 19.40625 46.890625 
Q 22.3125 44.4375 30.421875 42.921875 
L 36.375 41.703125 
Q 47.40625 39.59375 52.65625 34.296875 
Q 57.90625 29 57.90625 20.125 
Q 57.90625 9.515625 50.796875 4.046875 
Q 43.703125 -1.421875 29.984375 -1.421875 
Q 24.8125 -1.421875 18.96875 -0.25 
Q 13.140625 0.921875 6.890625 3.21875 
L 6.890625 13.375 
Q 12.890625 10.015625 18.65625 8.296875 
Q 24.421875 6.59375 29.984375 6.59375 
Q 38.421875 6.59375 43.015625 9.90625 
Q 47.609375 13.234375 47.609375 19.390625 
Q 47.609375 24.75 44.3125 27.78125 
Q 41.015625 30.8125 33.5 32.328125 
L 27.484375 33.5 
Q 16.453125 35.6875 11.515625 40.375 
Q 6.59375 45.0625 6.59375 53.421875 
Q 6.59375 63.09375 13.40625 68.65625 
Q 20.21875 74.21875 32.171875 74.21875 
Q 37.3125 74.21875 42.625 73.28125 
Q 47.953125 72.359375 53.515625 70.515625 
z
" id="DejaVuSans-53"/>
     <path d="M 30.609375 48.390625 
Q 23.390625 48.390625 19.1875 42.75 
Q 14.984375 37.109375 14.984375 27.296875 
Q 14.984375 17.484375 19.15625 11.84375 
Q 23.34375 6.203125 30.609375 6.203125 
Q 37.796875 6.203125 41.984375 11.859375 
Q 46.1875 17.53125 46.1875 27.296875 
Q 46.1875 37.015625 41.984375 42.703125 
Q 37.796875 48.390625 30.609375 48.390625 
z
M 30.609375 56 
Q 42.328125 56 49.015625 48.375 
Q 55.71875 40.765625 55.71875 27.296875 
Q 55.71875 13.875 49.015625 6.21875 
Q 42.328125 -1.421875 30.609375 -1.421875 
Q 18.84375 -1.421875 12.171875 6.21875 
Q 5.515625 13.875 5.515625 27.296875 
Q 5.515625 40.765625 12.171875 48.375 
Q 18.84375 56 30.609375 56 
z
" id="DejaVuSans-6f"/>
     <path d="M 9.421875 75.984375 
L 18.40625 75.984375 
L 18.40625 0 
L 9.421875 0 
z
" id="DejaVuSans-6c"/>
     <path d="M 8.5 21.578125 
L 8.5 54.6875 
L 17.484375 54.6875 
L 17.484375 21.921875 
Q 17.484375 14.15625 20.5 10.265625 
Q 23.53125 6.390625 29.59375 6.390625 
Q 36.859375 6.390625 41.078125 11.03125 
Q 45.3125 15.671875 45.3125 23.6875 
L 45.3125 54.6875 
L 54.296875 54.6875 
L 54.296875 0 
L 45.3125 0 
L 45.3125 8.40625 
Q 42.046875 3.421875 37.71875 1 
Q 33.40625 -1.421875 27.6875 -1.421875 
Q 18.265625 -1.421875 13.375 4.4375 
Q 8.5 10.296875 8.5 21.578125 
z
M 31.109375 56 
z
" id="DejaVuSans-75"/>
     <path d="M 18.3125 70.21875 
L 18.3125 54.6875 
L 36.8125 54.6875 
L 36.8125 47.703125 
L 18.3125 47.703125 
L 18.3125 18.015625 
Q 18.3125 11.328125 20.140625 9.421875 
Q 21.96875 7.515625 27.59375 7.515625 
L 36.8125 7.515625 
L 36.8125 0 
L 27.59375 0 
Q 17.1875 0 13.234375 3.875 
Q 9.28125 7.765625 9.28125 18.015625 
L 9.28125 47.703125 
L 2.6875 47.703125 
L 2.6875 54.6875 
L 9.28125 54.6875 
L 9.28125 70.21875 
z
" id="DejaVuSans-74"/>
     <path d="M 9.421875 54.6875 
L 18.40625 54.6875 
L 18.40625 0 
L 9.421875 0 
z
M 9.421875 75.984375 
L 18.40625 75.984375 
L 18.40625 64.59375 
L 9.421875 64.59375 
z
" id="DejaVuSans-69"/>
     <path d="M 54.890625 33.015625 
L 54.890625 0 
L 45.90625 0 
L 45.90625 32.71875 
Q 45.90625 40.484375 42.875 44.328125 
Q 39.84375 48.1875 33.796875 48.1875 
Q 26.515625 48.1875 22.3125 43.546875 
Q 18.109375 38.921875 18.109375 30.90625 
L 18.109375 0 
L 9.078125 0 
L 9.078125 54.6875 
L 18.109375 54.6875 
L 18.109375 46.1875 
Q 21.34375 51.125 25.703125 53.5625 
Q 30.078125 56 35.796875 56 
Q 45.21875 56 50.046875 50.171875 
Q 54.890625 44.34375 54.890625 33.015625 
z
" id="DejaVuSans-6e"/>
     <path id="DejaVuSans-20"/>
     <path d="M 19.671875 64.796875 
L 19.671875 37.40625 
L 32.078125 37.40625 
Q 38.96875 37.40625 42.71875 40.96875 
Q 46.484375 44.53125 46.484375 51.125 
Q 46.484375 57.671875 42.71875 61.234375 
Q 38.96875 64.796875 32.078125 64.796875 
z
M 9.8125 72.90625 
L 32.078125 72.90625 
Q 44.34375 72.90625 50.609375 67.359375 
Q 56.890625 61.8125 56.890625 51.125 
Q 56.890625 40.328125 50.609375 34.8125 
Q 44.34375 29.296875 32.078125 29.296875 
L 19.671875 29.296875 
L 19.671875 0 
L 9.8125 0 
z
" id="DejaVuSans-50"/>
     <path d="M 34.28125 27.484375 
Q 23.390625 27.484375 19.1875 25 
Q 14.984375 22.515625 14.984375 16.5 
Q 14.984375 11.71875 18.140625 8.90625 
Q 21.296875 6.109375 26.703125 6.109375 
Q 34.1875 6.109375 38.703125 11.40625 
Q 43.21875 16.703125 43.21875 25.484375 
L 43.21875 27.484375 
z
M 52.203125 31.203125 
L 52.203125 0 
L 43.21875 0 
L 43.21875 8.296875 
Q 40.140625 3.328125 35.546875 0.953125 
Q 30.953125 -1.421875 24.3125 -1.421875 
Q 15.921875 -1.421875 10.953125 3.296875 
Q 6 8.015625 6 15.921875 
Q 6 25.140625 12.171875 29.828125 
Q 18.359375 34.515625 30.609375 34.515625 
L 43.21875 34.515625 
L 43.21875 35.40625 
Q 43.21875 41.609375 39.140625 45 
Q 35.0625 48.390625 27.6875 48.390625 
Q 23 48.390625 18.546875 47.265625 
Q 14.109375 46.140625 10.015625 43.890625 
L 10.015625 52.203125 
Q 14.9375 54.109375 19.578125 55.046875 
Q 24.21875 56 28.609375 56 
Q 40.484375 56 46.34375 49.84375 
Q 52.203125 43.703125 52.203125 31.203125 
z
" id="DejaVuSans-61"/>
     <path d="M 54.890625 33.015625 
L 54.890625 0 
L 45.90625 0 
L 45.90625 32.71875 
Q 45.90625 40.484375 42.875 44.328125 
Q 39.84375 48.1875 33.796875 48.1875 
Q 26.515625 48.1875 22.3125 43.546875 
Q 18.109375 38.921875 18.109375 30.90625 
L 18.109375 0 
L 9.078125 0 
L 9.078125 75.984375 
L 18.109375 75.984375 
L 18.109375 46.1875 
Q 21.34375 51.125 25.703125 53.5625 
Q 30.078125 56 35.796875 56 
Q 45.21875 56 50.046875 50.171875 
Q 54.890625 44.34375 54.890625 33.015625 
z
" id="DejaVuSans-68"/>
     <path d="M 9.8125 72.90625 
L 51.703125 72.90625 
L 51.703125 64.59375 
L 19.671875 64.59375 
L 19.671875 43.109375 
L 48.578125 43.109375 
L 48.578125 34.8125 
L 19.671875 34.8125 
L 19.671875 0 
L 9.8125 0 
z
" id="DejaVuSans-46"/>
     <path d="M 54.890625 54.6875 
L 35.109375 28.078125 
L 55.90625 0 
L 45.3125 0 
L 29.390625 21.484375 
L 13.484375 0 
L 2.875 0 
L 24.125 28.609375 
L 4.6875 54.6875 
L 15.28125 54.6875 
L 29.78125 35.203125 
L 44.28125 54.6875 
z
" id="DejaVuSans-78"/>
     <path d="M 56.203125 29.59375 
L 56.203125 25.203125 
L 14.890625 25.203125 
Q 15.484375 15.921875 20.484375 11.0625 
Q 25.484375 6.203125 34.421875 6.203125 
Q 39.59375 6.203125 44.453125 7.46875 
Q 49.3125 8.734375 54.109375 11.28125 
L 54.109375 2.78125 
Q 49.265625 0.734375 44.1875 -0.34375 
Q 39.109375 -1.421875 33.890625 -1.421875 
Q 20.796875 -1.421875 13.15625 6.1875 
Q 5.515625 13.8125 5.515625 26.8125 
Q 5.515625 40.234375 12.765625 48.109375 
Q 20.015625 56 32.328125 56 
Q 43.359375 56 49.78125 48.890625 
Q 56.203125 41.796875 56.203125 29.59375 
z
M 47.21875 32.234375 
Q 47.125 39.59375 43.09375 43.984375 
Q 39.0625 48.390625 32.421875 48.390625 
Q 24.90625 48.390625 20.390625 44.140625 
Q 15.875 39.890625 15.1875 32.171875 
z
" id="DejaVuSans-65"/>
     <path d="M 45.40625 46.390625 
L 45.40625 75.984375 
L 54.390625 75.984375 
L 54.390625 0 
L 45.40625 0 
L 45.40625 8.203125 
Q 42.578125 3.328125 38.25 0.953125 
Q 33.9375 -1.421875 27.875 -1.421875 
Q 17.96875 -1.421875 11.734375 6.484375 
Q 5.515625 14.40625 5.515625 27.296875 
Q 5.515625 40.1875 11.734375 48.09375 
Q 17.96875 56 27.875 56 
Q 33.9375 56 38.25 53.625 
Q 42.578125 51.265625 45.40625 46.390625 
z
M 14.796875 27.296875 
Q 14.796875 17.390625 18.875 11.75 
Q 22.953125 6.109375 30.078125 6.109375 
Q 37.203125 6.109375 41.296875 11.75 
Q 45.40625 17.390625 45.40625 27.296875 
Q 45.40625 37.203125 41.296875 42.84375 
Q 37.203125 48.484375 30.078125 48.484375 
Q 22.953125 48.484375 18.875 42.84375 
Q 14.796875 37.203125 14.796875 27.296875 
z
" id="DejaVuSans-64"/>
     <path d="M 41.109375 46.296875 
Q 39.59375 47.171875 37.8125 47.578125 
Q 36.03125 48 33.890625 48 
Q 26.265625 48 22.1875 43.046875 
Q 18.109375 38.09375 18.109375 28.8125 
L 18.109375 0 
L 9.078125 0 
L 9.078125 54.6875 
L 18.109375 54.6875 
L 18.109375 46.1875 
Q 20.953125 51.171875 25.484375 53.578125 
Q 30.03125 56 36.53125 56 
Q 37.453125 56 38.578125 55.875 
Q 39.703125 55.765625 41.0625 55.515625 
z
" id="DejaVuSans-72"/>
     <path d="M 52 44.1875 
Q 55.375 50.25 60.0625 53.125 
Q 64.75 56 71.09375 56 
Q 79.640625 56 84.28125 50.015625 
Q 88.921875 44.046875 88.921875 33.015625 
L 88.921875 0 
L 79.890625 0 
L 79.890625 32.71875 
Q 79.890625 40.578125 77.09375 44.375 
Q 74.3125 48.1875 68.609375 48.1875 
Q 61.625 48.1875 57.5625 43.546875 
Q 53.515625 38.921875 53.515625 30.90625 
L 53.515625 0 
L 44.484375 0 
L 44.484375 32.71875 
Q 44.484375 40.625 41.703125 44.40625 
Q 38.921875 48.1875 33.109375 48.1875 
Q 26.21875 48.1875 22.15625 43.53125 
Q 18.109375 38.875 18.109375 30.90625 
L 18.109375 0 
L 9.078125 0 
L 9.078125 54.6875 
L 18.109375 54.6875 
L 18.109375 46.1875 
Q 21.1875 51.21875 25.484375 53.609375 
Q 29.78125 56 35.6875 56 
Q 41.65625 56 45.828125 52.96875 
Q 50 49.953125 52 44.1875 
z
" id="DejaVuSans-6d"/>
     <path d="M 28.609375 0 
L 0.78125 72.90625 
L 11.078125 72.90625 
L 34.1875 11.53125 
L 57.328125 72.90625 
L 67.578125 72.90625 
L 39.796875 0 
z
" id="DejaVuSans-56"/>
     <path d="M 44.28125 53.078125 
L 44.28125 44.578125 
Q 40.484375 46.53125 36.375 47.5 
Q 32.28125 48.484375 27.875 48.484375 
Q 21.1875 48.484375 17.84375 46.4375 
Q 14.5 44.390625 14.5 40.28125 
Q 14.5 37.15625 16.890625 35.375 
Q 19.28125 33.59375 26.515625 31.984375 
L 29.59375 31.296875 
Q 39.15625 29.25 43.1875 25.515625 
Q 47.21875 21.78125 47.21875 15.09375 
Q 47.21875 7.46875 41.1875 3.015625 
Q 35.15625 -1.421875 24.609375 -1.421875 
Q 20.21875 -1.421875 15.453125 -0.5625 
Q 10.6875 0.296875 5.421875 2 
L 5.421875 11.28125 
Q 10.40625 8.6875 15.234375 7.390625 
Q 20.0625 6.109375 24.8125 6.109375 
Q 31.15625 6.109375 34.5625 8.28125 
Q 37.984375 10.453125 37.984375 14.40625 
Q 37.984375 18.0625 35.515625 20.015625 
Q 33.0625 21.96875 24.703125 23.78125 
L 21.578125 24.515625 
Q 13.234375 26.265625 9.515625 29.90625 
Q 5.8125 33.546875 5.8125 39.890625 
Q 5.8125 47.609375 11.28125 51.796875 
Q 16.75 56 26.8125 56 
Q 31.78125 56 36.171875 55.265625 
Q 40.578125 54.546875 44.28125 53.078125 
z
" id="DejaVuSans-73"/>
    </defs>
    <g transform="translate(88.6575 11.114646)scale(0.14 -0.14)">
     <use xlink:href="#DejaVuSans-53"/>
     <use x="63.476562" xlink:href="#DejaVuSans-6f"/>
     <use x="124.658203" xlink:href="#DejaVuSans-6c"/>
     <use x="152.441406" xlink:href="#DejaVuSans-75"/>
     <use x="215.820312" xlink:href="#DejaVuSans-74"/>
     <use x="255.029297" xlink:href="#DejaVuSans-69"/>
     <use x="282.8125" xlink:href="#DejaVuSans-6f"/>
     <use x="343.994141" xlink:href="#DejaVuSans-6e"/>
     <use x="407.373047" xlink:href="#DejaVuSans-20"/>
     <use x="439.160156" xlink:href="#DejaVuSans-50"/>
     <use x="499.400391" xlink:href="#DejaVuSans-61"/>
     <use x="560.679688" xlink:href="#DejaVuSans-74"/>
     <use x="599.888672" xlink:href="#DejaVuSans-68"/>
     <use x="663.267578" xlink:href="#DejaVuSans-20"/>
     <use x="695.054688" xlink:href="#DejaVuSans-61"/>
     <use x="756.333984" xlink:href="#DejaVuSans-74"/>
     <use x="795.542969" xlink:href="#DejaVuSans-20"/>
     <use x="827.330078" xlink:href="#DejaVuSans-46"/>
     <use x="884.740234" xlink:href="#DejaVuSans-69"/>
     <use x="912.523438" xlink:href="#DejaVuSans-78"/>
     <use x="971.65625" xlink:href="#DejaVuSans-65"/>
     <use x="1033.179688" xlink:href="#DejaVuSans-64"/>
     <use x="1096.65625" xlink:href="#DejaVuSans-20"/>
     <use x="1128.443359" xlink:href="#DejaVuSans-50"/>
     <use x="1188.683594" xlink:href="#DejaVuSans-61"/>
     <use x="1249.962891" xlink:href="#DejaVuSans-72"/>
     <use x="1291.076172" xlink:href="#DejaVuSans-61"/>
     <use x="1352.355469" xlink:href="#DejaVuSans-6d"/>
     <use x="1449.767578" xlink:href="#DejaVuSans-65"/>
     <use x="1511.291016" xlink:href="#DejaVuSans-74"/>
     <use x="1550.5" xlink:href="#DejaVuSans-65"/>
     <use x="1612.023438" xlink:href="#DejaVuSans-72"/>
     <use x="1653.136719" xlink:href="#DejaVuSans-20"/>
     <use x="1684.923828" xlink:href="#DejaVuSans-56"/>
     <use x="1753.222656" xlink:href="#DejaVuSans-61"/>
     <use x="1814.501953" xlink:href="#DejaVuSans-6c"/>
     <use x="1842.285156" xlink:href="#DejaVuSans-75"/>
     <use x="1905.664062" xlink:href="#DejaVuSans-65"/>
     <use x="1967.1875" xlink:href="#DejaVuSans-73"/>
    </g>
   </g>
   <g id="line2d_16">
    <path clip-path="url(#pe543d50108)" d="M 429.165354 134.299162 
L 389.333283 134.299269 
L 349.501213 134.298397 
L 309.669142 134.298445 
L 269.837071 134.298505 
L 230.005 134.298095 
L 190.172929 138.094092 
L 150.340858 149.39838 
L 110.508787 149.847058 
L 70.676717 158.823903 
L 30.844646 164.937488 
" style="fill:none;stroke:#c371d2;stroke-linecap:round;stroke-width:0.5;"/>
   </g>
   <g id="line2d_17">
    <path clip-path="url(#pe543d50108)" d="M 429.165354 134.299495 
L 389.333283 134.299332 
L 349.501213 134.298392 
L 309.669142 134.298384 
L 269.837071 134.298421 
L 230.005 134.298229 
L 190.172929 134.298228 
L 150.340858 134.298235 
L 110.508787 134.298635 
L 70.676717 134.299175 
L 30.844646 134.298306 
" style="fill:none;stroke:#ac8e18;stroke-linecap:round;stroke-width:0.5;"/>
   </g>
   <g id="line2d_18">
    <path clip-path="url(#pe543d50108)" d="M 429.165354 134.297081 
L 389.333283 134.298952 
L 349.501213 134.298367 
L 309.669142 134.298247 
L 269.837071 134.298285 
L 230.005 134.298336 
L 190.172929 134.298319 
L 150.340858 134.298278 
L 110.508787 134.297151 
L 70.676717 134.296287 
L 30.844646 134.2983 
" style="fill:none;stroke:#00aaae;stroke-linecap:round;stroke-width:0.5;"/>
   </g>
   <g id="line2d_19">
    <path clip-path="url(#pe543d50108)" d="M 429.165354 134.299096 
L 389.333283 134.299405 
L 349.501213 134.298364 
L 309.669142 134.298377 
L 269.837071 134.2984 
L 230.005 134.298183 
L 190.172929 134.298196 
L 150.340858 134.298204 
L 110.508787 134.298881 
L 70.676717 134.297946 
L 30.844646 134.298305 
" style="fill:none;stroke:#ed5e93;stroke-linecap:round;stroke-width:0.5;"/>
   </g>
   <g id="line2d_20">
    <path clip-path="url(#pe543d50108)" d="M 429.165354 134.298734 
L 389.333283 134.299408 
L 349.501213 134.298432 
L 309.669142 134.298339 
L 269.837071 134.298408 
L 230.005 134.29828 
L 190.172929 134.298242 
L 150.340858 134.298254 
L 110.508787 134.299021 
L 70.676717 134.298317 
L 30.844646 134.298307 
" style="fill:none;stroke:#c68225;stroke-linecap:round;stroke-width:0.5;"/>
   </g>
   <g id="line2d_21">
    <path clip-path="url(#pe543d50108)" d="M 429.165354 134.297252 
L 389.333283 134.298868 
L 349.501213 134.298379 
L 309.669142 134.298201 
L 269.837071 134.298239 
L 230.005 134.298438 
L 190.172929 128.697521 
L 150.340858 125.264328 
L 110.508787 122.455779 
L 70.676717 119.054728 
L 30.844646 109.482135 
" style="fill:none;stroke:#00a98d;stroke-linecap:round;stroke-width:0.5;"/>
   </g>
   <g id="line2d_22">
    <path clip-path="url(#pe543d50108)" d="M 429.165354 134.29841 
L 389.333283 134.299346 
L 349.501213 134.298395 
L 309.669142 134.298308 
L 269.837071 134.298361 
L 230.005 134.29832 
L 190.172929 134.298248 
L 150.340858 134.298279 
L 110.508787 134.29748 
L 70.676717 134.296718 
L 30.844646 146.004732 
" style="fill:none;stroke:#8e971e;stroke-linecap:round;stroke-width:0.5;"/>
   </g>
   <g id="line2d_23">
    <path clip-path="url(#pe543d50108)" d="M 429.165354 134.298931 
L 389.333283 134.299084 
L 349.501213 134.298427 
L 309.669142 134.298315 
L 269.837071 134.298374 
L 230.005 134.298329 
L 190.172929 134.298288 
L 150.340858 134.298377 
L 110.508787 134.299372 
L 70.676717 134.29797 
L 30.844646 134.298308 
" style="fill:none;stroke:#00a9cc;stroke-linecap:round;stroke-width:0.5;"/>
   </g>
   <g id="line2d_24">
    <path clip-path="url(#pe543d50108)" d="M 429.165354 134.29817 
L 389.333283 134.299307 
L 349.501213 134.29844 
L 309.669142 134.298346 
L 269.837071 134.298417 
L 230.005 134.298294 
L 190.172929 134.298242 
L 150.340858 134.298289 
L 110.508787 134.298295 
L 70.676717 134.29846 
L 30.844646 134.298311 
" style="fill:none;stroke:#9b7fe9;stroke-linecap:round;stroke-width:0.5;"/>
   </g>
   <g id="line2d_25">
    <path clip-path="url(#pe543d50108)" d="M 429.165354 134.298516 
L 389.333283 134.298992 
L 349.501213 134.298362 
L 309.669142 134.298294 
L 269.837071 134.298318 
L 230.005 134.298358 
L 190.172929 134.298318 
L 150.340858 134.29824 
L 110.508787 134.298208 
L 70.676717 134.298394 
L 30.844646 134.298306 
" style="fill:none;stroke:#618df6;stroke-linecap:round;stroke-width:0.5;"/>
   </g>
   <g id="line2d_26">
    <path clip-path="url(#pe543d50108)" d="M 429.165354 134.299011 
L 389.333283 134.299244 
L 349.501213 134.2984 
L 309.669142 134.298317 
L 269.837071 134.29835 
L 230.005 134.298338 
L 190.172929 134.298303 
L 150.340858 134.298303 
L 110.508787 134.297625 
L 70.676717 134.299781 
L 30.844646 134.29831 
" style="fill:none;stroke:#f06073;stroke-linecap:round;stroke-width:0.5;"/>
   </g>
   <g id="line2d_27">
    <path clip-path="url(#pe543d50108)" d="M 429.165354 134.298871 
L 389.333283 134.299212 
L 349.501213 134.298385 
L 309.669142 134.29832 
L 269.837071 134.298356 
L 230.005 134.29824 
L 190.172929 134.298299 
L 150.340858 134.298286 
L 110.508787 134.297395 
L 70.676717 134.296111 
L 30.844646 145.111792 
" style="fill:none;stroke:#dd65b6;stroke-linecap:round;stroke-width:0.5;"/>
   </g>
   <g id="line2d_28">
    <path clip-path="url(#pe543d50108)" d="M 429.165354 134.297403 
L 389.333283 134.299057 
L 349.501213 134.298387 
L 309.669142 134.298229 
L 269.837071 134.298271 
L 230.005 134.298482 
L 190.172929 133.434736 
L 150.340858 122.043549 
L 110.508787 113.076318 
L 70.676717 122.026003 
L 30.844646 134.298309 
" style="fill:none;stroke:#6c9f33;stroke-linecap:round;stroke-width:0.5;"/>
   </g>
   <g id="line2d_29">
    <path clip-path="url(#pe543d50108)" d="M 429.165354 134.298552 
L 389.333283 134.299313 
L 349.501213 134.298451 
L 309.669142 134.298345 
L 269.837071 134.29842 
L 230.005 134.29823 
L 190.172929 134.298235 
L 150.340858 134.298288 
L 110.508787 134.299519 
L 70.676717 134.298512 
L 30.844646 134.29831 
" style="fill:none;stroke:#718c6a;stroke-linecap:round;stroke-width:0.5;"/>
   </g>
   <g id="line2d_30">
    <path clip-path="url(#pe543d50108)" d="M 429.165354 134.299014 
L 389.333283 134.299016 
L 349.501213 134.29836 
L 309.669142 134.298362 
L 269.837071 134.298395 
L 230.005 134.298183 
L 190.172929 134.298175 
L 150.340858 134.29804 
L 110.508787 144.929443 
L 70.676717 170.655904 
L 30.844646 178.957706 
" style="fill:none;stroke:#47998c;stroke-linecap:round;stroke-width:0.5;"/>
   </g>
   <g id="line2d_31">
    <path clip-path="url(#pe543d50108)" d="M 429.165354 134.298556 
L 389.333283 134.299151 
L 349.501213 134.298374 
L 309.669142 134.298287 
L 269.837071 134.298326 
L 230.005 134.298366 
L 190.172929 134.298304 
L 150.340858 134.298346 
L 110.508787 134.29784 
L 70.676717 134.297232 
L 30.844646 134.298299 
" style="fill:none;stroke:#1fa68d;stroke-linecap:round;stroke-width:0.5;"/>
   </g>
   <g id="line2d_32">
    <path clip-path="url(#pe543d50108)" d="M 429.165354 134.298293 
L 389.333283 134.299193 
L 349.501213 134.298437 
L 309.669142 134.298284 
L 269.837071 134.298343 
L 230.005 134.298304 
L 190.172929 134.298246 
L 150.340858 134.298284 
L 110.508787 134.298941 
L 70.676717 134.300178 
L 30.844646 134.298318 
" style="fill:none;stroke:#af78dd;stroke-linecap:round;stroke-width:0.5;"/>
   </g>
   <g id="line2d_33">
    <path clip-path="url(#pe543d50108)" d="M 429.165354 134.297165 
L 389.333283 134.299575 
L 349.501213 134.298454 
L 309.669142 134.298241 
L 269.837071 134.298331 
L 230.005 130.63185 
L 190.172929 121.714846 
L 150.340858 113.620402 
L 110.508787 103.037154 
L 70.676717 93.299314 
L 30.844646 123.330727 
" style="fill:none;stroke:#878d87;stroke-linecap:round;stroke-width:0.5;"/>
   </g>
   <g id="line2d_34">
    <path clip-path="url(#pe543d50108)" d="M 429.165354 134.299825 
L 389.333283 134.299661 
L 349.501213 137.943687 
L 309.669142 150.886484 
L 269.837071 163.903118 
L 230.005 183.158419 
L 190.172929 203.727032 
L 150.340858 223.726138 
L 110.508787 242.09812 
L 70.676717 258.685354 
L 30.844646 230.085472 
" style="fill:none;stroke:#47a166;stroke-linecap:round;stroke-width:0.5;"/>
   </g>
   <g id="line2d_35">
    <path clip-path="url(#pe543d50108)" d="M 429.165354 134.298281 
L 389.333283 134.298809 
L 349.501213 134.298351 
L 309.669142 134.298273 
L 269.837071 134.298281 
L 230.005 134.298331 
L 190.172929 134.298337 
L 150.340858 134.298381 
L 110.508787 134.298508 
L 70.676717 134.299563 
L 30.844646 134.29831 
" style="fill:none;stroke:#7783af;stroke-linecap:round;stroke-width:0.5;"/>
   </g>
   <g id="line2d_36">
    <path clip-path="url(#pe543d50108)" d="M 429.165354 134.298578 
L 389.333283 134.29903 
L 349.501213 134.29843 
L 309.669142 134.298283 
L 269.837071 134.298337 
L 230.005 134.298325 
L 190.172929 134.298292 
L 150.340858 134.298285 
L 110.508787 134.296335 
L 70.676717 134.296929 
L 30.844646 134.298308 
" style="fill:none;stroke:#b18187;stroke-linecap:round;stroke-width:0.5;"/>
   </g>
   <g id="line2d_37">
    <path clip-path="url(#pe543d50108)" d="M 429.165354 134.298589 
L 389.333283 134.298931 
L 349.501213 134.298418 
L 309.669142 134.298334 
L 269.837071 134.298399 
L 230.005 134.298241 
L 190.172929 134.298168 
L 150.340858 134.298058 
L 110.508787 134.29642 
L 70.676717 156.645397 
L 30.844646 197.991621 
" style="fill:none;stroke:#309bc2;stroke-linecap:round;stroke-width:0.5;"/>
   </g>
   <g id="line2d_38">
    <path clip-path="url(#pe543d50108)" d="M 429.165354 134.297418 
L 389.333283 134.299128 
L 349.501213 134.298414 
L 309.669142 134.298295 
L 269.837071 134.298362 
L 230.005 134.298348 
L 190.172929 134.298339 
L 150.340858 134.29832 
L 110.508787 134.300636 
L 70.676717 122.017825 
L 30.844646 91.996728 
" style="fill:none;stroke:#788590;stroke-linecap:round;stroke-width:0.5;"/>
   </g>
   <g id="line2d_39">
    <path clip-path="url(#pe543d50108)" d="M 429.165354 134.29833 
L 389.333283 134.299027 
L 349.501213 134.298382 
L 309.669142 134.298355 
L 269.837071 134.298404 
L 230.005 134.298277 
L 190.172929 134.298249 
L 150.340858 134.298297 
L 110.508787 134.299088 
L 70.676717 134.298389 
L 30.844646 134.298314 
" style="fill:none;stroke:#e561a4;stroke-linecap:round;stroke-width:0.5;"/>
   </g>
   <g id="line2d_40">
    <path clip-path="url(#pe543d50108)" d="M 429.165354 134.298337 
L 389.333283 134.299259 
L 349.501213 134.298394 
L 309.669142 134.298297 
L 269.837071 134.298343 
L 230.005 134.298383 
L 190.172929 134.298402 
L 150.340858 134.298462 
L 110.508787 134.300226 
L 70.676717 134.300321 
L 30.844646 57.637924 
" style="fill:none;stroke:#99902c;stroke-linecap:round;stroke-width:0.5;"/>
   </g>
   <g id="line2d_41">
    <path clip-path="url(#pe543d50108)" d="M 429.165354 134.297998 
L 389.333283 134.299274 
L 349.501213 134.298459 
L 309.669142 134.298283 
L 269.837071 134.298367 
L 230.005 134.298353 
L 190.172929 134.298293 
L 150.340858 134.298363 
L 110.508787 134.29894 
L 70.676717 134.300415 
L 30.844646 133.410877 
" style="fill:none;stroke:#399b7b;stroke-linecap:round;stroke-width:0.5;"/>
   </g>
   <g id="line2d_42">
    <path clip-path="url(#pe543d50108)" d="M 429.165354 134.298098 
L 389.333283 134.298972 
L 349.501213 134.298411 
L 309.669142 134.298355 
L 269.837071 134.29842 
L 230.005 134.298243 
L 190.172929 134.298158 
L 150.340858 134.298127 
L 110.508787 134.296961 
L 70.676717 134.297417 
L 30.844646 134.298304 
" style="fill:none;stroke:#da68a3;stroke-linecap:round;stroke-width:0.5;"/>
   </g>
   <g id="line2d_43">
    <path clip-path="url(#pe543d50108)" d="M 429.165354 134.297586 
L 389.333283 134.299042 
L 349.501213 134.298418 
L 309.669142 134.298204 
L 269.837071 134.298254 
L 230.005 134.298499 
L 190.172929 132.910731 
L 150.340858 111.850653 
L 110.508787 86.316206 
L 70.676717 68.529742 
L 30.844646 66.111991 
" style="fill:none;stroke:#009afa;stroke-linecap:round;stroke-width:0.5;"/>
   </g>
   <g id="line2d_44">
    <path clip-path="url(#pe543d50108)" d="M 429.165354 134.298301 
L 389.333283 134.299242 
L 349.501213 134.298409 
L 309.669142 134.29827 
L 269.837071 134.29832 
L 230.005 134.298345 
L 190.172929 134.298325 
L 150.340858 134.298352 
L 110.508787 134.298621 
L 70.676717 134.29761 
L 30.844646 134.298303 
" style="fill:none;stroke:#e36f47;stroke-linecap:round;stroke-width:0.5;"/>
   </g>
   <g id="line2d_45">
    <path clip-path="url(#pe543d50108)" d="M 429.165354 134.297904 
L 389.333283 134.299289 
L 349.501213 134.29846 
L 309.669142 134.298313 
L 269.837071 134.298404 
L 230.005 134.298299 
L 190.172929 134.298262 
L 150.340858 134.298384 
L 110.508787 134.297723 
L 70.676717 134.297634 
L 30.844646 134.298305 
" style="fill:none;stroke:#3ea44e;stroke-linecap:round;stroke-width:0.5;"/>
   </g>
   <g id="line2d_46">
    <path clip-path="url(#pe543d50108)" d="M 429.165354 134.298033 
L 389.333283 134.299342 
L 349.501213 134.298431 
L 309.669142 134.298289 
L 269.837071 134.298358 
L 230.005 134.298406 
L 190.172929 134.298376 
L 150.340858 134.298489 
L 110.508787 134.300462 
L 70.676717 95.951086 
L 30.844646 41.984855 
" style="fill:none;stroke:#c371d2;stroke-linecap:round;stroke-width:0.5;"/>
   </g>
   <g id="line2d_47">
    <path clip-path="url(#pe543d50108)" d="M 429.165354 134.298375 
L 389.333283 134.298962 
L 349.501213 134.29835 
L 309.669142 134.298326 
L 269.837071 134.298349 
L 230.005 134.298227 
L 190.172929 134.298207 
L 150.340858 134.298192 
L 110.508787 134.296946 
L 70.676717 134.296227 
L 30.844646 135.513408 
" style="fill:none;stroke:#ac8e18;stroke-linecap:round;stroke-width:0.5;"/>
   </g>
   <g id="line2d_48">
    <path clip-path="url(#pe543d50108)" d="M 429.165354 134.298258 
L 389.333283 134.298954 
L 349.501213 134.298398 
L 309.669142 134.298279 
L 269.837071 134.298316 
L 230.005 134.298333 
L 190.172929 134.29835 
L 150.340858 134.298254 
L 110.508787 134.298135 
L 70.676717 134.299253 
L 30.844646 134.298313 
" style="fill:none;stroke:#00aaae;stroke-linecap:round;stroke-width:0.5;"/>
   </g>
   <g id="line2d_49">
    <path clip-path="url(#pe543d50108)" d="M 429.165354 134.297907 
L 389.333283 134.299141 
L 349.501213 134.29841 
L 309.669142 134.298268 
L 269.837071 134.298324 
L 230.005 134.298342 
L 190.172929 134.298413 
L 150.340858 134.298558 
L 110.508787 134.300809 
L 70.676717 109.936531 
L 30.844646 81.921832 
" style="fill:none;stroke:#ed5e93;stroke-linecap:round;stroke-width:0.5;"/>
   </g>
   <g id="line2d_50">
    <path clip-path="url(#pe543d50108)" d="M 429.165354 134.297329 
L 389.333283 134.298877 
L 349.501213 134.298413 
L 309.669142 134.298221 
L 269.837071 134.298269 
L 230.005 134.298493 
L 190.172929 129.2696 
L 150.340858 124.477234 
L 110.508787 114.384489 
L 70.676717 94.925077 
L 30.844646 60.322441 
" style="fill:none;stroke:#c68225;stroke-linecap:round;stroke-width:0.5;"/>
   </g>
   <g id="line2d_51">
    <path clip-path="url(#pe543d50108)" d="M 429.165354 134.2974 
L 389.333283 134.298976 
L 349.501213 134.298412 
L 309.669142 134.298276 
L 269.837071 134.298344 
L 230.005 134.298316 
L 190.172929 134.298283 
L 150.340858 134.298243 
L 110.508787 134.297997 
L 70.676717 134.298814 
L 30.844646 82.063705 
" style="fill:none;stroke:#00a98d;stroke-linecap:round;stroke-width:0.5;"/>
   </g>
   <g id="line2d_52">
    <path clip-path="url(#pe543d50108)" d="M 429.165354 134.297936 
L 389.333283 134.299103 
L 349.501213 134.298382 
L 309.669142 134.298255 
L 269.837071 134.298294 
L 230.005 134.298387 
L 190.172929 134.298414 
L 150.340858 134.298439 
L 110.508787 134.299705 
L 70.676717 104.708993 
L 30.844646 52.244706 
" style="fill:none;stroke:#8e971e;stroke-linecap:round;stroke-width:0.5;"/>
   </g>
   <g id="line2d_53">
    <path clip-path="url(#pe543d50108)" d="M 429.165354 134.297043 
L 389.333283 134.299212 
L 349.501213 134.298399 
L 309.669142 134.298327 
L 269.837071 134.298393 
L 230.005 134.298335 
L 190.172929 134.298292 
L 150.340858 134.298415 
L 110.508787 134.299666 
L 70.676717 134.298093 
L 30.844646 134.298313 
" style="fill:none;stroke:#00a9cc;stroke-linecap:round;stroke-width:0.5;"/>
   </g>
   <g id="line2d_54">
    <path clip-path="url(#pe543d50108)" d="M 429.165354 134.298237 
L 389.333283 134.299231 
L 349.501213 134.2984 
L 309.669142 134.298294 
L 269.837071 134.298339 
L 230.005 134.29831 
L 190.172929 134.298327 
L 150.340858 134.298427 
L 110.508787 134.299913 
L 70.676717 134.299561 
L 30.844646 128.777808 
" style="fill:none;stroke:#9b7fe9;stroke-linecap:round;stroke-width:0.5;"/>
   </g>
   <g id="line2d_55">
    <path clip-path="url(#pe543d50108)" d="M 429.165354 134.296694 
L 389.333283 134.298831 
L 349.501213 128.550338 
L 309.669142 103.495714 
L 269.837071 78.39445 
L 230.005 62.877156 
L 190.172929 51.532944 
L 150.340858 40.519929 
L 110.508787 31.123095 
L 70.676717 29.412605 
L 30.844646 17.114646 
" style="fill:none;stroke:#618df6;stroke-linecap:round;stroke-width:0.5;"/>
   </g>
   <g id="line2d_56">
    <path clip-path="url(#pe543d50108)" d="M 429.165354 134.297306 
L 389.333283 134.298263 
L 349.501213 134.298312 
L 309.669142 134.298263 
L 269.837071 134.298268 
L 230.005 134.298306 
L 190.172929 134.298301 
L 150.340858 134.298276 
L 110.508787 134.297021 
L 70.676717 134.298218 
L 30.844646 134.298311 
" style="fill:none;stroke:#f06073;stroke-linecap:round;stroke-width:0.5;"/>
   </g>
   <g id="line2d_57">
    <path clip-path="url(#pe543d50108)" d="M 429.165354 134.298191 
L 389.333283 134.29906 
L 349.501213 134.298431 
L 309.669142 134.298286 
L 269.837071 134.298357 
L 230.005 134.298385 
L 190.172929 134.298395 
L 150.340858 134.298456 
L 110.508787 134.300454 
L 70.676717 120.981427 
L 30.844646 107.944849 
" style="fill:none;stroke:#dd65b6;stroke-linecap:round;stroke-width:0.5;"/>
   </g>
   <g id="line2d_58">
    <path clip-path="url(#pe543d50108)" d="M 429.165354 134.297085 
L 389.333283 134.298933 
L 349.501213 134.298401 
L 309.669142 134.298211 
L 269.837071 134.298261 
L 230.005 119.402475 
L 190.172929 105.742382 
L 150.340858 102.600205 
L 110.508787 103.032599 
L 70.676717 94.054275 
L 30.844646 59.231904 
" style="fill:none;stroke:#6c9f33;stroke-linecap:round;stroke-width:0.5;"/>
   </g>
   <g id="line2d_59">
    <path clip-path="url(#pe543d50108)" d="M 429.165354 134.297082 
L 389.333283 134.299024 
L 349.501213 134.29841 
L 309.669142 134.298225 
L 269.837071 134.298282 
L 230.005 134.240105 
L 190.172929 130.642441 
L 150.340858 120.243218 
L 110.508787 107.150263 
L 70.676717 101.26447 
L 30.844646 107.717552 
" style="fill:none;stroke:#718c6a;stroke-linecap:round;stroke-width:0.5;"/>
   </g>
   <g id="line2d_60">
    <path clip-path="url(#pe543d50108)" d="M 429.165354 134.298014 
L 389.333283 134.298859 
L 349.501213 134.298416 
L 309.669142 134.298234 
L 269.837071 134.298286 
L 230.005 134.298345 
L 190.172929 134.298301 
L 150.340858 134.298339 
L 110.508787 134.299102 
L 70.676717 134.299977 
L 30.844646 103.3718 
" style="fill:none;stroke:#47998c;stroke-linecap:round;stroke-width:0.5;"/>
   </g>
   <g id="line2d_61">
    <path clip-path="url(#pe543d50108)" d="M 429.165354 134.297477 
L 389.333283 134.299223 
L 349.501213 134.298454 
L 309.669142 134.298262 
L 269.837071 134.298353 
L 230.005 134.29842 
L 190.172929 134.298434 
L 150.340858 121.508215 
L 110.508787 97.264589 
L 70.676717 85.809928 
L 30.844646 73.31679 
" style="fill:none;stroke:#1fa68d;stroke-linecap:round;stroke-width:0.5;"/>
   </g>
   <g id="line2d_62">
    <path clip-path="url(#pe543d50108)" d="M 429.165354 134.29907 
L 389.333283 134.299298 
L 349.501213 134.298401 
L 309.669142 134.298369 
L 269.837071 134.298421 
L 230.005 134.298218 
L 190.172929 134.298194 
L 150.340858 134.298205 
L 110.508787 134.298295 
L 70.676717 134.297919 
L 30.844646 134.29831 
" style="fill:none;stroke:#af78dd;stroke-linecap:round;stroke-width:0.5;"/>
   </g>
   <g id="line2d_63">
    <path clip-path="url(#pe543d50108)" d="M 429.165354 134.298032 
L 389.333283 134.299187 
L 349.501213 134.298399 
L 309.669142 134.298276 
L 269.837071 134.298323 
L 230.005 134.29835 
L 190.172929 134.298224 
L 150.340858 134.298182 
L 110.508787 134.297667 
L 70.676717 134.29899 
L 30.844646 134.2983 
" style="fill:none;stroke:#878d87;stroke-linecap:round;stroke-width:0.5;"/>
   </g>
   <g id="line2d_64">
    <path clip-path="url(#pe543d50108)" d="M 429.165354 134.298498 
L 389.333283 134.29892 
L 349.501213 134.298395 
L 309.669142 134.298323 
L 269.837071 134.29836 
L 230.005 134.29834 
L 190.172929 134.298294 
L 150.340858 134.298307 
L 110.508787 134.29803 
L 70.676717 134.297171 
L 30.844646 139.852983 
" style="fill:none;stroke:#47a166;stroke-linecap:round;stroke-width:0.5;"/>
   </g>
   <g id="line2d_65">
    <path clip-path="url(#pe543d50108)" d="M 429.165354 134.297542 
L 389.333283 134.299152 
L 349.501213 134.2984 
L 309.669142 134.298273 
L 269.837071 134.298332 
L 230.005 134.298373 
L 190.172929 134.298327 
L 150.340858 134.298357 
L 110.508787 134.299533 
L 70.676717 134.299581 
L 30.844646 134.298308 
" style="fill:none;stroke:#7783af;stroke-linecap:round;stroke-width:0.5;"/>
   </g>
   <g id="line2d_66">
    <path clip-path="url(#pe543d50108)" d="M 429.165354 134.297873 
L 389.333283 134.299291 
L 349.501213 134.298443 
L 309.669142 134.298273 
L 269.837071 134.298341 
L 230.005 134.298379 
L 190.172929 134.298313 
L 150.340858 134.298367 
L 110.508787 134.297836 
L 70.676717 134.297576 
L 30.844646 134.298308 
" style="fill:none;stroke:#b18187;stroke-linecap:round;stroke-width:0.5;"/>
   </g>
   <g id="line2d_67">
    <path clip-path="url(#pe543d50108)" d="M 429.165354 134.297505 
L 389.333283 134.29906 
L 349.501213 134.298424 
L 309.669142 134.298271 
L 269.837071 134.298342 
L 230.005 134.298384 
L 190.172929 134.298355 
L 150.340858 134.298423 
L 110.508787 134.299114 
L 70.676717 134.298793 
L 30.844646 133.763479 
" style="fill:none;stroke:#309bc2;stroke-linecap:round;stroke-width:0.5;"/>
   </g>
   <g id="line2d_68">
    <path clip-path="url(#pe543d50108)" d="M 429.165354 134.29763 
L 389.333283 134.298889 
L 349.501213 134.298415 
L 309.669142 134.298251 
L 269.837071 134.29831 
L 230.005 134.298378 
L 190.172929 134.298403 
L 150.340858 134.29843 
L 110.508787 134.298902 
L 70.676717 134.296258 
L 30.844646 134.298312 
" style="fill:none;stroke:#788590;stroke-linecap:round;stroke-width:0.5;"/>
   </g>
   <g id="line2d_69">
    <path clip-path="url(#pe543d50108)" d="M 429.165354 134.299028 
L 389.333283 134.299638 
L 349.501213 134.298474 
L 309.669142 134.298395 
L 269.837071 134.298499 
L 230.005 134.298196 
L 190.172929 134.298176 
L 150.340858 134.29823 
L 110.508787 134.299357 
L 70.676717 134.298705 
L 30.844646 134.298302 
" style="fill:none;stroke:#e561a4;stroke-linecap:round;stroke-width:0.5;"/>
   </g>
   <g id="line2d_70">
    <path clip-path="url(#pe543d50108)" d="M 429.165354 134.298584 
L 389.333283 134.299389 
L 349.501213 134.298446 
L 309.669142 134.298326 
L 269.837071 134.298394 
L 230.005 134.298319 
L 190.172929 134.298284 
L 150.340858 134.298253 
L 110.508787 134.298509 
L 70.676717 134.301495 
L 30.844646 104.376455 
" style="fill:none;stroke:#99902c;stroke-linecap:round;stroke-width:0.5;"/>
   </g>
   <g id="line2d_71">
    <path clip-path="url(#pe543d50108)" d="M 429.165354 134.296484 
L 389.333283 132.764937 
L 349.501213 118.344657 
L 309.669142 107.08366 
L 269.837071 95.187668 
L 230.005 94.982424 
L 190.172929 98.320809 
L 150.340858 94.185394 
L 110.508787 81.343308 
L 70.676717 61.181276 
L 30.844646 52.556761 
" style="fill:none;stroke:#399b7b;stroke-linecap:round;stroke-width:0.5;"/>
   </g>
   <g id="line2d_72">
    <path clip-path="url(#pe543d50108)" d="M 429.165354 134.298912 
L 389.333283 134.299208 
L 349.501213 134.298414 
L 309.669142 134.298363 
L 269.837071 134.298416 
L 230.005 134.298271 
L 190.172929 134.298229 
L 150.340858 134.298165 
L 110.508787 134.297022 
L 70.676717 134.297871 
L 30.844646 156.484805 
" style="fill:none;stroke:#da68a3;stroke-linecap:round;stroke-width:0.5;"/>
   </g>
   <g id="line2d_73">
    <path clip-path="url(#pe543d50108)" d="M 429.165354 134.297955 
L 389.333283 134.298925 
L 349.501213 134.298406 
L 309.669142 134.29827 
L 269.837071 134.298327 
L 230.005 134.29832 
L 190.172929 134.298304 
L 150.340858 134.298402 
L 110.508787 134.298323 
L 70.676717 134.297192 
L 30.844646 134.298299 
" style="fill:none;stroke:#009afa;stroke-linecap:round;stroke-width:0.5;"/>
   </g>
   <g id="line2d_74">
    <path clip-path="url(#pe543d50108)" d="M 429.165354 134.298793 
L 389.333283 134.299407 
L 349.501213 134.29843 
L 309.669142 134.298321 
L 269.837071 134.298382 
L 230.005 134.298274 
L 190.172929 134.298283 
L 150.340858 134.298286 
L 110.508787 134.299014 
L 70.676717 134.298068 
L 30.844646 134.298311 
" style="fill:none;stroke:#e36f47;stroke-linecap:round;stroke-width:0.5;"/>
   </g>
   <g id="line2d_75">
    <path clip-path="url(#pe543d50108)" d="M 429.165354 134.297731 
L 389.333283 134.29902 
L 349.501213 134.298402 
L 309.669142 134.298255 
L 269.837071 134.298304 
L 230.005 134.298384 
L 190.172929 134.298356 
L 150.340858 134.298363 
L 110.508787 134.297269 
L 70.676717 134.295752 
L 30.844646 134.724227 
" style="fill:none;stroke:#3ea44e;stroke-linecap:round;stroke-width:0.5;"/>
   </g>
   <g id="line2d_76">
    <path clip-path="url(#pe543d50108)" d="M 429.165354 134.297153 
L 389.333283 134.298872 
L 349.501213 134.298361 
L 309.669142 134.298169 
L 269.837071 134.298187 
L 230.005 106.707147 
L 190.172929 79.445098 
L 150.340858 64.803639 
L 110.508787 49.80767 
L 70.676717 33.497937 
L 30.844646 46.804091 
" style="fill:none;stroke:#c371d2;stroke-linecap:round;stroke-width:0.5;"/>
   </g>
   <g id="line2d_77">
    <path clip-path="url(#pe543d50108)" d="M 429.165354 134.29867 
L 389.333283 134.299278 
L 349.501213 134.29843 
L 309.669142 134.298384 
L 269.837071 134.298456 
L 230.005 134.298157 
L 190.172929 134.298101 
L 150.340858 134.298015 
L 110.508787 138.565162 
L 70.676717 141.498098 
L 30.844646 182.914994 
" style="fill:none;stroke:#ac8e18;stroke-linecap:round;stroke-width:0.5;"/>
   </g>
   <g id="line2d_78">
    <path clip-path="url(#pe543d50108)" d="M 429.165354 134.298372 
L 389.333283 134.298904 
L 349.501213 134.298391 
L 309.669142 134.29838 
L 269.837071 134.298439 
L 230.005 134.298208 
L 190.172929 134.2982 
L 150.340858 134.298236 
L 110.508787 134.296989 
L 70.676717 134.298355 
L 30.844646 134.298308 
" style="fill:none;stroke:#00aaae;stroke-linecap:round;stroke-width:0.5;"/>
   </g>
   <g id="line2d_79">
    <path clip-path="url(#pe543d50108)" d="M 429.165354 134.297913 
L 389.333283 134.299314 
L 349.501213 134.298435 
L 309.669142 134.298293 
L 269.837071 134.298365 
L 230.005 134.298327 
L 190.172929 134.29826 
L 150.340858 134.298252 
L 110.508787 134.298484 
L 70.676717 134.297585 
L 30.844646 134.298316 
" style="fill:none;stroke:#ed5e93;stroke-linecap:round;stroke-width:0.5;"/>
   </g>
   <g id="line2d_80">
    <path clip-path="url(#pe543d50108)" d="M 429.165354 134.299072 
L 389.333283 134.299547 
L 349.501213 134.298487 
L 309.669142 134.298426 
L 269.837071 134.298534 
L 230.005 134.298143 
L 190.172929 134.298205 
L 150.340858 134.298165 
L 110.508787 134.298124 
L 70.676717 134.299028 
L 30.844646 134.298311 
" style="fill:none;stroke:#c68225;stroke-linecap:round;stroke-width:0.5;"/>
   </g>
   <g id="line2d_81">
    <path clip-path="url(#pe543d50108)" d="M 429.165354 134.297592 
L 389.333283 134.299069 
L 349.501213 134.298458 
L 309.669142 134.298249 
L 269.837071 134.298331 
L 230.005 134.298391 
L 190.172929 134.298397 
L 150.340858 134.298357 
L 110.508787 134.298379 
L 70.676717 134.298419 
L 30.844646 134.298314 
" style="fill:none;stroke:#00a98d;stroke-linecap:round;stroke-width:0.5;"/>
   </g>
   <g id="line2d_82">
    <path clip-path="url(#pe543d50108)" d="M 429.165354 134.298553 
L 389.333283 134.2992 
L 349.501213 134.298406 
L 309.669142 134.298323 
L 269.837071 134.298382 
L 230.005 134.298247 
L 190.172929 134.298201 
L 150.340858 134.298174 
L 110.508787 134.297373 
L 70.676717 134.299029 
L 30.844646 134.298301 
" style="fill:none;stroke:#8e971e;stroke-linecap:round;stroke-width:0.5;"/>
   </g>
   <g id="line2d_83">
    <path clip-path="url(#pe543d50108)" d="M 429.165354 134.298044 
L 389.333283 134.299787 
L 349.501213 134.298455 
L 309.669142 134.298342 
L 269.837071 134.298429 
L 230.005 134.298255 
L 190.172929 134.298234 
L 150.340858 134.298226 
L 110.508787 134.298092 
L 70.676717 134.299161 
L 30.844646 134.298298 
" style="fill:none;stroke:#00a9cc;stroke-linecap:round;stroke-width:0.5;"/>
   </g>
   <g id="line2d_84">
    <path clip-path="url(#pe543d50108)" d="M 429.165354 134.298533 
L 389.333283 134.299373 
L 349.501213 134.298402 
L 309.669142 134.298358 
L 269.837071 134.298425 
L 230.005 134.298284 
L 190.172929 134.298282 
L 150.340858 134.298241 
L 110.508787 134.298131 
L 70.676717 134.296605 
L 30.844646 134.298311 
" style="fill:none;stroke:#9b7fe9;stroke-linecap:round;stroke-width:0.5;"/>
   </g>
   <g id="line2d_85">
    <path clip-path="url(#pe543d50108)" d="M 429.165354 134.298364 
L 389.333283 134.299302 
L 349.501213 134.298456 
L 309.669142 134.298302 
L 269.837071 134.298385 
L 230.005 134.298367 
L 190.172929 134.298375 
L 150.340858 134.298462 
L 110.508787 134.301412 
L 70.676717 134.298113 
L 30.844646 118.313504 
" style="fill:none;stroke:#618df6;stroke-linecap:round;stroke-width:0.5;"/>
   </g>
   <g id="line2d_86">
    <path clip-path="url(#pe543d50108)" d="M 429.165354 134.298412 
L 389.333283 134.299264 
L 349.501213 134.298447 
L 309.669142 134.298295 
L 269.837071 134.298362 
L 230.005 134.298273 
L 190.172929 134.298234 
L 150.340858 134.298191 
L 110.508787 134.297195 
L 70.676717 134.298176 
L 30.844646 134.29831 
" style="fill:none;stroke:#f06073;stroke-linecap:round;stroke-width:0.5;"/>
   </g>
   <g id="line2d_87">
    <path clip-path="url(#pe543d50108)" d="M 429.165354 134.29823 
L 389.333283 134.298286 
L 349.501213 134.298332 
L 309.669142 134.298278 
L 269.837071 134.298289 
L 230.005 134.298346 
L 190.172929 134.298323 
L 150.340858 134.298415 
L 110.508787 134.299303 
L 70.676717 134.299438 
L 30.844646 116.541603 
" style="fill:none;stroke:#dd65b6;stroke-linecap:round;stroke-width:0.5;"/>
   </g>
   <g id="line2d_88">
    <path clip-path="url(#pe543d50108)" d="M 429.165354 134.298792 
L 389.333283 134.299065 
L 349.501213 134.298409 
L 309.669142 134.298295 
L 269.837071 134.298342 
L 230.005 134.298372 
L 190.172929 134.298292 
L 150.340858 134.298341 
L 110.508787 134.300113 
L 70.676717 134.297192 
L 30.844646 134.298304 
" style="fill:none;stroke:#6c9f33;stroke-linecap:round;stroke-width:0.5;"/>
   </g>
   <g id="line2d_89">
    <path clip-path="url(#pe543d50108)" d="M 429.165354 134.299264 
L 389.333283 134.298895 
L 349.501213 134.298372 
L 309.669142 134.298401 
L 269.837071 134.298433 
L 230.005 134.298175 
L 190.172929 134.298131 
L 150.340858 151.65057 
L 110.508787 176.590862 
L 70.676717 208.261125 
L 30.844646 219.52809 
" style="fill:none;stroke:#718c6a;stroke-linecap:round;stroke-width:0.5;"/>
   </g>
   <g id="line2d_90">
    <path clip-path="url(#pe543d50108)" d="M 429.165354 134.298557 
L 389.333283 134.298933 
L 349.501213 134.298413 
L 309.669142 134.298358 
L 269.837071 134.298422 
L 230.005 134.298248 
L 190.172929 134.298136 
L 150.340858 134.298217 
L 110.508787 134.297324 
L 70.676717 134.295956 
L 30.844646 175.056094 
" style="fill:none;stroke:#47998c;stroke-linecap:round;stroke-width:0.5;"/>
   </g>
   <g id="line2d_91">
    <path clip-path="url(#pe543d50108)" d="M 429.165354 134.298428 
L 389.333283 134.299248 
L 349.501213 134.298395 
L 309.669142 134.298361 
L 269.837071 134.298417 
L 230.005 134.298181 
L 190.172929 134.298185 
L 150.340858 134.298148 
L 110.508787 134.297266 
L 70.676717 134.298255 
L 30.844646 134.298314 
" style="fill:none;stroke:#1fa68d;stroke-linecap:round;stroke-width:0.5;"/>
   </g>
   <g id="line2d_92">
    <path clip-path="url(#pe543d50108)" d="M 429.165354 134.298787 
L 389.333283 134.299224 
L 349.501213 134.298421 
L 309.669142 134.298421 
L 269.837071 134.298504 
L 230.005 134.298156 
L 190.172929 134.298109 
L 150.340858 134.298101 
L 110.508787 134.297519 
L 70.676717 163.307924 
L 30.844646 134.298309 
" style="fill:none;stroke:#af78dd;stroke-linecap:round;stroke-width:0.5;"/>
   </g>
   <g id="line2d_93">
    <path clip-path="url(#pe543d50108)" d="M 429.165354 134.298133 
L 389.333283 134.298975 
L 349.501213 134.298372 
L 309.669142 134.298379 
L 269.837071 134.298432 
L 230.005 134.298203 
L 190.172929 134.298124 
L 150.340858 134.29802 
L 110.508787 134.295714 
L 70.676717 149.38223 
L 30.844646 212.331386 
" style="fill:none;stroke:#878d87;stroke-linecap:round;stroke-width:0.5;"/>
   </g>
   <g id="line2d_94">
    <path clip-path="url(#pe543d50108)" d="M 429.165354 134.298923 
L 389.333283 134.29925 
L 349.501213 134.298424 
L 309.669142 134.298422 
L 269.837071 134.298496 
L 230.005 134.298157 
L 190.172929 134.298132 
L 150.340858 134.298068 
L 110.508787 146.123696 
L 70.676717 158.758663 
L 30.844646 171.352541 
" style="fill:none;stroke:#47a166;stroke-linecap:round;stroke-width:0.5;"/>
   </g>
   <g id="line2d_95">
    <path clip-path="url(#pe543d50108)" d="M 429.165354 134.29846 
L 389.333283 134.298962 
L 349.501213 134.298327 
L 309.669142 134.298286 
L 269.837071 134.298284 
L 230.005 134.298427 
L 190.172929 134.298391 
L 150.340858 134.298383 
L 110.508787 134.299357 
L 70.676717 134.297817 
L 30.844646 134.298314 
" style="fill:none;stroke:#7783af;stroke-linecap:round;stroke-width:0.5;"/>
   </g>
   <g id="line2d_96">
    <path clip-path="url(#pe543d50108)" d="M 429.165354 134.298513 
L 389.333283 134.29927 
L 349.501213 134.298406 
L 309.669142 134.298325 
L 269.837071 134.298376 
L 230.005 134.29825 
L 190.172929 134.298266 
L 150.340858 134.298227 
L 110.508787 134.298421 
L 70.676717 134.296573 
L 30.844646 174.418836 
" style="fill:none;stroke:#b18187;stroke-linecap:round;stroke-width:0.5;"/>
   </g>
   <g id="line2d_97">
    <path clip-path="url(#pe543d50108)" d="M 429.165354 134.298829 
L 389.333283 134.299001 
L 349.501213 134.29839 
L 309.669142 134.298281 
L 269.837071 134.298318 
L 230.005 134.298352 
L 190.172929 134.298326 
L 150.340858 134.298361 
L 110.508787 134.298202 
L 70.676717 134.300198 
L 30.844646 134.298303 
" style="fill:none;stroke:#309bc2;stroke-linecap:round;stroke-width:0.5;"/>
   </g>
   <g id="line2d_98">
    <path clip-path="url(#pe543d50108)" d="M 429.165354 134.299858 
L 389.333283 134.299473 
L 349.501213 141.05825 
L 309.669142 147.359577 
L 269.837071 152.740726 
L 230.005 164.189179 
L 190.172929 178.048627 
L 150.340858 186.460745 
L 110.508787 184.795297 
L 70.676717 184.990055 
L 30.844646 211.858869 
" style="fill:none;stroke:#788590;stroke-linecap:round;stroke-width:0.5;"/>
   </g>
   <g id="line2d_99">
    <path clip-path="url(#pe543d50108)" d="M 429.165354 134.299619 
L 389.333283 134.298937 
L 349.501213 134.29837 
L 309.669142 134.298415 
L 269.837071 134.298451 
L 230.005 138.723747 
L 190.172929 145.776454 
L 150.340858 165.052422 
L 110.508787 182.194767 
L 70.676717 185.691127 
L 30.844646 235.899286 
" style="fill:none;stroke:#e561a4;stroke-linecap:round;stroke-width:0.5;"/>
   </g>
   <g id="line2d_100">
    <path clip-path="url(#pe543d50108)" d="M 429.165354 134.299029 
L 389.333283 134.299494 
L 349.501213 134.298422 
L 309.669142 134.298439 
L 269.837071 134.298523 
L 230.005 134.298155 
L 190.172929 134.298074 
L 150.340858 144.515666 
L 110.508787 162.768326 
L 70.676717 176.986675 
L 30.844646 183.091555 
" style="fill:none;stroke:#99902c;stroke-linecap:round;stroke-width:0.5;"/>
   </g>
   <g id="line2d_101">
    <path clip-path="url(#pe543d50108)" d="M 429.165354 134.298851 
L 389.333283 134.299431 
L 349.501213 134.29843 
L 309.669142 134.298343 
L 269.837071 134.29841 
L 230.005 134.298241 
L 190.172929 134.298232 
L 150.340858 134.298106 
L 110.508787 134.296343 
L 70.676717 144.474287 
L 30.844646 163.345107 
" style="fill:none;stroke:#399b7b;stroke-linecap:round;stroke-width:0.5;"/>
   </g>
   <g id="line2d_102">
    <path clip-path="url(#pe543d50108)" d="M 429.165354 134.298479 
L 389.333283 134.299355 
L 349.501213 134.298414 
L 309.669142 134.298328 
L 269.837071 134.298392 
L 230.005 134.29828 
L 190.172929 134.298229 
L 150.340858 134.298192 
L 110.508787 134.296492 
L 70.676717 134.29837 
L 30.844646 159.03241 
" style="fill:none;stroke:#da68a3;stroke-linecap:round;stroke-width:0.5;"/>
   </g>
   <g id="line2d_103">
    <path clip-path="url(#pe543d50108)" d="M 429.165354 134.298568 
L 389.333283 134.299257 
L 349.501213 134.298428 
L 309.669142 134.298358 
L 269.837071 134.298421 
L 230.005 134.298244 
L 190.172929 134.298163 
L 150.340858 134.298157 
L 110.508787 134.297731 
L 70.676717 134.296689 
L 30.844646 134.298309 
" style="fill:none;stroke:#009afa;stroke-linecap:round;stroke-width:0.5;"/>
   </g>
   <g id="line2d_104">
    <path clip-path="url(#pe543d50108)" d="M 429.165354 134.298522 
L 389.333283 134.299763 
L 349.501213 134.298514 
L 309.669142 134.29833 
L 269.837071 134.298438 
L 230.005 134.298294 
L 190.172929 134.298329 
L 150.340858 134.298295 
L 110.508787 134.299978 
L 70.676717 134.298286 
L 30.844646 134.298304 
" style="fill:none;stroke:#e36f47;stroke-linecap:round;stroke-width:0.5;"/>
   </g>
   <g id="line2d_105">
    <path clip-path="url(#pe543d50108)" d="M 429.165354 134.299895 
L 389.333283 135.662885 
L 349.501213 145.575372 
L 309.669142 157.097681 
L 269.837071 167.382372 
L 230.005 182.696769 
L 190.172929 199.460757 
L 150.340858 207.474416 
L 110.508787 207.182874 
L 70.676717 202.046685 
L 30.844646 198.57049 
" style="fill:none;stroke:#3ea44e;stroke-linecap:round;stroke-width:0.5;"/>
   </g>
   <g id="line2d_106">
    <path clip-path="url(#pe543d50108)" d="M 429.165354 134.299474 
L 389.333283 134.299647 
L 349.501213 134.298415 
L 309.669142 134.298388 
L 269.837071 134.298442 
L 230.005 134.298221 
L 190.172929 134.298233 
L 150.340858 134.298147 
L 110.508787 134.298652 
L 70.676717 150.520381 
L 30.844646 208.395202 
" style="fill:none;stroke:#c371d2;stroke-linecap:round;stroke-width:0.5;"/>
   </g>
   <g id="line2d_107">
    <path clip-path="url(#pe543d50108)" d="M 429.165354 134.29912 
L 389.333283 134.299172 
L 349.501213 134.298391 
L 309.669142 134.298404 
L 269.837071 134.298459 
L 230.005 134.298164 
L 190.172929 134.298131 
L 150.340858 134.298079 
L 110.508787 150.670439 
L 70.676717 151.874859 
L 30.844646 177.143428 
" style="fill:none;stroke:#ac8e18;stroke-linecap:round;stroke-width:0.5;"/>
   </g>
   <g id="line2d_108">
    <path clip-path="url(#pe543d50108)" d="M 429.165354 134.298752 
L 389.333283 134.298805 
L 349.501213 134.298406 
L 309.669142 134.298351 
L 269.837071 134.298414 
L 230.005 134.298245 
L 190.172929 134.298244 
L 150.340858 134.298301 
L 110.508787 134.299718 
L 70.676717 134.298621 
L 30.844646 134.298312 
" style="fill:none;stroke:#00aaae;stroke-linecap:round;stroke-width:0.5;"/>
   </g>
   <g id="line2d_109">
    <path clip-path="url(#pe543d50108)" d="M 429.165354 134.299759 
L 389.333283 134.299137 
L 349.501213 134.298404 
L 309.669142 139.866033 
L 269.837071 148.170176 
L 230.005 159.67366 
L 190.172929 171.960432 
L 150.340858 182.276424 
L 110.508787 194.07397 
L 70.676717 212.586655 
L 30.844646 220.918683 
" style="fill:none;stroke:#ed5e93;stroke-linecap:round;stroke-width:0.5;"/>
   </g>
   <g id="line2d_110">
    <path clip-path="url(#pe543d50108)" d="M 429.165354 134.297925 
L 389.333283 134.299244 
L 349.501213 134.298444 
L 309.669142 134.298304 
L 269.837071 134.298383 
L 230.005 134.298218 
L 190.172929 134.298232 
L 150.340858 134.298348 
L 110.508787 134.298008 
L 70.676717 134.299329 
L 30.844646 134.298311 
" style="fill:none;stroke:#c68225;stroke-linecap:round;stroke-width:0.5;"/>
   </g>
   <g id="line2d_111">
    <path clip-path="url(#pe543d50108)" d="M 429.165354 134.298856 
L 389.333283 134.299486 
L 349.501213 134.298435 
L 309.669142 134.298349 
L 269.837071 134.298422 
L 230.005 134.298235 
L 190.172929 134.298239 
L 150.340858 134.298199 
L 110.508787 134.297208 
L 70.676717 134.298864 
L 30.844646 134.298317 
" style="fill:none;stroke:#00a98d;stroke-linecap:round;stroke-width:0.5;"/>
   </g>
   <g id="line2d_112">
    <path clip-path="url(#pe543d50108)" d="M 429.165354 134.297694 
L 389.333283 134.298898 
L 349.501213 134.298366 
L 309.669142 134.298229 
L 269.837071 134.298248 
L 230.005 134.298367 
L 190.172929 134.298389 
L 150.340858 134.29841 
L 110.508787 134.29964 
L 70.676717 134.297443 
L 30.844646 134.298307 
" style="fill:none;stroke:#8e971e;stroke-linecap:round;stroke-width:0.5;"/>
   </g>
  </g>
 </g>
 <defs>
  <clipPath id="pe543d50108">
   <rect height="241.570709" width="398.320709" x="30.844646" y="17.114646"/>
  </clipPath>
 </defs>
</svg>
