<?xml version="1.0" encoding="utf-8" standalone="no"?>
<!DOCTYPE svg PUBLIC "-//W3C//DTD SVG 1.1//EN"
  "http://www.w3.org/Graphics/SVG/1.1/DTD/svg11.dtd">
<!-- Created with matplotlib (http://matplotlib.org/) -->
<svg height="288pt" version="1.1" viewBox="0 0 432 288" width="432pt" xmlns="http://www.w3.org/2000/svg" xmlns:xlink="http://www.w3.org/1999/xlink">
 <defs>
  <style type="text/css">
*{stroke-linecap:butt;stroke-linejoin:round;}
  </style>
 </defs>
 <g id="figure_1">
  <g id="patch_1">
   <path d="M 0 288 
L 432 288 
L 432 0 
L 0 0 
z
" style="fill:#ffffff;"/>
  </g>
  <g id="axes_1">
   <g id="patch_2">
    <path d="M 27.964646 258.685354 
L 429.165354 258.685354 
L 429.165354 17.114646 
L 27.964646 17.114646 
z
" style="fill:#ffffff;"/>
   </g>
   <g id="matplotlib.axis_1">
    <g id="xtick_1">
     <g id="line2d_1">
      <path clip-path="url(#p0155a44bd3)" d="M 103.094245 258.685354 
L 103.094245 17.114646 
" style="fill:none;stroke:#000000;stroke-dasharray:0.8,1.32;stroke-dashoffset:0;stroke-width:0.8;"/>
     </g>
     <g id="line2d_2">
      <defs>
       <path d="M 0 0 
L 0 3.5 
" id="m16767cf007" style="stroke:#000000;stroke-width:0.8;"/>
      </defs>
      <g>
       <use style="stroke:#000000;stroke-width:0.8;" x="103.094245" xlink:href="#m16767cf007" y="258.685354"/>
      </g>
     </g>
     <g id="text_1">
      <!-- 100 -->
      <defs>
       <path d="M 12.40625 8.296875 
L 28.515625 8.296875 
L 28.515625 63.921875 
L 10.984375 60.40625 
L 10.984375 69.390625 
L 28.421875 72.90625 
L 38.28125 72.90625 
L 38.28125 8.296875 
L 54.390625 8.296875 
L 54.390625 0 
L 12.40625 0 
z
" id="DejaVuSans-31"/>
       <path d="M 31.78125 66.40625 
Q 24.171875 66.40625 20.328125 58.90625 
Q 16.5 51.421875 16.5 36.375 
Q 16.5 21.390625 20.328125 13.890625 
Q 24.171875 6.390625 31.78125 6.390625 
Q 39.453125 6.390625 43.28125 13.890625 
Q 47.125 21.390625 47.125 36.375 
Q 47.125 51.421875 43.28125 58.90625 
Q 39.453125 66.40625 31.78125 66.40625 
z
M 31.78125 74.21875 
Q 44.046875 74.21875 50.515625 64.515625 
Q 56.984375 54.828125 56.984375 36.375 
Q 56.984375 17.96875 50.515625 8.265625 
Q 44.046875 -1.421875 31.78125 -1.421875 
Q 19.53125 -1.421875 13.0625 8.265625 
Q 6.59375 17.96875 6.59375 36.375 
Q 6.59375 54.828125 13.0625 64.515625 
Q 19.53125 74.21875 31.78125 74.21875 
z
" id="DejaVuSans-30"/>
      </defs>
      <g transform="translate(95.459245 271.764104)scale(0.08 -0.08)">
       <use xlink:href="#DejaVuSans-31"/>
       <use x="63.623047" xlink:href="#DejaVuSans-30"/>
       <use x="127.246094" xlink:href="#DejaVuSans-30"/>
      </g>
     </g>
    </g>
    <g id="xtick_2">
     <g id="line2d_3">
      <path clip-path="url(#p0155a44bd3)" d="M 178.283239 258.685354 
L 178.283239 17.114646 
" style="fill:none;stroke:#000000;stroke-dasharray:0.8,1.32;stroke-dashoffset:0;stroke-width:0.8;"/>
     </g>
     <g id="line2d_4">
      <g>
       <use style="stroke:#000000;stroke-width:0.8;" x="178.283239" xlink:href="#m16767cf007" y="258.685354"/>
      </g>
     </g>
     <g id="text_2">
      <!-- 200 -->
      <defs>
       <path d="M 19.1875 8.296875 
L 53.609375 8.296875 
L 53.609375 0 
L 7.328125 0 
L 7.328125 8.296875 
Q 12.9375 14.109375 22.625 23.890625 
Q 32.328125 33.6875 34.8125 36.53125 
Q 39.546875 41.84375 41.421875 45.53125 
Q 43.3125 49.21875 43.3125 52.78125 
Q 43.3125 58.59375 39.234375 62.25 
Q 35.15625 65.921875 28.609375 65.921875 
Q 23.96875 65.921875 18.8125 64.3125 
Q 13.671875 62.703125 7.8125 59.421875 
L 7.8125 69.390625 
Q 13.765625 71.78125 18.9375 73 
Q 24.125 74.21875 28.421875 74.21875 
Q 39.75 74.21875 46.484375 68.546875 
Q 53.21875 62.890625 53.21875 53.421875 
Q 53.21875 48.921875 51.53125 44.890625 
Q 49.859375 40.875 45.40625 35.40625 
Q 44.1875 33.984375 37.640625 27.21875 
Q 31.109375 20.453125 19.1875 8.296875 
z
" id="DejaVuSans-32"/>
      </defs>
      <g transform="translate(170.648239 271.764104)scale(0.08 -0.08)">
       <use xlink:href="#DejaVuSans-32"/>
       <use x="63.623047" xlink:href="#DejaVuSans-30"/>
       <use x="127.246094" xlink:href="#DejaVuSans-30"/>
      </g>
     </g>
    </g>
    <g id="xtick_3">
     <g id="line2d_5">
      <path clip-path="url(#p0155a44bd3)" d="M 253.472234 258.685354 
L 253.472234 17.114646 
" style="fill:none;stroke:#000000;stroke-dasharray:0.8,1.32;stroke-dashoffset:0;stroke-width:0.8;"/>
     </g>
     <g id="line2d_6">
      <g>
       <use style="stroke:#000000;stroke-width:0.8;" x="253.472234" xlink:href="#m16767cf007" y="258.685354"/>
      </g>
     </g>
     <g id="text_3">
      <!-- 300 -->
      <defs>
       <path d="M 40.578125 39.3125 
Q 47.65625 37.796875 51.625 33 
Q 55.609375 28.21875 55.609375 21.1875 
Q 55.609375 10.40625 48.1875 4.484375 
Q 40.765625 -1.421875 27.09375 -1.421875 
Q 22.515625 -1.421875 17.65625 -0.515625 
Q 12.796875 0.390625 7.625 2.203125 
L 7.625 11.71875 
Q 11.71875 9.328125 16.59375 8.109375 
Q 21.484375 6.890625 26.8125 6.890625 
Q 36.078125 6.890625 40.9375 10.546875 
Q 45.796875 14.203125 45.796875 21.1875 
Q 45.796875 27.640625 41.28125 31.265625 
Q 36.765625 34.90625 28.71875 34.90625 
L 20.21875 34.90625 
L 20.21875 43.015625 
L 29.109375 43.015625 
Q 36.375 43.015625 40.234375 45.921875 
Q 44.09375 48.828125 44.09375 54.296875 
Q 44.09375 59.90625 40.109375 62.90625 
Q 36.140625 65.921875 28.71875 65.921875 
Q 24.65625 65.921875 20.015625 65.03125 
Q 15.375 64.15625 9.8125 62.3125 
L 9.8125 71.09375 
Q 15.4375 72.65625 20.34375 73.4375 
Q 25.25 74.21875 29.59375 74.21875 
Q 40.828125 74.21875 47.359375 69.109375 
Q 53.90625 64.015625 53.90625 55.328125 
Q 53.90625 49.265625 50.4375 45.09375 
Q 46.96875 40.921875 40.578125 39.3125 
z
" id="DejaVuSans-33"/>
      </defs>
      <g transform="translate(245.837234 271.764104)scale(0.08 -0.08)">
       <use xlink:href="#DejaVuSans-33"/>
       <use x="63.623047" xlink:href="#DejaVuSans-30"/>
       <use x="127.246094" xlink:href="#DejaVuSans-30"/>
      </g>
     </g>
    </g>
    <g id="xtick_4">
     <g id="line2d_7">
      <path clip-path="url(#p0155a44bd3)" d="M 328.661229 258.685354 
L 328.661229 17.114646 
" style="fill:none;stroke:#000000;stroke-dasharray:0.8,1.32;stroke-dashoffset:0;stroke-width:0.8;"/>
     </g>
     <g id="line2d_8">
      <g>
       <use style="stroke:#000000;stroke-width:0.8;" x="328.661229" xlink:href="#m16767cf007" y="258.685354"/>
      </g>
     </g>
     <g id="text_4">
      <!-- 400 -->
      <defs>
       <path d="M 37.796875 64.3125 
L 12.890625 25.390625 
L 37.796875 25.390625 
z
M 35.203125 72.90625 
L 47.609375 72.90625 
L 47.609375 25.390625 
L 58.015625 25.390625 
L 58.015625 17.1875 
L 47.609375 17.1875 
L 47.609375 0 
L 37.796875 0 
L 37.796875 17.1875 
L 4.890625 17.1875 
L 4.890625 26.703125 
z
" id="DejaVuSans-34"/>
      </defs>
      <g transform="translate(321.026229 271.764104)scale(0.08 -0.08)">
       <use xlink:href="#DejaVuSans-34"/>
       <use x="63.623047" xlink:href="#DejaVuSans-30"/>
       <use x="127.246094" xlink:href="#DejaVuSans-30"/>
      </g>
     </g>
    </g>
    <g id="xtick_5">
     <g id="line2d_9">
      <path clip-path="url(#p0155a44bd3)" d="M 403.850224 258.685354 
L 403.850224 17.114646 
" style="fill:none;stroke:#000000;stroke-dasharray:0.8,1.32;stroke-dashoffset:0;stroke-width:0.8;"/>
     </g>
     <g id="line2d_10">
      <g>
       <use style="stroke:#000000;stroke-width:0.8;" x="403.850224" xlink:href="#m16767cf007" y="258.685354"/>
      </g>
     </g>
     <g id="text_5">
      <!-- 500 -->
      <defs>
       <path d="M 10.796875 72.90625 
L 49.515625 72.90625 
L 49.515625 64.59375 
L 19.828125 64.59375 
L 19.828125 46.734375 
Q 21.96875 47.46875 24.109375 47.828125 
Q 26.265625 48.1875 28.421875 48.1875 
Q 40.625 48.1875 47.75 41.5 
Q 54.890625 34.8125 54.890625 23.390625 
Q 54.890625 11.625 47.5625 5.09375 
Q 40.234375 -1.421875 26.90625 -1.421875 
Q 22.3125 -1.421875 17.546875 -0.640625 
Q 12.796875 0.140625 7.71875 1.703125 
L 7.71875 11.625 
Q 12.109375 9.234375 16.796875 8.0625 
Q 21.484375 6.890625 26.703125 6.890625 
Q 35.15625 6.890625 40.078125 11.328125 
Q 45.015625 15.765625 45.015625 23.390625 
Q 45.015625 31 40.078125 35.4375 
Q 35.15625 39.890625 26.703125 39.890625 
Q 22.75 39.890625 18.8125 39.015625 
Q 14.890625 38.140625 10.796875 36.28125 
z
" id="DejaVuSans-35"/>
      </defs>
      <g transform="translate(396.215224 271.764104)scale(0.08 -0.08)">
       <use xlink:href="#DejaVuSans-35"/>
       <use x="63.623047" xlink:href="#DejaVuSans-30"/>
       <use x="127.246094" xlink:href="#DejaVuSans-30"/>
      </g>
     </g>
    </g>
    <g id="text_6">
     <!-- ρ -->
     <defs>
      <path d="M 13.484375 44.921875 
Q 16.453125 49.90625 23.828125 54.296875 
Q 26.703125 56 35.59375 56 
Q 45.5625 56 51.78125 48.09375 
Q 58.015625 40.1875 58.015625 27.296875 
Q 58.015625 14.40625 51.78125 6.484375 
Q 45.5625 -1.421875 35.59375 -1.421875 
Q 29.59375 -1.421875 25.265625 0.953125 
Q 20.953125 3.328125 18.109375 8.203125 
L 18.109375 -20.796875 
L 9.078125 -20.796875 
L 9.078125 26.8125 
Q 9.078125 38.09375 13.484375 44.921875 
z
M 48.6875 27.296875 
Q 48.6875 37.203125 44.609375 42.84375 
Q 40.53125 48.484375 33.40625 48.484375 
Q 26.265625 48.484375 22.1875 42.84375 
Q 18.109375 37.203125 18.109375 27.296875 
Q 18.109375 17.390625 22.1875 11.75 
Q 26.265625 6.109375 33.40625 6.109375 
Q 40.53125 6.109375 44.609375 11.75 
Q 48.6875 17.390625 48.6875 27.296875 
z
" id="DejaVuSans-3c1"/>
     </defs>
     <g transform="translate(225.073359 285.786136)scale(0.11 -0.11)">
      <use xlink:href="#DejaVuSans-3c1"/>
     </g>
    </g>
   </g>
   <g id="matplotlib.axis_2">
    <g id="ytick_1">
     <g id="line2d_11">
      <path clip-path="url(#p0155a44bd3)" d="M 27.964646 249.761874 
L 429.165354 249.761874 
" style="fill:none;stroke:#000000;stroke-dasharray:0.8,1.32;stroke-dashoffset:0;stroke-width:0.8;"/>
     </g>
     <g id="line2d_12">
      <defs>
       <path d="M 0 0 
L -3.5 0 
" id="m048ae245e6" style="stroke:#000000;stroke-width:0.8;"/>
      </defs>
      <g>
       <use style="stroke:#000000;stroke-width:0.8;" x="27.964646" xlink:href="#m048ae245e6" y="249.761874"/>
      </g>
     </g>
     <g id="text_7">
      <!-- 0 -->
      <g transform="translate(15.874646 252.801249)scale(0.08 -0.08)">
       <use xlink:href="#DejaVuSans-30"/>
      </g>
     </g>
    </g>
    <g id="ytick_2">
     <g id="line2d_13">
      <path clip-path="url(#p0155a44bd3)" d="M 27.964646 202.785718 
L 429.165354 202.785718 
" style="fill:none;stroke:#000000;stroke-dasharray:0.8,1.32;stroke-dashoffset:0;stroke-width:0.8;"/>
     </g>
     <g id="line2d_14">
      <g>
       <use style="stroke:#000000;stroke-width:0.8;" x="27.964646" xlink:href="#m048ae245e6" y="202.785718"/>
      </g>
     </g>
     <g id="text_8">
      <!-- 2 -->
      <g transform="translate(15.874646 205.825093)scale(0.08 -0.08)">
       <use xlink:href="#DejaVuSans-32"/>
      </g>
     </g>
    </g>
    <g id="ytick_3">
     <g id="line2d_15">
      <path clip-path="url(#p0155a44bd3)" d="M 27.964646 155.809562 
L 429.165354 155.809562 
" style="fill:none;stroke:#000000;stroke-dasharray:0.8,1.32;stroke-dashoffset:0;stroke-width:0.8;"/>
     </g>
     <g id="line2d_16">
      <g>
       <use style="stroke:#000000;stroke-width:0.8;" x="27.964646" xlink:href="#m048ae245e6" y="155.809562"/>
      </g>
     </g>
     <g id="text_9">
      <!-- 4 -->
      <g transform="translate(15.874646 158.848937)scale(0.08 -0.08)">
       <use xlink:href="#DejaVuSans-34"/>
      </g>
     </g>
    </g>
    <g id="ytick_4">
     <g id="line2d_17">
      <path clip-path="url(#p0155a44bd3)" d="M 27.964646 108.833406 
L 429.165354 108.833406 
" style="fill:none;stroke:#000000;stroke-dasharray:0.8,1.32;stroke-dashoffset:0;stroke-width:0.8;"/>
     </g>
     <g id="line2d_18">
      <g>
       <use style="stroke:#000000;stroke-width:0.8;" x="27.964646" xlink:href="#m048ae245e6" y="108.833406"/>
      </g>
     </g>
     <g id="text_10">
      <!-- 6 -->
      <defs>
       <path d="M 33.015625 40.375 
Q 26.375 40.375 22.484375 35.828125 
Q 18.609375 31.296875 18.609375 23.390625 
Q 18.609375 15.53125 22.484375 10.953125 
Q 26.375 6.390625 33.015625 6.390625 
Q 39.65625 6.390625 43.53125 10.953125 
Q 47.40625 15.53125 47.40625 23.390625 
Q 47.40625 31.296875 43.53125 35.828125 
Q 39.65625 40.375 33.015625 40.375 
z
M 52.59375 71.296875 
L 52.59375 62.3125 
Q 48.875 64.0625 45.09375 64.984375 
Q 41.3125 65.921875 37.59375 65.921875 
Q 27.828125 65.921875 22.671875 59.328125 
Q 17.53125 52.734375 16.796875 39.40625 
Q 19.671875 43.65625 24.015625 45.921875 
Q 28.375 48.1875 33.59375 48.1875 
Q 44.578125 48.1875 50.953125 41.515625 
Q 57.328125 34.859375 57.328125 23.390625 
Q 57.328125 12.15625 50.6875 5.359375 
Q 44.046875 -1.421875 33.015625 -1.421875 
Q 20.359375 -1.421875 13.671875 8.265625 
Q 6.984375 17.96875 6.984375 36.375 
Q 6.984375 53.65625 15.1875 63.9375 
Q 23.390625 74.21875 37.203125 74.21875 
Q 40.921875 74.21875 44.703125 73.484375 
Q 48.484375 72.75 52.59375 71.296875 
z
" id="DejaVuSans-36"/>
      </defs>
      <g transform="translate(15.874646 111.872781)scale(0.08 -0.08)">
       <use xlink:href="#DejaVuSans-36"/>
      </g>
     </g>
    </g>
    <g id="ytick_5">
     <g id="line2d_19">
      <path clip-path="url(#p0155a44bd3)" d="M 27.964646 61.857251 
L 429.165354 61.857251 
" style="fill:none;stroke:#000000;stroke-dasharray:0.8,1.32;stroke-dashoffset:0;stroke-width:0.8;"/>
     </g>
     <g id="line2d_20">
      <g>
       <use style="stroke:#000000;stroke-width:0.8;" x="27.964646" xlink:href="#m048ae245e6" y="61.857251"/>
      </g>
     </g>
     <g id="text_11">
      <!-- 8 -->
      <defs>
       <path d="M 31.78125 34.625 
Q 24.75 34.625 20.71875 30.859375 
Q 16.703125 27.09375 16.703125 20.515625 
Q 16.703125 13.921875 20.71875 10.15625 
Q 24.75 6.390625 31.78125 6.390625 
Q 38.8125 6.390625 42.859375 10.171875 
Q 46.921875 13.96875 46.921875 20.515625 
Q 46.921875 27.09375 42.890625 30.859375 
Q 38.875 34.625 31.78125 34.625 
z
M 21.921875 38.8125 
Q 15.578125 40.375 12.03125 44.71875 
Q 8.5 49.078125 8.5 55.328125 
Q 8.5 64.0625 14.71875 69.140625 
Q 20.953125 74.21875 31.78125 74.21875 
Q 42.671875 74.21875 48.875 69.140625 
Q 55.078125 64.0625 55.078125 55.328125 
Q 55.078125 49.078125 51.53125 44.71875 
Q 48 40.375 41.703125 38.8125 
Q 48.828125 37.15625 52.796875 32.3125 
Q 56.78125 27.484375 56.78125 20.515625 
Q 56.78125 9.90625 50.3125 4.234375 
Q 43.84375 -1.421875 31.78125 -1.421875 
Q 19.734375 -1.421875 13.25 4.234375 
Q 6.78125 9.90625 6.78125 20.515625 
Q 6.78125 27.484375 10.78125 32.3125 
Q 14.796875 37.15625 21.921875 38.8125 
z
M 18.3125 54.390625 
Q 18.3125 48.734375 21.84375 45.5625 
Q 25.390625 42.390625 31.78125 42.390625 
Q 38.140625 42.390625 41.71875 45.5625 
Q 45.3125 48.734375 45.3125 54.390625 
Q 45.3125 60.0625 41.71875 63.234375 
Q 38.140625 66.40625 31.78125 66.40625 
Q 25.390625 66.40625 21.84375 63.234375 
Q 18.3125 60.0625 18.3125 54.390625 
z
" id="DejaVuSans-38"/>
      </defs>
      <g transform="translate(15.874646 64.896626)scale(0.08 -0.08)">
       <use xlink:href="#DejaVuSans-38"/>
      </g>
     </g>
    </g>
    <g id="text_12">
     <!-- β̂(ρ) -->
     <defs>
      <path d="M 18.40625 3.375 
L 18.40625 -20.796875 
L 9.375 -20.796875 
L 9.375 54.34375 
Q 9.375 76.609375 30.171875 76.609375 
Q 51.375 76.609375 51.375 57.8125 
Q 51.375 44.4375 42.96875 39.546875 
Q 56.640625 35.15625 56.640625 22.125 
Q 56.640625 -1.03125 33.109375 -1.03125 
Q 22.75 -1.03125 18.40625 3.375 
z
M 18.40625 15.09375 
Q 23.828125 6.640625 33.453125 6.640625 
Q 47.515625 6.640625 47.515625 21.96875 
Q 47.515625 35.75 24.859375 34.671875 
L 24.859375 42.96875 
Q 42.578125 42.96875 42.578125 58.59375 
Q 42.578125 69.28125 31.15625 69.28125 
Q 18.40625 69.28125 18.40625 54.046875 
z
" id="DejaVuSans-3b2"/>
      <path d="M -28.609375 79.984375 
L -21.390625 79.984375 
L -9.421875 61.625 
L -16.21875 61.625 
L -25 73.578125 
L -33.796875 61.625 
L -40.578125 61.625 
z
M -25 56 
z
" id="DejaVuSans-302"/>
      <path d="M 31 75.875 
Q 24.46875 64.65625 21.28125 53.65625 
Q 18.109375 42.671875 18.109375 31.390625 
Q 18.109375 20.125 21.3125 9.0625 
Q 24.515625 -2 31 -13.1875 
L 23.1875 -13.1875 
Q 15.875 -1.703125 12.234375 9.375 
Q 8.59375 20.453125 8.59375 31.390625 
Q 8.59375 42.28125 12.203125 53.3125 
Q 15.828125 64.359375 23.1875 75.875 
z
" id="DejaVuSans-28"/>
      <path d="M 8.015625 75.875 
L 15.828125 75.875 
Q 23.140625 64.359375 26.78125 53.3125 
Q 30.421875 42.28125 30.421875 31.390625 
Q 30.421875 20.453125 26.78125 9.375 
Q 23.140625 -1.703125 15.828125 -13.1875 
L 8.015625 -13.1875 
Q 14.5 -2 17.703125 9.0625 
Q 20.90625 20.125 20.90625 31.390625 
Q 20.90625 42.671875 17.703125 53.65625 
Q 14.5 64.65625 8.015625 75.875 
z
" id="DejaVuSans-29"/>
     </defs>
     <g transform="translate(9.586989 149.193047)rotate(-90)scale(0.11 -0.11)">
      <use xlink:href="#DejaVuSans-3b2"/>
      <use x="63.818359" xlink:href="#DejaVuSans-302"/>
      <use x="63.818359" xlink:href="#DejaVuSans-28"/>
      <use x="102.832031" xlink:href="#DejaVuSans-3c1"/>
      <use x="166.308594" xlink:href="#DejaVuSans-29"/>
     </g>
    </g>
   </g>
   <g id="line2d_21">
    <path clip-path="url(#p0155a44bd3)" d="M 429.165354 249.761874 
L 47.508054 249.761874 
L 40.789972 243.656966 
L 33.484793 237.384109 
L 31.49959 236.086003 
L 30.882685 235.806615 
L 29.698448 235.447788 
L 29.015337 234.994742 
L 28.575457 234.065815 
L 28.468383 234.163764 
L 28.379634 234.578201 
L 28.110338 234.470031 
L 27.964646 231.052949 
L 27.964646 231.052949 
" style="fill:none;stroke:#009afa;stroke-linecap:round;stroke-width:0.5;"/>
   </g>
   <g id="line2d_22">
    <path clip-path="url(#p0155a44bd3)" d="M 429.165354 249.761874 
L 115.710839 249.761874 
L 47.508054 206.565426 
L 43.489891 205.059506 
L 40.789972 203.966095 
L 37.652187 202.489223 
L 33.484793 200.882533 
L 32.516244 200.77932 
L 32.29261 200.819057 
L 31.49959 200.704589 
L 30.882685 200.331293 
L 29.698448 198.983285 
L 29.153309 198.582349 
L 28.575457 197.792124 
L 28.567175 197.816451 
L 28.468383 197.88685 
L 28.22961 198.27377 
L 28.110338 198.483953 
L 28.068165 198.679044 
L 28.068165 198.679044 
L 28.068165 198.679044 
L 28.036833 198.440545 
L 28.006486 198.631516 
L 28.006486 198.631516 
L 27.988139 198.763976 
L 27.971925 198.661071 
L 27.971925 198.661071 
L 27.964646 198.352407 
L 27.964646 198.352407 
" style="fill:none;stroke:#e36f47;stroke-linecap:round;stroke-width:0.5;"/>
   </g>
   <g id="patch_3">
    <path d="M 27.964646 258.685354 
L 27.964646 17.114646 
" style="fill:none;stroke:#000000;stroke-linecap:square;stroke-linejoin:miter;stroke-width:0.8;"/>
   </g>
   <g id="patch_4">
    <path d="M 429.165354 258.685354 
L 429.165354 17.114646 
" style="fill:none;stroke:#000000;stroke-linecap:square;stroke-linejoin:miter;stroke-width:0.8;"/>
   </g>
   <g id="patch_5">
    <path d="M 27.964646 258.685354 
L 429.165354 258.685354 
" style="fill:none;stroke:#000000;stroke-linecap:square;stroke-linejoin:miter;stroke-width:0.8;"/>
   </g>
   <g id="patch_6">
    <path d="M 27.964646 17.114646 
L 429.165354 17.114646 
" style="fill:none;stroke:#000000;stroke-linecap:square;stroke-linejoin:miter;stroke-width:0.8;"/>
   </g>
   <g id="line2d_23">
    <path clip-path="url(#p0155a44bd3)" d="M 429.165354 249.761874 
L 139.672855 249.761874 
L 133.7452 246.287562 
L 115.710839 236.367383 
L 47.508054 199.607719 
L 43.489891 196.552644 
L 37.652187 192.461513 
L 33.484793 189.902671 
L 32.516244 189.50091 
L 32.29261 189.48443 
L 30.882685 189.026364 
L 29.905336 188.223416 
L 28.988012 186.479025 
L 28.567175 184.538983 
L 28.03725 182.066086 
L 27.964646 178.952236 
L 27.964646 178.952236 
" style="fill:none;stroke:#3ea44e;stroke-linecap:round;stroke-width:0.5;"/>
   </g>
   <g id="text_13">
    <!-- Simulation 2: Solution Path via Constrained Lasso -->
    <defs>
     <path d="M 53.515625 70.515625 
L 53.515625 60.890625 
Q 47.90625 63.578125 42.921875 64.890625 
Q 37.9375 66.21875 33.296875 66.21875 
Q 25.25 66.21875 20.875 63.09375 
Q 16.5 59.96875 16.5 54.203125 
Q 16.5 49.359375 19.40625 46.890625 
Q 22.3125 44.4375 30.421875 42.921875 
L 36.375 41.703125 
Q 47.40625 39.59375 52.65625 34.296875 
Q 57.90625 29 57.90625 20.125 
Q 57.90625 9.515625 50.796875 4.046875 
Q 43.703125 -1.421875 29.984375 -1.421875 
Q 24.8125 -1.421875 18.96875 -0.25 
Q 13.140625 0.921875 6.890625 3.21875 
L 6.890625 13.375 
Q 12.890625 10.015625 18.65625 8.296875 
Q 24.421875 6.59375 29.984375 6.59375 
Q 38.421875 6.59375 43.015625 9.90625 
Q 47.609375 13.234375 47.609375 19.390625 
Q 47.609375 24.75 44.3125 27.78125 
Q 41.015625 30.8125 33.5 32.328125 
L 27.484375 33.5 
Q 16.453125 35.6875 11.515625 40.375 
Q 6.59375 45.0625 6.59375 53.421875 
Q 6.59375 63.09375 13.40625 68.65625 
Q 20.21875 74.21875 32.171875 74.21875 
Q 37.3125 74.21875 42.625 73.28125 
Q 47.953125 72.359375 53.515625 70.515625 
z
" id="DejaVuSans-53"/>
     <path d="M 9.421875 54.6875 
L 18.40625 54.6875 
L 18.40625 0 
L 9.421875 0 
z
M 9.421875 75.984375 
L 18.40625 75.984375 
L 18.40625 64.59375 
L 9.421875 64.59375 
z
" id="DejaVuSans-69"/>
     <path d="M 52 44.1875 
Q 55.375 50.25 60.0625 53.125 
Q 64.75 56 71.09375 56 
Q 79.640625 56 84.28125 50.015625 
Q 88.921875 44.046875 88.921875 33.015625 
L 88.921875 0 
L 79.890625 0 
L 79.890625 32.71875 
Q 79.890625 40.578125 77.09375 44.375 
Q 74.3125 48.1875 68.609375 48.1875 
Q 61.625 48.1875 57.5625 43.546875 
Q 53.515625 38.921875 53.515625 30.90625 
L 53.515625 0 
L 44.484375 0 
L 44.484375 32.71875 
Q 44.484375 40.625 41.703125 44.40625 
Q 38.921875 48.1875 33.109375 48.1875 
Q 26.21875 48.1875 22.15625 43.53125 
Q 18.109375 38.875 18.109375 30.90625 
L 18.109375 0 
L 9.078125 0 
L 9.078125 54.6875 
L 18.109375 54.6875 
L 18.109375 46.1875 
Q 21.1875 51.21875 25.484375 53.609375 
Q 29.78125 56 35.6875 56 
Q 41.65625 56 45.828125 52.96875 
Q 50 49.953125 52 44.1875 
z
" id="DejaVuSans-6d"/>
     <path d="M 8.5 21.578125 
L 8.5 54.6875 
L 17.484375 54.6875 
L 17.484375 21.921875 
Q 17.484375 14.15625 20.5 10.265625 
Q 23.53125 6.390625 29.59375 6.390625 
Q 36.859375 6.390625 41.078125 11.03125 
Q 45.3125 15.671875 45.3125 23.6875 
L 45.3125 54.6875 
L 54.296875 54.6875 
L 54.296875 0 
L 45.3125 0 
L 45.3125 8.40625 
Q 42.046875 3.421875 37.71875 1 
Q 33.40625 -1.421875 27.6875 -1.421875 
Q 18.265625 -1.421875 13.375 4.4375 
Q 8.5 10.296875 8.5 21.578125 
z
M 31.109375 56 
z
" id="DejaVuSans-75"/>
     <path d="M 9.421875 75.984375 
L 18.40625 75.984375 
L 18.40625 0 
L 9.421875 0 
z
" id="DejaVuSans-6c"/>
     <path d="M 34.28125 27.484375 
Q 23.390625 27.484375 19.1875 25 
Q 14.984375 22.515625 14.984375 16.5 
Q 14.984375 11.71875 18.140625 8.90625 
Q 21.296875 6.109375 26.703125 6.109375 
Q 34.1875 6.109375 38.703125 11.40625 
Q 43.21875 16.703125 43.21875 25.484375 
L 43.21875 27.484375 
z
M 52.203125 31.203125 
L 52.203125 0 
L 43.21875 0 
L 43.21875 8.296875 
Q 40.140625 3.328125 35.546875 0.953125 
Q 30.953125 -1.421875 24.3125 -1.421875 
Q 15.921875 -1.421875 10.953125 3.296875 
Q 6 8.015625 6 15.921875 
Q 6 25.140625 12.171875 29.828125 
Q 18.359375 34.515625 30.609375 34.515625 
L 43.21875 34.515625 
L 43.21875 35.40625 
Q 43.21875 41.609375 39.140625 45 
Q 35.0625 48.390625 27.6875 48.390625 
Q 23 48.390625 18.546875 47.265625 
Q 14.109375 46.140625 10.015625 43.890625 
L 10.015625 52.203125 
Q 14.9375 54.109375 19.578125 55.046875 
Q 24.21875 56 28.609375 56 
Q 40.484375 56 46.34375 49.84375 
Q 52.203125 43.703125 52.203125 31.203125 
z
" id="DejaVuSans-61"/>
     <path d="M 18.3125 70.21875 
L 18.3125 54.6875 
L 36.8125 54.6875 
L 36.8125 47.703125 
L 18.3125 47.703125 
L 18.3125 18.015625 
Q 18.3125 11.328125 20.140625 9.421875 
Q 21.96875 7.515625 27.59375 7.515625 
L 36.8125 7.515625 
L 36.8125 0 
L 27.59375 0 
Q 17.1875 0 13.234375 3.875 
Q 9.28125 7.765625 9.28125 18.015625 
L 9.28125 47.703125 
L 2.6875 47.703125 
L 2.6875 54.6875 
L 9.28125 54.6875 
L 9.28125 70.21875 
z
" id="DejaVuSans-74"/>
     <path d="M 30.609375 48.390625 
Q 23.390625 48.390625 19.1875 42.75 
Q 14.984375 37.109375 14.984375 27.296875 
Q 14.984375 17.484375 19.15625 11.84375 
Q 23.34375 6.203125 30.609375 6.203125 
Q 37.796875 6.203125 41.984375 11.859375 
Q 46.1875 17.53125 46.1875 27.296875 
Q 46.1875 37.015625 41.984375 42.703125 
Q 37.796875 48.390625 30.609375 48.390625 
z
M 30.609375 56 
Q 42.328125 56 49.015625 48.375 
Q 55.71875 40.765625 55.71875 27.296875 
Q 55.71875 13.875 49.015625 6.21875 
Q 42.328125 -1.421875 30.609375 -1.421875 
Q 18.84375 -1.421875 12.171875 6.21875 
Q 5.515625 13.875 5.515625 27.296875 
Q 5.515625 40.765625 12.171875 48.375 
Q 18.84375 56 30.609375 56 
z
" id="DejaVuSans-6f"/>
     <path d="M 54.890625 33.015625 
L 54.890625 0 
L 45.90625 0 
L 45.90625 32.71875 
Q 45.90625 40.484375 42.875 44.328125 
Q 39.84375 48.1875 33.796875 48.1875 
Q 26.515625 48.1875 22.3125 43.546875 
Q 18.109375 38.921875 18.109375 30.90625 
L 18.109375 0 
L 9.078125 0 
L 9.078125 54.6875 
L 18.109375 54.6875 
L 18.109375 46.1875 
Q 21.34375 51.125 25.703125 53.5625 
Q 30.078125 56 35.796875 56 
Q 45.21875 56 50.046875 50.171875 
Q 54.890625 44.34375 54.890625 33.015625 
z
" id="DejaVuSans-6e"/>
     <path id="DejaVuSans-20"/>
     <path d="M 11.71875 12.40625 
L 22.015625 12.40625 
L 22.015625 0 
L 11.71875 0 
z
M 11.71875 51.703125 
L 22.015625 51.703125 
L 22.015625 39.3125 
L 11.71875 39.3125 
z
" id="DejaVuSans-3a"/>
     <path d="M 19.671875 64.796875 
L 19.671875 37.40625 
L 32.078125 37.40625 
Q 38.96875 37.40625 42.71875 40.96875 
Q 46.484375 44.53125 46.484375 51.125 
Q 46.484375 57.671875 42.71875 61.234375 
Q 38.96875 64.796875 32.078125 64.796875 
z
M 9.8125 72.90625 
L 32.078125 72.90625 
Q 44.34375 72.90625 50.609375 67.359375 
Q 56.890625 61.8125 56.890625 51.125 
Q 56.890625 40.328125 50.609375 34.8125 
Q 44.34375 29.296875 32.078125 29.296875 
L 19.671875 29.296875 
L 19.671875 0 
L 9.8125 0 
z
" id="DejaVuSans-50"/>
     <path d="M 54.890625 33.015625 
L 54.890625 0 
L 45.90625 0 
L 45.90625 32.71875 
Q 45.90625 40.484375 42.875 44.328125 
Q 39.84375 48.1875 33.796875 48.1875 
Q 26.515625 48.1875 22.3125 43.546875 
Q 18.109375 38.921875 18.109375 30.90625 
L 18.109375 0 
L 9.078125 0 
L 9.078125 75.984375 
L 18.109375 75.984375 
L 18.109375 46.1875 
Q 21.34375 51.125 25.703125 53.5625 
Q 30.078125 56 35.796875 56 
Q 45.21875 56 50.046875 50.171875 
Q 54.890625 44.34375 54.890625 33.015625 
z
" id="DejaVuSans-68"/>
     <path d="M 2.984375 54.6875 
L 12.5 54.6875 
L 29.59375 8.796875 
L 46.6875 54.6875 
L 56.203125 54.6875 
L 35.6875 0 
L 23.484375 0 
z
" id="DejaVuSans-76"/>
     <path d="M 64.40625 67.28125 
L 64.40625 56.890625 
Q 59.421875 61.53125 53.78125 63.8125 
Q 48.140625 66.109375 41.796875 66.109375 
Q 29.296875 66.109375 22.65625 58.46875 
Q 16.015625 50.828125 16.015625 36.375 
Q 16.015625 21.96875 22.65625 14.328125 
Q 29.296875 6.6875 41.796875 6.6875 
Q 48.140625 6.6875 53.78125 8.984375 
Q 59.421875 11.28125 64.40625 15.921875 
L 64.40625 5.609375 
Q 59.234375 2.09375 53.4375 0.328125 
Q 47.65625 -1.421875 41.21875 -1.421875 
Q 24.65625 -1.421875 15.125 8.703125 
Q 5.609375 18.84375 5.609375 36.375 
Q 5.609375 53.953125 15.125 64.078125 
Q 24.65625 74.21875 41.21875 74.21875 
Q 47.75 74.21875 53.53125 72.484375 
Q 59.328125 70.75 64.40625 67.28125 
z
" id="DejaVuSans-43"/>
     <path d="M 44.28125 53.078125 
L 44.28125 44.578125 
Q 40.484375 46.53125 36.375 47.5 
Q 32.28125 48.484375 27.875 48.484375 
Q 21.1875 48.484375 17.84375 46.4375 
Q 14.5 44.390625 14.5 40.28125 
Q 14.5 37.15625 16.890625 35.375 
Q 19.28125 33.59375 26.515625 31.984375 
L 29.59375 31.296875 
Q 39.15625 29.25 43.1875 25.515625 
Q 47.21875 21.78125 47.21875 15.09375 
Q 47.21875 7.46875 41.1875 3.015625 
Q 35.15625 -1.421875 24.609375 -1.421875 
Q 20.21875 -1.421875 15.453125 -0.5625 
Q 10.6875 0.296875 5.421875 2 
L 5.421875 11.28125 
Q 10.40625 8.6875 15.234375 7.390625 
Q 20.0625 6.109375 24.8125 6.109375 
Q 31.15625 6.109375 34.5625 8.28125 
Q 37.984375 10.453125 37.984375 14.40625 
Q 37.984375 18.0625 35.515625 20.015625 
Q 33.0625 21.96875 24.703125 23.78125 
L 21.578125 24.515625 
Q 13.234375 26.265625 9.515625 29.90625 
Q 5.8125 33.546875 5.8125 39.890625 
Q 5.8125 47.609375 11.28125 51.796875 
Q 16.75 56 26.8125 56 
Q 31.78125 56 36.171875 55.265625 
Q 40.578125 54.546875 44.28125 53.078125 
z
" id="DejaVuSans-73"/>
     <path d="M 41.109375 46.296875 
Q 39.59375 47.171875 37.8125 47.578125 
Q 36.03125 48 33.890625 48 
Q 26.265625 48 22.1875 43.046875 
Q 18.109375 38.09375 18.109375 28.8125 
L 18.109375 0 
L 9.078125 0 
L 9.078125 54.6875 
L 18.109375 54.6875 
L 18.109375 46.1875 
Q 20.953125 51.171875 25.484375 53.578125 
Q 30.03125 56 36.53125 56 
Q 37.453125 56 38.578125 55.875 
Q 39.703125 55.765625 41.0625 55.515625 
z
" id="DejaVuSans-72"/>
     <path d="M 56.203125 29.59375 
L 56.203125 25.203125 
L 14.890625 25.203125 
Q 15.484375 15.921875 20.484375 11.0625 
Q 25.484375 6.203125 34.421875 6.203125 
Q 39.59375 6.203125 44.453125 7.46875 
Q 49.3125 8.734375 54.109375 11.28125 
L 54.109375 2.78125 
Q 49.265625 0.734375 44.1875 -0.34375 
Q 39.109375 -1.421875 33.890625 -1.421875 
Q 20.796875 -1.421875 13.15625 6.1875 
Q 5.515625 13.8125 5.515625 26.8125 
Q 5.515625 40.234375 12.765625 48.109375 
Q 20.015625 56 32.328125 56 
Q 43.359375 56 49.78125 48.890625 
Q 56.203125 41.796875 56.203125 29.59375 
z
M 47.21875 32.234375 
Q 47.125 39.59375 43.09375 43.984375 
Q 39.0625 48.390625 32.421875 48.390625 
Q 24.90625 48.390625 20.390625 44.140625 
Q 15.875 39.890625 15.1875 32.171875 
z
" id="DejaVuSans-65"/>
     <path d="M 45.40625 46.390625 
L 45.40625 75.984375 
L 54.390625 75.984375 
L 54.390625 0 
L 45.40625 0 
L 45.40625 8.203125 
Q 42.578125 3.328125 38.25 0.953125 
Q 33.9375 -1.421875 27.875 -1.421875 
Q 17.96875 -1.421875 11.734375 6.484375 
Q 5.515625 14.40625 5.515625 27.296875 
Q 5.515625 40.1875 11.734375 48.09375 
Q 17.96875 56 27.875 56 
Q 33.9375 56 38.25 53.625 
Q 42.578125 51.265625 45.40625 46.390625 
z
M 14.796875 27.296875 
Q 14.796875 17.390625 18.875 11.75 
Q 22.953125 6.109375 30.078125 6.109375 
Q 37.203125 6.109375 41.296875 11.75 
Q 45.40625 17.390625 45.40625 27.296875 
Q 45.40625 37.203125 41.296875 42.84375 
Q 37.203125 48.484375 30.078125 48.484375 
Q 22.953125 48.484375 18.875 42.84375 
Q 14.796875 37.203125 14.796875 27.296875 
z
" id="DejaVuSans-64"/>
     <path d="M 9.8125 72.90625 
L 19.671875 72.90625 
L 19.671875 8.296875 
L 55.171875 8.296875 
L 55.171875 0 
L 9.8125 0 
z
" id="DejaVuSans-4c"/>
    </defs>
    <g transform="translate(54.475 11.114646)scale(0.14 -0.14)">
     <use xlink:href="#DejaVuSans-53"/>
     <use x="63.476562" xlink:href="#DejaVuSans-69"/>
     <use x="91.259766" xlink:href="#DejaVuSans-6d"/>
     <use x="188.671875" xlink:href="#DejaVuSans-75"/>
     <use x="252.050781" xlink:href="#DejaVuSans-6c"/>
     <use x="279.833984" xlink:href="#DejaVuSans-61"/>
     <use x="341.113281" xlink:href="#DejaVuSans-74"/>
     <use x="380.322266" xlink:href="#DejaVuSans-69"/>
     <use x="408.105469" xlink:href="#DejaVuSans-6f"/>
     <use x="469.287109" xlink:href="#DejaVuSans-6e"/>
     <use x="532.666016" xlink:href="#DejaVuSans-20"/>
     <use x="564.453125" xlink:href="#DejaVuSans-32"/>
     <use x="628.076172" xlink:href="#DejaVuSans-3a"/>
     <use x="661.767578" xlink:href="#DejaVuSans-20"/>
     <use x="693.554688" xlink:href="#DejaVuSans-53"/>
     <use x="757.03125" xlink:href="#DejaVuSans-6f"/>
     <use x="818.212891" xlink:href="#DejaVuSans-6c"/>
     <use x="845.996094" xlink:href="#DejaVuSans-75"/>
     <use x="909.375" xlink:href="#DejaVuSans-74"/>
     <use x="948.583984" xlink:href="#DejaVuSans-69"/>
     <use x="976.367188" xlink:href="#DejaVuSans-6f"/>
     <use x="1037.548828" xlink:href="#DejaVuSans-6e"/>
     <use x="1100.927734" xlink:href="#DejaVuSans-20"/>
     <use x="1132.714844" xlink:href="#DejaVuSans-50"/>
     <use x="1192.955078" xlink:href="#DejaVuSans-61"/>
     <use x="1254.234375" xlink:href="#DejaVuSans-74"/>
     <use x="1293.443359" xlink:href="#DejaVuSans-68"/>
     <use x="1356.822266" xlink:href="#DejaVuSans-20"/>
     <use x="1388.609375" xlink:href="#DejaVuSans-76"/>
     <use x="1447.789062" xlink:href="#DejaVuSans-69"/>
     <use x="1475.572266" xlink:href="#DejaVuSans-61"/>
     <use x="1536.851562" xlink:href="#DejaVuSans-20"/>
     <use x="1568.638672" xlink:href="#DejaVuSans-43"/>
     <use x="1638.462891" xlink:href="#DejaVuSans-6f"/>
     <use x="1699.644531" xlink:href="#DejaVuSans-6e"/>
     <use x="1763.023438" xlink:href="#DejaVuSans-73"/>
     <use x="1815.123047" xlink:href="#DejaVuSans-74"/>
     <use x="1854.332031" xlink:href="#DejaVuSans-72"/>
     <use x="1895.445312" xlink:href="#DejaVuSans-61"/>
     <use x="1956.724609" xlink:href="#DejaVuSans-69"/>
     <use x="1984.507812" xlink:href="#DejaVuSans-6e"/>
     <use x="2047.886719" xlink:href="#DejaVuSans-65"/>
     <use x="2109.410156" xlink:href="#DejaVuSans-64"/>
     <use x="2172.886719" xlink:href="#DejaVuSans-20"/>
     <use x="2204.673828" xlink:href="#DejaVuSans-4c"/>
     <use x="2260.386719" xlink:href="#DejaVuSans-61"/>
     <use x="2321.666016" xlink:href="#DejaVuSans-73"/>
     <use x="2373.765625" xlink:href="#DejaVuSans-73"/>
     <use x="2425.865234" xlink:href="#DejaVuSans-6f"/>
    </g>
   </g>
   <g id="line2d_24">
    <path clip-path="url(#p0155a44bd3)" d="M 429.165354 249.761874 
L 157.522348 249.761874 
L 138.44387 233.730042 
L 129.512773 226.605519 
L 115.710839 215.752196 
L 47.508054 168.595077 
L 32.29261 156.483364 
L 31.49959 156.18919 
L 30.882685 156.119602 
L 29.905336 155.28313 
L 29.326156 154.27508 
L 28.748127 152.494453 
L 28.145969 148.601872 
L 28.03725 147.137005 
L 28.006486 148.268909 
L 27.988139 148.13766 
L 27.988139 148.13766 
L 27.988139 148.13766 
L 27.964646 148.563671 
L 27.964646 148.563671 
" style="fill:none;stroke:#c371d2;stroke-linecap:round;stroke-width:0.5;"/>
   </g>
   <g id="line2d_25">
    <path clip-path="url(#p0155a44bd3)" d="M 429.165354 249.761874 
L 142.556759 249.761874 
L 138.44387 246.233788 
L 125.380135 234.32239 
L 115.710839 225.54482 
L 47.508054 155.788952 
L 40.789972 149.473949 
L 37.652187 146.243889 
L 34.948789 143.191784 
L 33.484793 141.827625 
L 32.516244 140.907138 
L 32.29261 140.81304 
L 29.326156 138.754258 
L 29.058721 138.226225 
L 28.167801 134.676103 
L 28.145969 134.710477 
L 28.036235 133.456384 
L 27.964646 132.427064 
L 27.964646 132.427064 
" style="fill:none;stroke:#ac8e18;stroke-linecap:round;stroke-width:0.5;"/>
   </g>
   <g id="line2d_26">
    <path clip-path="url(#p0155a44bd3)" d="M 429.165354 249.761874 
L 157.857268 249.761874 
L 157.522348 249.512557 
L 139.672855 231.43189 
L 115.710839 205.035579 
L 47.508054 126.99502 
L 43.489891 123.462384 
L 40.789972 121.195757 
L 37.652187 118.683077 
L 34.948789 116.518401 
L 31.49959 114.032169 
L 30.882685 114.088669 
L 29.905336 112.998442 
L 29.153309 111.397558 
L 28.987559 111.39842 
L 28.854638 111.481728 
L 28.468383 110.875078 
L 28.03725 106.402306 
L 27.966365 104.414359 
L 27.964646 104.465632 
" style="fill:none;stroke:#00aaae;stroke-linecap:round;stroke-width:0.5;"/>
   </g>
   <g id="line2d_27">
    <path clip-path="url(#p0155a44bd3)" d="M 429.165354 249.761874 
L 244.389084 249.761874 
L 243.189046 249.079706 
L 221.485469 232.258122 
L 214.790569 226.351604 
L 156.720254 176.846164 
L 142.556759 162.86383 
L 139.672855 160.438804 
L 125.380135 151.976101 
L 115.710839 146.293115 
L 47.508054 107.067045 
L 43.489891 103.278545 
L 38.415127 98.917014 
L 37.652187 98.18873 
L 33.484793 94.759441 
L 32.733118 94.433493 
L 32.29261 93.808945 
L 30.882685 93.01393 
L 29.698448 92.503475 
L 29.326156 92.181963 
L 28.748127 90.427653 
L 28.567175 89.601428 
L 28.468383 89.724423 
L 28.03725 86.742505 
L 27.964646 87.048346 
" style="fill:none;stroke:#ed5e93;stroke-linecap:round;stroke-width:0.5;"/>
   </g>
   <g id="line2d_28">
    <path clip-path="url(#p0155a44bd3)" d="M 429.165354 249.761874 
L 221.485469 249.761874 
L 196.708093 228.034546 
L 157.522348 193.651326 
L 125.380135 154.690115 
L 115.710839 143.109995 
L 47.508054 71.90187 
L 43.489891 68.389375 
L 33.484793 60.405194 
L 32.516244 59.193997 
L 32.29261 58.803182 
L 30.882685 56.896335 
L 29.905336 55.06175 
L 28.854638 51.011049 
L 28.468383 48.24198 
L 28.167801 44.393627 
L 28.110338 44.358179 
L 28.068165 44.425305 
L 28.03725 44.849298 
L 27.964646 49.022994 
L 27.964646 49.022994 
" style="fill:none;stroke:#c68225;stroke-linecap:round;stroke-width:0.5;"/>
   </g>
   <g id="line2d_29">
    <path clip-path="url(#p0155a44bd3)" d="M 429.165354 249.761874 
L 243.189046 249.761874 
L 219.928795 233.146621 
L 208.351431 224.193271 
L 156.720254 184.314091 
L 142.556759 170.57462 
L 138.44387 165.973216 
L 133.7452 160.933373 
L 115.710839 142.28016 
L 47.508054 69.764791 
L 43.489891 64.888852 
L 40.789972 61.859466 
L 35.347767 55.162429 
L 34.948789 54.720911 
L 31.533731 50.482305 
L 30.99792 50.007273 
L 30.882685 49.903389 
L 29.905336 48.465792 
L 29.058721 45.977813 
L 28.03725 39.65151 
L 27.964646 41.625273 
L 27.964646 41.625273 
" style="fill:none;stroke:#00a98d;stroke-linecap:round;stroke-width:0.5;"/>
   </g>
   <g id="line2d_30">
    <path clip-path="url(#p0155a44bd3)" d="M 429.165354 249.617171 
L 348.666054 202.446546 
L 279.143933 161.599298 
L 243.189046 138.6862 
L 219.928795 120.901656 
L 214.790569 117.377398 
L 155.233165 78.199444 
L 140.632238 69.127437 
L 139.672855 68.572186 
L 133.7452 65.963307 
L 115.710839 57.391144 
L 47.508054 28.307273 
L 43.489891 25.477399 
L 38.415127 21.824826 
L 37.652187 21.417845 
L 32.516244 19.085279 
L 32.29261 19.032599 
L 31.49959 18.939582 
L 30.882685 19.072302 
L 29.905336 19.122092 
L 29.153309 18.808789 
L 28.907441 18.855072 
L 28.575457 19.490375 
L 28.167801 21.857391 
L 28.145969 21.824396 
L 28.110338 21.809677 
L 28.03725 21.29952 
L 27.964646 17.114646 
L 27.964646 17.114646 
" style="fill:none;stroke:#8e971e;stroke-linecap:round;stroke-width:0.5;"/>
   </g>
   <g id="line2d_31">
    <path clip-path="url(#p0155a44bd3)" d="M 429.165354 249.761874 
L 27.964646 249.761874 
L 27.964646 249.761874 
" style="fill:none;stroke:#00a9cc;stroke-linecap:round;stroke-width:0.5;"/>
   </g>
   <g id="line2d_32">
    <path clip-path="url(#p0155a44bd3)" d="M 429.165354 249.761874 
L 27.964646 249.761874 
L 27.964646 249.761874 
" style="fill:none;stroke:#9b7fe9;stroke-linecap:round;stroke-width:0.5;"/>
   </g>
   <g id="line2d_33">
    <path clip-path="url(#p0155a44bd3)" d="M 429.165354 249.761874 
L 27.964646 249.761874 
L 27.964646 249.761874 
" style="fill:none;stroke:#618df6;stroke-linecap:round;stroke-width:0.5;"/>
   </g>
   <g id="line2d_34">
    <path clip-path="url(#p0155a44bd3)" d="M 429.165354 249.761874 
L 27.964646 249.761874 
L 27.964646 249.761874 
" style="fill:none;stroke:#f06073;stroke-linecap:round;stroke-width:0.5;"/>
   </g>
   <g id="line2d_35">
    <path clip-path="url(#p0155a44bd3)" d="M 429.165354 249.761874 
L 27.964646 249.761874 
L 27.964646 249.761874 
" style="fill:none;stroke:#dd65b6;stroke-linecap:round;stroke-width:0.5;"/>
   </g>
   <g id="line2d_36">
    <path clip-path="url(#p0155a44bd3)" d="M 429.165354 249.761874 
L 38.415127 249.761874 
L 33.484793 246.539638 
L 32.29261 245.937769 
L 31.49959 246.099475 
L 30.882685 246.479043 
L 29.698448 246.726818 
L 28.907441 247.174714 
L 28.567175 248.256439 
L 28.379634 249.761874 
L 27.964646 249.761874 
L 27.964646 249.761874 
" style="fill:none;stroke:#6c9f33;stroke-linecap:round;stroke-width:0.5;"/>
   </g>
   <g id="line2d_37">
    <path clip-path="url(#p0155a44bd3)" d="M 429.165354 249.761874 
L 33.484793 249.761874 
L 32.29261 248.96426 
L 30.882685 247.094189 
L 29.905336 246.711605 
L 29.326156 247.160193 
L 28.987559 247.571971 
L 28.907441 247.579442 
L 28.567175 246.125299 
L 28.068165 241.628597 
L 27.964646 238.043531 
L 27.964646 238.043531 
" style="fill:none;stroke:#718c6a;stroke-linecap:round;stroke-width:0.5;"/>
   </g>
   <g id="line2d_38">
    <path clip-path="url(#p0155a44bd3)" d="M 429.165354 249.761874 
L 27.964646 249.761874 
L 27.964646 249.761874 
" style="fill:none;stroke:#47998c;stroke-linecap:round;stroke-width:0.5;"/>
   </g>
   <g id="line2d_39">
    <path clip-path="url(#p0155a44bd3)" d="M 429.165354 249.761874 
L 31.49959 249.741813 
L 29.905336 248.818713 
L 28.748127 248.22132 
L 28.672732 248.244971 
L 28.383647 247.843496 
L 28.379634 247.857399 
L 28.110338 248.103286 
L 27.988139 247.136108 
L 27.964646 246.559164 
L 27.964646 246.559164 
" style="fill:none;stroke:#1fa68d;stroke-linecap:round;stroke-width:0.5;"/>
   </g>
   <g id="line2d_40">
    <path clip-path="url(#p0155a44bd3)" d="M 429.165354 249.761874 
L 30.882685 249.761874 
L 29.905336 246.620923 
L 28.672732 240.078091 
L 28.586963 239.954414 
L 28.567175 240.014724 
L 28.468383 240.316641 
L 28.379634 240.253961 
L 28.110338 239.205301 
L 28.03725 238.182692 
L 27.966365 238.456143 
L 27.964646 238.547003 
L 27.964646 238.547003 
" style="fill:none;stroke:#af78dd;stroke-linecap:round;stroke-width:0.5;"/>
   </g>
   <g id="line2d_41">
    <path clip-path="url(#p0155a44bd3)" d="M 429.165354 249.761874 
L 29.378735 249.761874 
L 28.854638 248.78264 
L 28.383647 248.317157 
L 28.145969 247.39385 
L 27.964646 244.354067 
L 27.964646 244.354067 
" style="fill:none;stroke:#878d87;stroke-linecap:round;stroke-width:0.5;"/>
   </g>
   <g id="line2d_42">
    <path clip-path="url(#p0155a44bd3)" d="M 429.165354 249.761874 
L 217.296605 249.761874 
L 142.556759 240.946736 
L 138.44387 241.233784 
L 125.380135 241.677951 
L 115.710839 241.973013 
L 47.508054 246.828901 
L 40.789972 247.906537 
L 37.652187 248.876125 
L 34.948789 249.393821 
L 33.484793 249.402421 
L 32.29261 248.958147 
L 31.49959 248.331165 
L 30.882685 247.552628 
L 29.698448 246.399148 
L 29.326156 246.249233 
L 28.854638 246.335848 
L 28.567175 245.735133 
L 28.145969 244.086523 
L 28.110338 244.017773 
L 28.110338 244.017773 
L 28.110338 244.017773 
L 28.03725 244.42898 
L 27.964646 245.897008 
L 27.964646 245.897008 
" style="fill:none;stroke:#47a166;stroke-linecap:round;stroke-width:0.5;"/>
   </g>
   <g id="line2d_43">
    <path clip-path="url(#p0155a44bd3)" d="M 429.165354 249.761874 
L 28.468383 249.761874 
L 28.22961 247.544811 
L 28.110338 247.090785 
L 27.971925 251.184063 
L 27.964646 251.666243 
L 27.964646 251.666243 
" style="fill:none;stroke:#7783af;stroke-linecap:round;stroke-width:0.5;"/>
   </g>
   <g id="line2d_44">
    <path clip-path="url(#p0155a44bd3)" d="M 429.165354 249.761874 
L 27.964646 249.761874 
L 27.964646 249.761874 
" style="fill:none;stroke:#b18187;stroke-linecap:round;stroke-width:0.5;"/>
   </g>
   <g id="line2d_45">
    <path clip-path="url(#p0155a44bd3)" d="M 429.165354 249.761874 
L 27.964646 249.761874 
L 27.964646 249.761874 
" style="fill:none;stroke:#309bc2;stroke-linecap:round;stroke-width:0.5;"/>
   </g>
   <g id="line2d_46">
    <path clip-path="url(#p0155a44bd3)" d="M 429.165354 249.761874 
L 27.964646 249.761874 
L 27.964646 249.761874 
" style="fill:none;stroke:#788590;stroke-linecap:round;stroke-width:0.5;"/>
   </g>
   <g id="line2d_47">
    <path clip-path="url(#p0155a44bd3)" d="M 429.165354 249.761874 
L 27.964646 249.761874 
L 27.964646 249.761874 
" style="fill:none;stroke:#e561a4;stroke-linecap:round;stroke-width:0.5;"/>
   </g>
   <g id="line2d_48">
    <path clip-path="url(#p0155a44bd3)" d="M 429.165354 249.761874 
L 32.733118 249.756209 
L 32.29261 248.951359 
L 29.905336 245.384639 
L 29.015337 242.323958 
L 28.379634 237.867389 
L 28.167801 236.49522 
L 28.110338 236.588422 
L 28.03725 236.70578 
L 27.964646 238.193608 
L 27.964646 238.193608 
" style="fill:none;stroke:#99902c;stroke-linecap:round;stroke-width:0.5;"/>
   </g>
   <g id="line2d_49">
    <path clip-path="url(#p0155a44bd3)" d="M 429.165354 249.761874 
L 27.964646 249.761874 
L 27.964646 249.761874 
" style="fill:none;stroke:#399b7b;stroke-linecap:round;stroke-width:0.5;"/>
   </g>
   <g id="line2d_50">
    <path clip-path="url(#p0155a44bd3)" d="M 429.165354 249.761874 
L 27.964646 249.761874 
L 27.964646 249.761874 
" style="fill:none;stroke:#da68a3;stroke-linecap:round;stroke-width:0.5;"/>
   </g>
   <g id="line2d_51">
    <path clip-path="url(#p0155a44bd3)" d="M 429.165354 249.761874 
L 29.326156 249.761874 
L 28.748127 247.33954 
L 28.22961 245.268453 
L 28.110338 245.852729 
L 28.03725 246.145282 
L 27.964646 249.761874 
L 27.964646 249.761874 
" style="fill:none;stroke:#009afa;stroke-linecap:round;stroke-width:0.5;"/>
   </g>
   <g id="line2d_52">
    <path clip-path="url(#p0155a44bd3)" d="M 429.165354 249.761874 
L 27.964646 249.761874 
L 27.964646 249.761874 
" style="fill:none;stroke:#e36f47;stroke-linecap:round;stroke-width:0.5;"/>
   </g>
   <g id="line2d_53">
    <path clip-path="url(#p0155a44bd3)" d="M 429.165354 249.761874 
L 27.964646 249.761874 
L 27.964646 249.761874 
" style="fill:none;stroke:#3ea44e;stroke-linecap:round;stroke-width:0.5;"/>
   </g>
   <g id="line2d_54">
    <path clip-path="url(#p0155a44bd3)" d="M 429.165354 249.761874 
L 32.358824 249.761874 
L 28.907441 242.824475 
L 28.468383 239.872663 
L 28.029781 232.991846 
L 27.964646 230.387054 
L 27.964646 230.387054 
" style="fill:none;stroke:#c371d2;stroke-linecap:round;stroke-width:0.5;"/>
   </g>
   <g id="line2d_55">
    <path clip-path="url(#p0155a44bd3)" d="M 429.165354 249.761874 
L 348.666054 249.761874 
L 281.366003 249.761874 
L 244.389084 225.299701 
L 243.189046 224.702082 
L 221.485469 220.288626 
L 213.674105 219.661654 
L 157.522348 214.43205 
L 140.632238 222.953878 
L 139.672855 223.39847 
L 129.512773 226.8309 
L 115.710839 231.394528 
L 47.508054 241.126202 
L 44.857417 242.190206 
L 38.415127 245.453478 
L 37.652187 245.99126 
L 32.733118 249.19556 
L 32.29261 249.761874 
L 28.854638 249.761874 
L 28.468383 252.412063 
L 28.03725 258.685354 
L 27.964646 254.461406 
L 27.964646 254.461406 
" style="fill:none;stroke:#ac8e18;stroke-linecap:round;stroke-width:0.5;"/>
   </g>
   <g id="line2d_56">
    <path clip-path="url(#p0155a44bd3)" d="M 429.165354 249.761874 
L 28.03725 249.761874 
L 27.964646 243.583293 
L 27.964646 243.583293 
" style="fill:none;stroke:#00aaae;stroke-linecap:round;stroke-width:0.5;"/>
   </g>
   <g id="line2d_57">
    <path clip-path="url(#p0155a44bd3)" d="M 429.165354 249.761874 
L 33.657067 249.761874 
L 32.516244 248.876014 
L 32.29261 248.787574 
L 30.882685 248.717728 
L 29.905336 248.315692 
L 29.153309 247.572635 
L 29.015337 247.557454 
L 28.854638 247.474241 
L 28.468383 248.185058 
L 28.17734 249.525365 
L 28.167801 249.525885 
L 28.036235 249.761874 
L 27.964646 249.761874 
L 27.964646 249.761874 
" style="fill:none;stroke:#ed5e93;stroke-linecap:round;stroke-width:0.5;"/>
   </g>
   <g id="line2d_58">
    <path clip-path="url(#p0155a44bd3)" d="M 429.165354 249.761874 
L 28.907441 249.761874 
L 28.672732 248.220454 
L 28.110338 243.148202 
L 27.964646 240.32822 
L 27.964646 240.32822 
" style="fill:none;stroke:#c68225;stroke-linecap:round;stroke-width:0.5;"/>
   </g>
   <g id="line2d_59">
    <path clip-path="url(#p0155a44bd3)" d="M 429.165354 249.761874 
L 35.347767 249.761874 
L 33.484793 248.814741 
L 32.516244 248.154402 
L 32.29261 247.929067 
L 30.882685 246.273777 
L 29.326156 245.383295 
L 28.955215 245.67524 
L 28.854638 245.582265 
L 28.580138 245.186806 
L 28.567175 245.223736 
L 28.167801 246.490649 
L 28.110338 246.79395 
L 28.068165 246.545299 
L 28.03725 246.314567 
L 28.006486 246.50919 
L 28.006486 246.50919 
L 27.988139 246.629833 
L 27.988139 246.629833 
L 27.988139 246.629833 
L 27.964646 245.92713 
L 27.964646 245.92713 
" style="fill:none;stroke:#00a98d;stroke-linecap:round;stroke-width:0.5;"/>
   </g>
   <g id="line2d_60">
    <path clip-path="url(#p0155a44bd3)" d="M 429.165354 249.761874 
L 28.167801 249.68699 
L 27.988139 248.312601 
L 27.964646 248.644852 
" style="fill:none;stroke:#8e971e;stroke-linecap:round;stroke-width:0.5;"/>
   </g>
   <g id="line2d_61">
    <path clip-path="url(#p0155a44bd3)" d="M 429.165354 249.761874 
L 27.964646 249.761874 
L 27.964646 249.761874 
" style="fill:none;stroke:#00a9cc;stroke-linecap:round;stroke-width:0.5;"/>
   </g>
   <g id="line2d_62">
    <path clip-path="url(#p0155a44bd3)" d="M 429.165354 249.761874 
L 34.948789 249.761874 
L 32.733118 248.390548 
L 30.882685 247.633799 
L 29.698448 247.355956 
L 29.058721 246.908123 
L 28.854638 246.383609 
L 28.070098 242.09928 
L 28.036235 240.056372 
L 27.964646 237.030061 
L 27.964646 237.030061 
" style="fill:none;stroke:#9b7fe9;stroke-linecap:round;stroke-width:0.5;"/>
   </g>
   <g id="line2d_63">
    <path clip-path="url(#p0155a44bd3)" d="M 429.165354 249.761874 
L 37.652187 249.756204 
L 34.948789 249.075858 
L 33.484793 248.842549 
L 30.882685 247.794799 
L 29.698448 247.351171 
L 29.153309 247.082406 
L 29.015337 247.007597 
L 28.468383 245.58012 
L 28.233465 244.780131 
L 28.22961 244.773912 
L 28.068165 243.007929 
L 27.964646 240.097628 
L 27.964646 240.097628 
" style="fill:none;stroke:#618df6;stroke-linecap:round;stroke-width:0.5;"/>
   </g>
   <g id="line2d_64">
    <path clip-path="url(#p0155a44bd3)" d="M 429.165354 249.761874 
L 27.964646 249.761874 
L 27.964646 249.761874 
" style="fill:none;stroke:#f06073;stroke-linecap:round;stroke-width:0.5;"/>
   </g>
   <g id="line2d_65">
    <path clip-path="url(#p0155a44bd3)" d="M 429.165354 249.761874 
L 28.575457 249.694949 
L 28.468383 249.325548 
L 27.988139 247.118529 
L 27.966365 247.247999 
L 27.964646 247.402638 
L 27.964646 247.402638 
" style="fill:none;stroke:#dd65b6;stroke-linecap:round;stroke-width:0.5;"/>
   </g>
   <g id="line2d_66">
    <path clip-path="url(#p0155a44bd3)" d="M 429.165354 249.761874 
L 28.03725 249.748931 
L 27.964646 247.415867 
L 27.964646 247.415867 
" style="fill:none;stroke:#6c9f33;stroke-linecap:round;stroke-width:0.5;"/>
   </g>
   <g id="line2d_67">
    <path clip-path="url(#p0155a44bd3)" d="M 429.165354 249.761874 
L 37.652187 249.761874 
L 33.484793 248.393775 
L 32.733118 248.297743 
L 32.29261 247.991887 
L 30.882685 246.544656 
L 29.905336 246.547849 
L 29.326156 247.210526 
L 28.907441 247.237377 
L 28.748127 247.099505 
L 28.593495 246.893482 
L 28.22961 245.981999 
L 28.17734 246.086554 
L 28.068165 246.756323 
L 28.019329 247.502895 
L 27.966365 248.083356 
L 27.964646 247.993662 
" style="fill:none;stroke:#718c6a;stroke-linecap:round;stroke-width:0.5;"/>
   </g>
   <g id="line2d_68">
    <path clip-path="url(#p0155a44bd3)" d="M 429.165354 249.761874 
L 28.22961 249.761874 
L 28.110338 248.354696 
L 27.964646 244.869262 
L 27.964646 244.869262 
" style="fill:none;stroke:#47998c;stroke-linecap:round;stroke-width:0.5;"/>
   </g>
   <g id="line2d_69">
    <path clip-path="url(#p0155a44bd3)" d="M 429.165354 249.761874 
L 32.733118 249.761874 
L 32.29261 249.449589 
L 29.698448 248.377963 
L 29.153309 248.377496 
L 28.854638 248.416689 
L 28.468383 247.924338 
L 28.379634 248.014418 
L 28.167801 248.355925 
L 28.068165 247.414704 
L 27.964646 245.742152 
L 27.964646 245.742152 
" style="fill:none;stroke:#1fa68d;stroke-linecap:round;stroke-width:0.5;"/>
   </g>
   <g id="line2d_70">
    <path clip-path="url(#p0155a44bd3)" d="M 429.165354 249.761874 
L 27.964646 249.761874 
L 27.964646 249.761874 
" style="fill:none;stroke:#af78dd;stroke-linecap:round;stroke-width:0.5;"/>
   </g>
   <g id="line2d_71">
    <path clip-path="url(#p0155a44bd3)" d="M 429.165354 249.761874 
L 27.964646 249.761874 
L 27.964646 249.761874 
" style="fill:none;stroke:#878d87;stroke-linecap:round;stroke-width:0.5;"/>
   </g>
   <g id="line2d_72">
    <path clip-path="url(#p0155a44bd3)" d="M 429.165354 249.761874 
L 27.964646 249.761874 
L 27.964646 249.761874 
" style="fill:none;stroke:#47a166;stroke-linecap:round;stroke-width:0.5;"/>
   </g>
   <g id="line2d_73">
    <path clip-path="url(#p0155a44bd3)" d="M 429.165354 249.761874 
L 28.955215 249.678756 
L 28.748127 249.501758 
L 28.586963 249.270038 
L 28.468383 248.935358 
L 28.167801 248.345505 
L 28.145969 248.392295 
L 28.110338 248.452324 
L 27.964646 249.202463 
L 27.964646 249.202463 
" style="fill:none;stroke:#7783af;stroke-linecap:round;stroke-width:0.5;"/>
   </g>
   <g id="line2d_74">
    <path clip-path="url(#p0155a44bd3)" d="M 429.165354 249.761874 
L 28.672732 249.661471 
L 28.580138 249.63846 
L 28.575457 249.680512 
L 28.468383 249.761874 
L 27.971925 249.733328 
L 27.964646 249.521005 
L 27.964646 249.521005 
" style="fill:none;stroke:#b18187;stroke-linecap:round;stroke-width:0.5;"/>
   </g>
   <g id="line2d_75">
    <path clip-path="url(#p0155a44bd3)" d="M 429.165354 249.761874 
L 29.153309 249.761874 
L 29.058721 249.419165 
L 29.015337 249.566733 
L 28.854638 249.761874 
L 28.110338 249.761874 
L 28.03725 251.823903 
L 28.006486 249.761874 
L 27.964646 249.761874 
L 27.964646 249.761874 
" style="fill:none;stroke:#309bc2;stroke-linecap:round;stroke-width:0.5;"/>
   </g>
   <g id="line2d_76">
    <path clip-path="url(#p0155a44bd3)" d="M 429.165354 249.761874 
L 33.484793 249.752892 
L 32.516244 249.059494 
L 30.99792 247.134809 
L 29.698448 244.806542 
L 28.987559 243.261058 
L 28.748127 242.570562 
L 28.567175 242.014006 
L 28.110338 237.917286 
L 28.068165 238.066953 
L 28.036235 239.335418 
L 27.964646 241.381103 
L 27.964646 241.381103 
" style="fill:none;stroke:#788590;stroke-linecap:round;stroke-width:0.5;"/>
   </g>
   <g id="line2d_77">
    <path clip-path="url(#p0155a44bd3)" d="M 429.165354 249.761874 
L 27.964646 249.761874 
L 27.964646 249.761874 
" style="fill:none;stroke:#e561a4;stroke-linecap:round;stroke-width:0.5;"/>
   </g>
   <g id="line2d_78">
    <path clip-path="url(#p0155a44bd3)" d="M 429.165354 249.761874 
L 133.7452 249.659806 
L 115.710839 247.111938 
L 44.857417 245.510598 
L 40.789972 244.54042 
L 33.484793 243.479064 
L 31.49959 242.659274 
L 30.882685 242.284357 
L 29.378735 242.760654 
L 29.326156 242.806895 
L 28.575457 244.334099 
L 28.567175 244.328282 
L 28.468383 244.018898 
L 28.145969 244.776552 
L 28.110338 244.618916 
L 28.110338 244.618916 
L 28.110338 244.618916 
L 28.03725 245.081606 
L 27.964646 242.229052 
L 27.964646 242.229052 
" style="fill:none;stroke:#99902c;stroke-linecap:round;stroke-width:0.5;"/>
   </g>
   <g id="line2d_79">
    <path clip-path="url(#p0155a44bd3)" d="M 429.165354 249.761874 
L 31.49959 249.761874 
L 30.882685 248.854938 
L 29.698448 246.419488 
L 29.153309 244.823884 
L 28.567175 241.927826 
L 28.22961 240.507739 
L 28.110338 240.633858 
L 28.03725 240.825953 
L 27.974526 241.640499 
L 27.964646 241.633507 
" style="fill:none;stroke:#399b7b;stroke-linecap:round;stroke-width:0.5;"/>
   </g>
   <g id="line2d_80">
    <path clip-path="url(#p0155a44bd3)" d="M 429.165354 249.761874 
L 27.964646 249.761874 
L 27.964646 249.761874 
" style="fill:none;stroke:#da68a3;stroke-linecap:round;stroke-width:0.5;"/>
   </g>
   <g id="line2d_81">
    <path clip-path="url(#p0155a44bd3)" d="M 429.165354 249.761874 
L 29.058721 249.761874 
L 28.22961 243.39705 
L 28.110338 242.855404 
L 27.966365 238.259955 
L 27.964646 238.017711 
L 27.964646 238.017711 
" style="fill:none;stroke:#009afa;stroke-linecap:round;stroke-width:0.5;"/>
   </g>
   <g id="line2d_82">
    <path clip-path="url(#p0155a44bd3)" d="M 429.165354 249.761874 
L 28.068165 249.747476 
L 28.03769 249.173926 
L 28.036833 249.630995 
L 28.036833 249.630995 
L 27.964646 249.761874 
L 27.964646 249.761874 
" style="fill:none;stroke:#e36f47;stroke-linecap:round;stroke-width:0.5;"/>
   </g>
   <g id="line2d_83">
    <path clip-path="url(#p0155a44bd3)" d="M 429.165354 249.761874 
L 27.964646 249.761874 
L 27.964646 249.761874 
" style="fill:none;stroke:#3ea44e;stroke-linecap:round;stroke-width:0.5;"/>
   </g>
   <g id="line2d_84">
    <path clip-path="url(#p0155a44bd3)" d="M 429.165354 249.761874 
L 44.857417 249.761874 
L 43.489891 248.56761 
L 37.652187 243.934461 
L 33.657067 241.794732 
L 32.733118 241.452072 
L 31.49959 240.477082 
L 30.882685 239.948089 
L 29.905336 239.923696 
L 28.962586 241.0631 
L 28.854638 241.12972 
L 28.567175 241.264727 
L 28.379634 240.327805 
L 28.167801 240.56226 
L 28.110338 240.211306 
L 28.068165 240.560244 
L 28.03725 240.618113 
L 27.964646 238.177191 
L 27.964646 238.177191 
" style="fill:none;stroke:#c371d2;stroke-linecap:round;stroke-width:0.5;"/>
   </g>
   <g id="line2d_85">
    <path clip-path="url(#p0155a44bd3)" d="M 429.165354 249.761874 
L 27.964646 249.761874 
L 27.964646 249.761874 
" style="fill:none;stroke:#ac8e18;stroke-linecap:round;stroke-width:0.5;"/>
   </g>
   <g id="line2d_86">
    <path clip-path="url(#p0155a44bd3)" d="M 429.165354 249.761874 
L 27.964646 249.761874 
L 27.964646 249.761874 
" style="fill:none;stroke:#00aaae;stroke-linecap:round;stroke-width:0.5;"/>
   </g>
   <g id="line2d_87">
    <path clip-path="url(#p0155a44bd3)" d="M 429.165354 249.761874 
L 27.964646 249.761874 
L 27.964646 249.761874 
" style="fill:none;stroke:#ed5e93;stroke-linecap:round;stroke-width:0.5;"/>
   </g>
   <g id="line2d_88">
    <path clip-path="url(#p0155a44bd3)" d="M 429.165354 249.761874 
L 27.964646 249.761874 
L 27.964646 249.761874 
" style="fill:none;stroke:#c68225;stroke-linecap:round;stroke-width:0.5;"/>
   </g>
   <g id="line2d_89">
    <path clip-path="url(#p0155a44bd3)" d="M 429.165354 249.761874 
L 27.966365 249.761874 
L 27.964646 249.539462 
L 27.964646 249.539462 
" style="fill:none;stroke:#00a98d;stroke-linecap:round;stroke-width:0.5;"/>
   </g>
   <g id="line2d_90">
    <path clip-path="url(#p0155a44bd3)" d="M 429.165354 249.761874 
L 27.964646 249.761874 
L 27.964646 249.761874 
" style="fill:none;stroke:#8e971e;stroke-linecap:round;stroke-width:0.5;"/>
   </g>
   <g id="line2d_91">
    <path clip-path="url(#p0155a44bd3)" d="M 429.165354 249.761874 
L 27.964646 249.761874 
L 27.964646 249.761874 
" style="fill:none;stroke:#00a9cc;stroke-linecap:round;stroke-width:0.5;"/>
   </g>
   <g id="line2d_92">
    <path clip-path="url(#p0155a44bd3)" d="M 429.165354 249.761874 
L 27.964646 249.761874 
L 27.964646 249.761874 
" style="fill:none;stroke:#9b7fe9;stroke-linecap:round;stroke-width:0.5;"/>
   </g>
   <g id="line2d_93">
    <path clip-path="url(#p0155a44bd3)" d="M 429.165354 249.761874 
L 29.905336 249.761874 
L 28.955215 246.382572 
L 28.580138 244.870253 
L 28.567175 244.893941 
L 28.03725 243.402027 
L 27.964646 238.86561 
L 27.964646 238.86561 
" style="fill:none;stroke:#618df6;stroke-linecap:round;stroke-width:0.5;"/>
   </g>
   <g id="line2d_94">
    <path clip-path="url(#p0155a44bd3)" d="M 429.165354 249.761874 
L 27.964646 249.761874 
L 27.964646 249.761874 
" style="fill:none;stroke:#f06073;stroke-linecap:round;stroke-width:0.5;"/>
   </g>
   <g id="line2d_95">
    <path clip-path="url(#p0155a44bd3)" d="M 429.165354 249.761874 
L 27.964646 249.761874 
L 27.964646 249.761874 
" style="fill:none;stroke:#dd65b6;stroke-linecap:round;stroke-width:0.5;"/>
   </g>
   <g id="line2d_96">
    <path clip-path="url(#p0155a44bd3)" d="M 429.165354 249.761874 
L 27.964646 249.761874 
L 27.964646 249.761874 
" style="fill:none;stroke:#6c9f33;stroke-linecap:round;stroke-width:0.5;"/>
   </g>
   <g id="line2d_97">
    <path clip-path="url(#p0155a44bd3)" d="M 429.165354 249.761874 
L 27.964646 249.761874 
L 27.964646 249.761874 
" style="fill:none;stroke:#718c6a;stroke-linecap:round;stroke-width:0.5;"/>
   </g>
   <g id="line2d_98">
    <path clip-path="url(#p0155a44bd3)" d="M 429.165354 249.761874 
L 27.964646 249.761874 
L 27.964646 249.761874 
" style="fill:none;stroke:#47998c;stroke-linecap:round;stroke-width:0.5;"/>
   </g>
   <g id="line2d_99">
    <path clip-path="url(#p0155a44bd3)" d="M 429.165354 249.761874 
L 27.964646 249.761874 
L 27.964646 249.761874 
" style="fill:none;stroke:#1fa68d;stroke-linecap:round;stroke-width:0.5;"/>
   </g>
   <g id="line2d_100">
    <path clip-path="url(#p0155a44bd3)" d="M 429.165354 249.761874 
L 27.964646 249.761874 
L 27.964646 249.761874 
" style="fill:none;stroke:#af78dd;stroke-linecap:round;stroke-width:0.5;"/>
   </g>
   <g id="line2d_101">
    <path clip-path="url(#p0155a44bd3)" d="M 429.165354 249.761874 
L 27.964646 249.761874 
L 27.964646 249.761874 
" style="fill:none;stroke:#878d87;stroke-linecap:round;stroke-width:0.5;"/>
   </g>
   <g id="line2d_102">
    <path clip-path="url(#p0155a44bd3)" d="M 429.165354 249.761874 
L 28.955215 249.733004 
L 28.748127 249.273132 
L 28.567175 248.903697 
L 28.110338 246.906998 
L 28.070098 246.973305 
L 28.068165 246.969932 
L 27.988139 243.822595 
L 27.964646 242.489663 
L 27.964646 242.489663 
" style="fill:none;stroke:#47a166;stroke-linecap:round;stroke-width:0.5;"/>
   </g>
   <g id="line2d_103">
    <path clip-path="url(#p0155a44bd3)" d="M 429.165354 249.761874 
L 29.698448 249.761874 
L 29.326156 249.554831 
L 28.77 249.761874 
L 28.567175 249.663633 
L 28.379634 249.234849 
L 28.22961 249.038219 
L 28.068165 247.733016 
L 27.964646 245.511736 
L 27.964646 245.511736 
" style="fill:none;stroke:#7783af;stroke-linecap:round;stroke-width:0.5;"/>
   </g>
   <g id="line2d_104">
    <path clip-path="url(#p0155a44bd3)" d="M 429.165354 249.761874 
L 40.789972 249.761874 
L 37.652187 247.911785 
L 33.484793 244.967622 
L 32.29261 244.319648 
L 30.99792 243.9973 
L 29.905336 243.669768 
L 29.326156 244.135921 
L 28.907441 243.413172 
L 28.672732 242.934826 
L 28.468383 242.254149 
L 28.379634 242.391221 
L 28.22961 242.062203 
L 28.167801 242.156962 
L 28.110338 242.354852 
L 28.03769 241.974405 
L 28.03725 241.975565 
L 27.974526 243.584922 
L 27.964646 243.516035 
" style="fill:none;stroke:#b18187;stroke-linecap:round;stroke-width:0.5;"/>
   </g>
   <g id="line2d_105">
    <path clip-path="url(#p0155a44bd3)" d="M 429.165354 249.761874 
L 28.567175 249.687962 
L 28.379634 249.023575 
L 28.22961 249.118585 
L 28.068165 247.611377 
L 27.974526 246.639826 
L 27.964646 246.78125 
" style="fill:none;stroke:#309bc2;stroke-linecap:round;stroke-width:0.5;"/>
   </g>
   <g id="line2d_106">
    <path clip-path="url(#p0155a44bd3)" d="M 429.165354 249.761874 
L 27.964646 249.761874 
L 27.964646 249.761874 
" style="fill:none;stroke:#788590;stroke-linecap:round;stroke-width:0.5;"/>
   </g>
   <g id="line2d_107">
    <path clip-path="url(#p0155a44bd3)" d="M 429.165354 249.761874 
L 28.167801 249.761874 
L 27.966365 241.871142 
L 27.964646 241.608109 
L 27.964646 241.608109 
" style="fill:none;stroke:#e561a4;stroke-linecap:round;stroke-width:0.5;"/>
   </g>
   <g id="line2d_108">
    <path clip-path="url(#p0155a44bd3)" d="M 429.165354 249.761874 
L 27.964646 249.761874 
L 27.964646 249.761874 
" style="fill:none;stroke:#99902c;stroke-linecap:round;stroke-width:0.5;"/>
   </g>
   <g id="line2d_109">
    <path clip-path="url(#p0155a44bd3)" d="M 429.165354 249.761874 
L 32.358824 249.680955 
L 32.29261 249.64039 
L 30.99792 249.032665 
L 29.905336 248.247876 
L 28.955215 246.452377 
L 28.379634 244.642671 
L 28.167801 243.963174 
L 28.145969 244.026116 
L 28.03725 244.477975 
L 27.964646 247.081274 
L 27.964646 247.081274 
" style="fill:none;stroke:#399b7b;stroke-linecap:round;stroke-width:0.5;"/>
   </g>
   <g id="line2d_110">
    <path clip-path="url(#p0155a44bd3)" d="M 429.165354 249.761874 
L 28.567175 249.66463 
L 28.468383 249.535223 
L 28.03725 247.0768 
L 27.964646 243.531541 
L 27.964646 243.531541 
" style="fill:none;stroke:#da68a3;stroke-linecap:round;stroke-width:0.5;"/>
   </g>
   <g id="line2d_111">
    <path clip-path="url(#p0155a44bd3)" d="M 429.165354 249.761874 
L 28.575457 249.761874 
L 28.110338 244.163974 
L 27.988139 242.666359 
L 27.964646 243.354987 
" style="fill:none;stroke:#009afa;stroke-linecap:round;stroke-width:0.5;"/>
   </g>
   <g id="line2d_112">
    <path clip-path="url(#p0155a44bd3)" d="M 429.165354 249.761874 
L 27.964646 249.761874 
L 27.964646 249.761874 
" style="fill:none;stroke:#e36f47;stroke-linecap:round;stroke-width:0.5;"/>
   </g>
   <g id="line2d_113">
    <path clip-path="url(#p0155a44bd3)" d="M 429.165354 249.761874 
L 27.964646 249.761874 
L 27.964646 249.761874 
" style="fill:none;stroke:#3ea44e;stroke-linecap:round;stroke-width:0.5;"/>
   </g>
   <g id="line2d_114">
    <path clip-path="url(#p0155a44bd3)" d="M 429.165354 249.761874 
L 27.964646 249.761874 
L 27.964646 249.761874 
" style="fill:none;stroke:#c371d2;stroke-linecap:round;stroke-width:0.5;"/>
   </g>
   <g id="line2d_115">
    <path clip-path="url(#p0155a44bd3)" d="M 429.165354 249.761874 
L 27.964646 249.761874 
L 27.964646 249.761874 
" style="fill:none;stroke:#ac8e18;stroke-linecap:round;stroke-width:0.5;"/>
   </g>
   <g id="line2d_116">
    <path clip-path="url(#p0155a44bd3)" d="M 429.165354 249.761874 
L 27.964646 249.761874 
L 27.964646 249.761874 
" style="fill:none;stroke:#00aaae;stroke-linecap:round;stroke-width:0.5;"/>
   </g>
   <g id="line2d_117">
    <path clip-path="url(#p0155a44bd3)" d="M 429.165354 249.761874 
L 28.068165 249.761874 
L 27.964646 247.464476 
L 27.964646 247.464476 
" style="fill:none;stroke:#ed5e93;stroke-linecap:round;stroke-width:0.5;"/>
   </g>
   <g id="line2d_118">
    <path clip-path="url(#p0155a44bd3)" d="M 429.165354 249.761874 
L 28.672732 249.761874 
L 27.988139 245.258358 
L 27.966365 245.002203 
L 27.964646 245.037215 
" style="fill:none;stroke:#c68225;stroke-linecap:round;stroke-width:0.5;"/>
   </g>
   <g id="line2d_119">
    <path clip-path="url(#p0155a44bd3)" d="M 429.165354 249.761874 
L 27.964646 249.761874 
L 27.964646 249.761874 
" style="fill:none;stroke:#00a98d;stroke-linecap:round;stroke-width:0.5;"/>
   </g>
   <g id="line2d_120">
    <path clip-path="url(#p0155a44bd3)" d="M 429.165354 249.761874 
L 43.489891 249.761874 
L 40.789972 249.102774 
L 35.347767 248.511803 
L 32.516244 248.59965 
L 32.29261 248.743711 
L 30.882685 249.085356 
L 29.905336 248.81991 
L 29.326156 248.290787 
L 28.854638 248.478896 
L 28.468383 248.827143 
L 28.379634 249.761874 
L 27.964646 249.761874 
L 27.964646 249.761874 
" style="fill:none;stroke:#8e971e;stroke-linecap:round;stroke-width:0.5;"/>
   </g>
  </g>
 </g>
 <defs>
  <clipPath id="p0155a44bd3">
   <rect height="241.570709" width="401.200709" x="27.964646" y="17.114646"/>
  </clipPath>
 </defs>
</svg>
