<?xml version="1.0" encoding="utf-8" standalone="no"?>
<!DOCTYPE svg PUBLIC "-//W3C//DTD SVG 1.1//EN"
  "http://www.w3.org/Graphics/SVG/1.1/DTD/svg11.dtd">
<!-- Created with matplotlib (http://matplotlib.org/) -->
<svg height="288pt" version="1.1" viewBox="0 0 432 288" width="432pt" xmlns="http://www.w3.org/2000/svg" xmlns:xlink="http://www.w3.org/1999/xlink">
 <defs>
  <style type="text/css">
*{stroke-linecap:butt;stroke-linejoin:round;}
  </style>
 </defs>
 <g id="figure_1">
  <g id="patch_1">
   <path d="M 0 288 
L 432 288 
L 432 0 
L 0 0 
z
" style="fill:#ffffff;"/>
  </g>
  <g id="axes_1">
   <g id="patch_2">
    <path d="M 40.834646 258.685354 
L 429.165354 258.685354 
L 429.165354 17.114646 
L 40.834646 17.114646 
z
" style="fill:#ffffff;"/>
   </g>
   <g id="matplotlib.axis_1">
    <g id="xtick_1">
     <g id="line2d_1">
      <path clip-path="url(#pd593c2092e)" d="M 155.493584 258.685354 
L 155.493584 17.114646 
" style="fill:none;stroke:#000000;stroke-dasharray:0.8,1.32;stroke-dashoffset:0;stroke-width:0.8;"/>
     </g>
     <g id="line2d_2">
      <defs>
       <path d="M 0 0 
L 0 3.5 
" id="m861f6b8c79" style="stroke:#000000;stroke-width:0.8;"/>
      </defs>
      <g>
       <use style="stroke:#000000;stroke-width:0.8;" x="155.493584" xlink:href="#m861f6b8c79" y="258.685354"/>
      </g>
     </g>
     <g id="text_1">
      <!-- 0.25 -->
      <defs>
       <path d="M 31.78125 66.40625 
Q 24.171875 66.40625 20.328125 58.90625 
Q 16.5 51.421875 16.5 36.375 
Q 16.5 21.390625 20.328125 13.890625 
Q 24.171875 6.390625 31.78125 6.390625 
Q 39.453125 6.390625 43.28125 13.890625 
Q 47.125 21.390625 47.125 36.375 
Q 47.125 51.421875 43.28125 58.90625 
Q 39.453125 66.40625 31.78125 66.40625 
z
M 31.78125 74.21875 
Q 44.046875 74.21875 50.515625 64.515625 
Q 56.984375 54.828125 56.984375 36.375 
Q 56.984375 17.96875 50.515625 8.265625 
Q 44.046875 -1.421875 31.78125 -1.421875 
Q 19.53125 -1.421875 13.0625 8.265625 
Q 6.59375 17.96875 6.59375 36.375 
Q 6.59375 54.828125 13.0625 64.515625 
Q 19.53125 74.21875 31.78125 74.21875 
z
" id="DejaVuSans-30"/>
       <path d="M 10.6875 12.40625 
L 21 12.40625 
L 21 0 
L 10.6875 0 
z
" id="DejaVuSans-2e"/>
       <path d="M 19.1875 8.296875 
L 53.609375 8.296875 
L 53.609375 0 
L 7.328125 0 
L 7.328125 8.296875 
Q 12.9375 14.109375 22.625 23.890625 
Q 32.328125 33.6875 34.8125 36.53125 
Q 39.546875 41.84375 41.421875 45.53125 
Q 43.3125 49.21875 43.3125 52.78125 
Q 43.3125 58.59375 39.234375 62.25 
Q 35.15625 65.921875 28.609375 65.921875 
Q 23.96875 65.921875 18.8125 64.3125 
Q 13.671875 62.703125 7.8125 59.421875 
L 7.8125 69.390625 
Q 13.765625 71.78125 18.9375 73 
Q 24.125 74.21875 28.421875 74.21875 
Q 39.75 74.21875 46.484375 68.546875 
Q 53.21875 62.890625 53.21875 53.421875 
Q 53.21875 48.921875 51.53125 44.890625 
Q 49.859375 40.875 45.40625 35.40625 
Q 44.1875 33.984375 37.640625 27.21875 
Q 31.109375 20.453125 19.1875 8.296875 
z
" id="DejaVuSans-32"/>
       <path d="M 10.796875 72.90625 
L 49.515625 72.90625 
L 49.515625 64.59375 
L 19.828125 64.59375 
L 19.828125 46.734375 
Q 21.96875 47.46875 24.109375 47.828125 
Q 26.265625 48.1875 28.421875 48.1875 
Q 40.625 48.1875 47.75 41.5 
Q 54.890625 34.8125 54.890625 23.390625 
Q 54.890625 11.625 47.5625 5.09375 
Q 40.234375 -1.421875 26.90625 -1.421875 
Q 22.3125 -1.421875 17.546875 -0.640625 
Q 12.796875 0.140625 7.71875 1.703125 
L 7.71875 11.625 
Q 12.109375 9.234375 16.796875 8.0625 
Q 21.484375 6.890625 26.703125 6.890625 
Q 35.15625 6.890625 40.078125 11.328125 
Q 45.015625 15.765625 45.015625 23.390625 
Q 45.015625 31 40.078125 35.4375 
Q 35.15625 39.890625 26.703125 39.890625 
Q 22.75 39.890625 18.8125 39.015625 
Q 14.890625 38.140625 10.796875 36.28125 
z
" id="DejaVuSans-35"/>
      </defs>
      <g transform="translate(146.587334 271.764104)scale(0.08 -0.08)">
       <use xlink:href="#DejaVuSans-30"/>
       <use x="63.623047" xlink:href="#DejaVuSans-2e"/>
       <use x="95.410156" xlink:href="#DejaVuSans-32"/>
       <use x="159.033203" xlink:href="#DejaVuSans-35"/>
      </g>
     </g>
    </g>
    <g id="xtick_2">
     <g id="line2d_3">
      <path clip-path="url(#pd593c2092e)" d="M 270.786437 258.685354 
L 270.786437 17.114646 
" style="fill:none;stroke:#000000;stroke-dasharray:0.8,1.32;stroke-dashoffset:0;stroke-width:0.8;"/>
     </g>
     <g id="line2d_4">
      <g>
       <use style="stroke:#000000;stroke-width:0.8;" x="270.786437" xlink:href="#m861f6b8c79" y="258.685354"/>
      </g>
     </g>
     <g id="text_2">
      <!-- 0.50 -->
      <g transform="translate(261.880187 271.764104)scale(0.08 -0.08)">
       <use xlink:href="#DejaVuSans-30"/>
       <use x="63.623047" xlink:href="#DejaVuSans-2e"/>
       <use x="95.410156" xlink:href="#DejaVuSans-35"/>
       <use x="159.033203" xlink:href="#DejaVuSans-30"/>
      </g>
     </g>
    </g>
    <g id="xtick_3">
     <g id="line2d_5">
      <path clip-path="url(#pd593c2092e)" d="M 386.079291 258.685354 
L 386.079291 17.114646 
" style="fill:none;stroke:#000000;stroke-dasharray:0.8,1.32;stroke-dashoffset:0;stroke-width:0.8;"/>
     </g>
     <g id="line2d_6">
      <g>
       <use style="stroke:#000000;stroke-width:0.8;" x="386.079291" xlink:href="#m861f6b8c79" y="258.685354"/>
      </g>
     </g>
     <g id="text_3">
      <!-- 0.75 -->
      <defs>
       <path d="M 8.203125 72.90625 
L 55.078125 72.90625 
L 55.078125 68.703125 
L 28.609375 0 
L 18.3125 0 
L 43.21875 64.59375 
L 8.203125 64.59375 
z
" id="DejaVuSans-37"/>
      </defs>
      <g transform="translate(377.173041 271.764104)scale(0.08 -0.08)">
       <use xlink:href="#DejaVuSans-30"/>
       <use x="63.623047" xlink:href="#DejaVuSans-2e"/>
       <use x="95.410156" xlink:href="#DejaVuSans-37"/>
       <use x="159.033203" xlink:href="#DejaVuSans-35"/>
      </g>
     </g>
    </g>
    <g id="text_4">
     <!-- λ -->
     <defs>
      <path d="M 30.953125 67.4375 
L 56.203125 0 
L 46.6875 0 
L 31.34375 40.4375 
L 12.5 0 
L 2.984375 0 
L 26.953125 52.4375 
L 23.34375 62.109375 
Q 21.046875 68.265625 15.828125 68.265625 
L 11.140625 68.265625 
L 11.140625 75.984375 
L 16.84375 75.875 
Q 27.875 75.734375 30.953125 67.4375 
z
" id="DejaVuSans-3bb"/>
     </defs>
     <g transform="translate(231.744687 285.786136)scale(0.11 -0.11)">
      <use xlink:href="#DejaVuSans-3bb"/>
     </g>
    </g>
   </g>
   <g id="matplotlib.axis_2">
    <g id="ytick_1">
     <g id="line2d_7">
      <path clip-path="url(#pd593c2092e)" d="M 40.834646 213.036979 
L 429.165354 213.036979 
" style="fill:none;stroke:#000000;stroke-dasharray:0.8,1.32;stroke-dashoffset:0;stroke-width:0.8;"/>
     </g>
     <g id="line2d_8">
      <defs>
       <path d="M 0 0 
L -3.5 0 
" id="m21b262540d" style="stroke:#000000;stroke-width:0.8;"/>
      </defs>
      <g>
       <use style="stroke:#000000;stroke-width:0.8;" x="40.834646" xlink:href="#m21b262540d" y="213.036979"/>
      </g>
     </g>
     <g id="text_5">
      <!-- 0.00 -->
      <g transform="translate(16.022146 216.076354)scale(0.08 -0.08)">
       <use xlink:href="#DejaVuSans-30"/>
       <use x="63.623047" xlink:href="#DejaVuSans-2e"/>
       <use x="95.410156" xlink:href="#DejaVuSans-30"/>
       <use x="159.033203" xlink:href="#DejaVuSans-30"/>
      </g>
     </g>
    </g>
    <g id="ytick_2">
     <g id="line2d_9">
      <path clip-path="url(#pd593c2092e)" d="M 40.834646 138.958754 
L 429.165354 138.958754 
" style="fill:none;stroke:#000000;stroke-dasharray:0.8,1.32;stroke-dashoffset:0;stroke-width:0.8;"/>
     </g>
     <g id="line2d_10">
      <g>
       <use style="stroke:#000000;stroke-width:0.8;" x="40.834646" xlink:href="#m21b262540d" y="138.958754"/>
      </g>
     </g>
     <g id="text_6">
      <!-- 0.25 -->
      <g transform="translate(16.022146 141.998129)scale(0.08 -0.08)">
       <use xlink:href="#DejaVuSans-30"/>
       <use x="63.623047" xlink:href="#DejaVuSans-2e"/>
       <use x="95.410156" xlink:href="#DejaVuSans-32"/>
       <use x="159.033203" xlink:href="#DejaVuSans-35"/>
      </g>
     </g>
    </g>
    <g id="ytick_3">
     <g id="line2d_11">
      <path clip-path="url(#pd593c2092e)" d="M 40.834646 64.880529 
L 429.165354 64.880529 
" style="fill:none;stroke:#000000;stroke-dasharray:0.8,1.32;stroke-dashoffset:0;stroke-width:0.8;"/>
     </g>
     <g id="line2d_12">
      <g>
       <use style="stroke:#000000;stroke-width:0.8;" x="40.834646" xlink:href="#m21b262540d" y="64.880529"/>
      </g>
     </g>
     <g id="text_7">
      <!-- 0.50 -->
      <g transform="translate(16.022146 67.919904)scale(0.08 -0.08)">
       <use xlink:href="#DejaVuSans-30"/>
       <use x="63.623047" xlink:href="#DejaVuSans-2e"/>
       <use x="95.410156" xlink:href="#DejaVuSans-35"/>
       <use x="159.033203" xlink:href="#DejaVuSans-30"/>
      </g>
     </g>
    </g>
    <g id="text_8">
     <!-- β̂(λ) -->
     <defs>
      <path d="M 18.40625 3.375 
L 18.40625 -20.796875 
L 9.375 -20.796875 
L 9.375 54.34375 
Q 9.375 76.609375 30.171875 76.609375 
Q 51.375 76.609375 51.375 57.8125 
Q 51.375 44.4375 42.96875 39.546875 
Q 56.640625 35.15625 56.640625 22.125 
Q 56.640625 -1.03125 33.109375 -1.03125 
Q 22.75 -1.03125 18.40625 3.375 
z
M 18.40625 15.09375 
Q 23.828125 6.640625 33.453125 6.640625 
Q 47.515625 6.640625 47.515625 21.96875 
Q 47.515625 35.75 24.859375 34.671875 
L 24.859375 42.96875 
Q 42.578125 42.96875 42.578125 58.59375 
Q 42.578125 69.28125 31.15625 69.28125 
Q 18.40625 69.28125 18.40625 54.046875 
z
" id="DejaVuSans-3b2"/>
      <path d="M -28.609375 79.984375 
L -21.390625 79.984375 
L -9.421875 61.625 
L -16.21875 61.625 
L -25 73.578125 
L -33.796875 61.625 
L -40.578125 61.625 
z
M -25 56 
z
" id="DejaVuSans-302"/>
      <path d="M 31 75.875 
Q 24.46875 64.65625 21.28125 53.65625 
Q 18.109375 42.671875 18.109375 31.390625 
Q 18.109375 20.125 21.3125 9.0625 
Q 24.515625 -2 31 -13.1875 
L 23.1875 -13.1875 
Q 15.875 -1.703125 12.234375 9.375 
Q 8.59375 20.453125 8.59375 31.390625 
Q 8.59375 42.28125 12.203125 53.3125 
Q 15.828125 64.359375 23.1875 75.875 
z
" id="DejaVuSans-28"/>
      <path d="M 8.015625 75.875 
L 15.828125 75.875 
Q 23.140625 64.359375 26.78125 53.3125 
Q 30.421875 42.28125 30.421875 31.390625 
Q 30.421875 20.453125 26.78125 9.375 
Q 23.140625 -1.703125 15.828125 -13.1875 
L 8.015625 -13.1875 
Q 14.5 -2 17.703125 9.0625 
Q 20.90625 20.125 20.90625 31.390625 
Q 20.90625 42.671875 17.703125 53.65625 
Q 14.5 64.65625 8.015625 75.875 
z
" id="DejaVuSans-29"/>
     </defs>
     <g transform="translate(9.734489 148.956719)rotate(-90)scale(0.11 -0.11)">
      <use xlink:href="#DejaVuSans-3b2"/>
      <use x="63.818359" xlink:href="#DejaVuSans-302"/>
      <use x="63.818359" xlink:href="#DejaVuSans-28"/>
      <use x="102.832031" xlink:href="#DejaVuSans-3bb"/>
      <use x="162.011719" xlink:href="#DejaVuSans-29"/>
     </g>
    </g>
   </g>
   <g id="line2d_13">
    <path clip-path="url(#pd593c2092e)" d="M 429.165354 213.036979 
L 394.610809 190.719578 
L 363.125995 170.384794 
L 334.438204 151.856495 
L 308.298958 134.9742 
L 284.48185 119.591682 
L 262.780589 105.575704 
L 243.007208 92.804866 
L 224.990439 83.643222 
L 208.574231 76.750719 
L 193.616393 72.395651 
L 179.987368 68.571417 
L 167.569109 65.090427 
L 156.254053 61.918681 
L 145.944196 59.028705 
L 136.550238 56.395466 
L 127.990813 53.996156 
L 120.191784 51.809995 
L 113.085599 49.818046 
L 106.610708 48.003057 
L 100.711029 46.922495 
L 95.335461 45.840882 
L 90.437443 44.799169 
L 85.974552 43.841981 
L 81.908132 42.969755 
L 78.202961 42.175016 
L 74.826948 41.450879 
L 71.75085 40.791073 
L 68.948024 40.103579 
L 66.394194 39.25625 
L 64.067239 38.452239 
L 61.947004 37.719984 
L 60.015125 37.052781 
L 58.254869 36.444851 
L 56.650989 35.919797 
L 55.189593 35.567258 
L 53.858024 35.243182 
L 52.644748 34.947292 
L 51.539255 34.677593 
L 50.531972 34.431841 
L 49.614173 33.061546 
L 48.777909 31.531099 
L 48.015936 30.146343 
L 47.321655 28.877119 
L 46.689051 27.728242 
L 46.112647 26.681496 
L 45.587448 25.727735 
L 45.108907 24.858702 
L 44.672878 24.066873 
L 44.275585 23.341503 
L 43.913586 22.684471 
L 43.583746 22.085827 
L 43.283208 21.540336 
L 43.00937 21.043301 
L 42.759858 20.590421 
L 42.532512 20.177774 
L 42.325363 19.802203 
L 42.136616 19.459857 
L 41.964638 19.14778 
L 41.807937 18.86332 
L 41.665157 18.604109 
L 41.535061 18.373407 
L 41.416523 18.15885 
L 41.308515 17.962774 
L 41.210103 17.783749 
L 41.120433 17.620497 
L 41.038729 17.471707 
L 40.964284 17.347995 
L 40.896452 17.226639 
L 40.834646 17.114646 
" style="fill:none;stroke:#008000;stroke-linecap:round;"/>
   </g>
   <g id="line2d_14">
    <path clip-path="url(#pd593c2092e)" d="M 429.165354 213.036979 
L 394.610809 213.036979 
L 363.125995 213.036979 
L 334.438204 213.036979 
L 308.298958 213.036979 
L 284.48185 213.036979 
L 262.780589 213.036979 
L 243.007208 213.036979 
L 224.990439 213.036979 
L 208.574231 213.036979 
L 193.616393 206.114981 
L 179.987368 199.267096 
L 167.569109 193.027374 
L 156.254053 187.341971 
L 145.944196 182.161644 
L 136.550238 177.441522 
L 127.990813 173.140724 
L 120.191784 169.221996 
L 113.085599 165.651397 
L 106.610708 162.398001 
L 100.711029 159.397922 
L 95.335461 157.27977 
L 90.437443 156.042938 
L 85.974552 154.913955 
L 81.908132 153.885275 
L 78.202961 152.94798 
L 74.826948 152.093952 
L 71.75085 151.315793 
L 68.948024 150.41013 
L 66.394194 149.026323 
L 64.067239 147.774634 
L 61.947004 146.634152 
L 60.015125 145.594986 
L 58.254869 144.648138 
L 56.650989 143.777287 
L 55.189593 142.902208 
L 53.858024 142.120671 
L 52.644748 141.408869 
L 51.539255 140.76034 
L 50.531972 140.16943 
L 49.614173 139.641053 
L 48.777909 139.147564 
L 48.015936 138.696905 
L 47.321655 138.290771 
L 46.689051 137.916403 
L 46.112647 137.575185 
L 45.587448 137.264277 
L 45.108907 136.98099 
L 44.672878 136.722869 
L 44.275585 136.490685 
L 43.913586 136.276307 
L 43.583746 136.080795 
L 43.283208 135.902645 
L 43.00937 135.740321 
L 42.759858 135.592418 
L 42.532512 135.457653 
L 42.325363 135.335946 
L 42.136616 135.224161 
L 41.964638 135.122119 
L 41.807937 135.029135 
L 41.665157 134.944411 
L 41.535061 134.866321 
L 41.416523 134.796108 
L 41.308515 134.732039 
L 41.210103 134.673688 
L 41.120433 134.620534 
L 41.038729 134.572108 
L 40.964284 134.525219 
L 40.896452 134.484693 
L 40.834646 134.448004 
" style="fill:none;stroke:#ffa500;stroke-linecap:round;"/>
   </g>
   <g id="patch_3">
    <path d="M 40.834646 258.685354 
L 40.834646 17.114646 
" style="fill:none;stroke:#000000;stroke-linecap:square;stroke-linejoin:miter;stroke-width:0.8;"/>
   </g>
   <g id="patch_4">
    <path d="M 429.165354 258.685354 
L 429.165354 17.114646 
" style="fill:none;stroke:#000000;stroke-linecap:square;stroke-linejoin:miter;stroke-width:0.8;"/>
   </g>
   <g id="patch_5">
    <path d="M 40.834646 258.685354 
L 429.165354 258.685354 
" style="fill:none;stroke:#000000;stroke-linecap:square;stroke-linejoin:miter;stroke-width:0.8;"/>
   </g>
   <g id="patch_6">
    <path d="M 40.834646 17.114646 
L 429.165354 17.114646 
" style="fill:none;stroke:#000000;stroke-linecap:square;stroke-linejoin:miter;stroke-width:0.8;"/>
   </g>
   <g id="line2d_15">
    <path clip-path="url(#pd593c2092e)" d="M 429.165354 213.036979 
L 394.610809 213.036979 
L 363.125995 213.036979 
L 334.438204 213.036979 
L 308.298958 213.036979 
L 284.48185 213.036979 
L 262.780589 213.036979 
L 243.007208 213.036979 
L 224.990439 213.036979 
L 208.574231 213.036979 
L 193.616393 213.036979 
L 179.987368 213.036979 
L 167.569109 213.036979 
L 156.254053 213.036979 
L 145.944196 213.036979 
L 136.550238 213.036979 
L 127.990813 213.036979 
L 120.191784 213.036979 
L 113.085599 213.036979 
L 106.610708 213.036979 
L 100.711029 213.036979 
L 95.335461 213.036979 
L 90.437443 213.036979 
L 85.974552 213.036979 
L 81.908132 213.036979 
L 78.202961 213.036979 
L 74.826948 213.036979 
L 71.75085 213.036979 
L 68.948024 214.00982 
L 66.394194 217.663914 
L 64.067239 220.983282 
L 61.947004 224.007752 
L 60.015125 226.763537 
L 58.254869 229.274505 
L 56.650989 231.582503 
L 55.189593 233.718377 
L 53.858024 235.664284 
L 52.644748 237.437465 
L 51.539255 239.053142 
L 50.531972 240.525288 
L 49.614173 242.14842 
L 48.777909 243.735125 
L 48.015936 245.172623 
L 47.321655 246.470212 
L 46.689051 247.664046 
L 46.112647 248.752131 
L 45.587448 249.743566 
L 45.108907 250.646925 
L 44.672878 251.470032 
L 44.275585 252.207445 
L 43.913586 252.891139 
L 43.583746 253.514812 
L 43.283208 254.083138 
L 43.00937 254.600981 
L 42.759858 255.072821 
L 42.532512 255.502743 
L 42.325363 255.882903 
L 42.136616 256.239421 
L 41.964638 256.565493 
L 41.807937 256.862774 
L 41.665157 257.133676 
L 41.535061 257.367949 
L 41.416523 257.591182 
L 41.308515 257.796673 
L 41.210103 257.984416 
L 41.120433 258.155622 
L 41.038729 258.311659 
L 40.964284 258.44133 
L 40.896452 258.567651 
L 40.834646 258.685354 
" style="fill:none;stroke:#000000;stroke-linecap:round;"/>
   </g>
   <g id="text_9">
    <!-- Prostate Data: Solution Path via GLMNet.jl -->
    <defs>
     <path d="M 19.671875 64.796875 
L 19.671875 37.40625 
L 32.078125 37.40625 
Q 38.96875 37.40625 42.71875 40.96875 
Q 46.484375 44.53125 46.484375 51.125 
Q 46.484375 57.671875 42.71875 61.234375 
Q 38.96875 64.796875 32.078125 64.796875 
z
M 9.8125 72.90625 
L 32.078125 72.90625 
Q 44.34375 72.90625 50.609375 67.359375 
Q 56.890625 61.8125 56.890625 51.125 
Q 56.890625 40.328125 50.609375 34.8125 
Q 44.34375 29.296875 32.078125 29.296875 
L 19.671875 29.296875 
L 19.671875 0 
L 9.8125 0 
z
" id="DejaVuSans-50"/>
     <path d="M 41.109375 46.296875 
Q 39.59375 47.171875 37.8125 47.578125 
Q 36.03125 48 33.890625 48 
Q 26.265625 48 22.1875 43.046875 
Q 18.109375 38.09375 18.109375 28.8125 
L 18.109375 0 
L 9.078125 0 
L 9.078125 54.6875 
L 18.109375 54.6875 
L 18.109375 46.1875 
Q 20.953125 51.171875 25.484375 53.578125 
Q 30.03125 56 36.53125 56 
Q 37.453125 56 38.578125 55.875 
Q 39.703125 55.765625 41.0625 55.515625 
z
" id="DejaVuSans-72"/>
     <path d="M 30.609375 48.390625 
Q 23.390625 48.390625 19.1875 42.75 
Q 14.984375 37.109375 14.984375 27.296875 
Q 14.984375 17.484375 19.15625 11.84375 
Q 23.34375 6.203125 30.609375 6.203125 
Q 37.796875 6.203125 41.984375 11.859375 
Q 46.1875 17.53125 46.1875 27.296875 
Q 46.1875 37.015625 41.984375 42.703125 
Q 37.796875 48.390625 30.609375 48.390625 
z
M 30.609375 56 
Q 42.328125 56 49.015625 48.375 
Q 55.71875 40.765625 55.71875 27.296875 
Q 55.71875 13.875 49.015625 6.21875 
Q 42.328125 -1.421875 30.609375 -1.421875 
Q 18.84375 -1.421875 12.171875 6.21875 
Q 5.515625 13.875 5.515625 27.296875 
Q 5.515625 40.765625 12.171875 48.375 
Q 18.84375 56 30.609375 56 
z
" id="DejaVuSans-6f"/>
     <path d="M 44.28125 53.078125 
L 44.28125 44.578125 
Q 40.484375 46.53125 36.375 47.5 
Q 32.28125 48.484375 27.875 48.484375 
Q 21.1875 48.484375 17.84375 46.4375 
Q 14.5 44.390625 14.5 40.28125 
Q 14.5 37.15625 16.890625 35.375 
Q 19.28125 33.59375 26.515625 31.984375 
L 29.59375 31.296875 
Q 39.15625 29.25 43.1875 25.515625 
Q 47.21875 21.78125 47.21875 15.09375 
Q 47.21875 7.46875 41.1875 3.015625 
Q 35.15625 -1.421875 24.609375 -1.421875 
Q 20.21875 -1.421875 15.453125 -0.5625 
Q 10.6875 0.296875 5.421875 2 
L 5.421875 11.28125 
Q 10.40625 8.6875 15.234375 7.390625 
Q 20.0625 6.109375 24.8125 6.109375 
Q 31.15625 6.109375 34.5625 8.28125 
Q 37.984375 10.453125 37.984375 14.40625 
Q 37.984375 18.0625 35.515625 20.015625 
Q 33.0625 21.96875 24.703125 23.78125 
L 21.578125 24.515625 
Q 13.234375 26.265625 9.515625 29.90625 
Q 5.8125 33.546875 5.8125 39.890625 
Q 5.8125 47.609375 11.28125 51.796875 
Q 16.75 56 26.8125 56 
Q 31.78125 56 36.171875 55.265625 
Q 40.578125 54.546875 44.28125 53.078125 
z
" id="DejaVuSans-73"/>
     <path d="M 18.3125 70.21875 
L 18.3125 54.6875 
L 36.8125 54.6875 
L 36.8125 47.703125 
L 18.3125 47.703125 
L 18.3125 18.015625 
Q 18.3125 11.328125 20.140625 9.421875 
Q 21.96875 7.515625 27.59375 7.515625 
L 36.8125 7.515625 
L 36.8125 0 
L 27.59375 0 
Q 17.1875 0 13.234375 3.875 
Q 9.28125 7.765625 9.28125 18.015625 
L 9.28125 47.703125 
L 2.6875 47.703125 
L 2.6875 54.6875 
L 9.28125 54.6875 
L 9.28125 70.21875 
z
" id="DejaVuSans-74"/>
     <path d="M 34.28125 27.484375 
Q 23.390625 27.484375 19.1875 25 
Q 14.984375 22.515625 14.984375 16.5 
Q 14.984375 11.71875 18.140625 8.90625 
Q 21.296875 6.109375 26.703125 6.109375 
Q 34.1875 6.109375 38.703125 11.40625 
Q 43.21875 16.703125 43.21875 25.484375 
L 43.21875 27.484375 
z
M 52.203125 31.203125 
L 52.203125 0 
L 43.21875 0 
L 43.21875 8.296875 
Q 40.140625 3.328125 35.546875 0.953125 
Q 30.953125 -1.421875 24.3125 -1.421875 
Q 15.921875 -1.421875 10.953125 3.296875 
Q 6 8.015625 6 15.921875 
Q 6 25.140625 12.171875 29.828125 
Q 18.359375 34.515625 30.609375 34.515625 
L 43.21875 34.515625 
L 43.21875 35.40625 
Q 43.21875 41.609375 39.140625 45 
Q 35.0625 48.390625 27.6875 48.390625 
Q 23 48.390625 18.546875 47.265625 
Q 14.109375 46.140625 10.015625 43.890625 
L 10.015625 52.203125 
Q 14.9375 54.109375 19.578125 55.046875 
Q 24.21875 56 28.609375 56 
Q 40.484375 56 46.34375 49.84375 
Q 52.203125 43.703125 52.203125 31.203125 
z
" id="DejaVuSans-61"/>
     <path d="M 56.203125 29.59375 
L 56.203125 25.203125 
L 14.890625 25.203125 
Q 15.484375 15.921875 20.484375 11.0625 
Q 25.484375 6.203125 34.421875 6.203125 
Q 39.59375 6.203125 44.453125 7.46875 
Q 49.3125 8.734375 54.109375 11.28125 
L 54.109375 2.78125 
Q 49.265625 0.734375 44.1875 -0.34375 
Q 39.109375 -1.421875 33.890625 -1.421875 
Q 20.796875 -1.421875 13.15625 6.1875 
Q 5.515625 13.8125 5.515625 26.8125 
Q 5.515625 40.234375 12.765625 48.109375 
Q 20.015625 56 32.328125 56 
Q 43.359375 56 49.78125 48.890625 
Q 56.203125 41.796875 56.203125 29.59375 
z
M 47.21875 32.234375 
Q 47.125 39.59375 43.09375 43.984375 
Q 39.0625 48.390625 32.421875 48.390625 
Q 24.90625 48.390625 20.390625 44.140625 
Q 15.875 39.890625 15.1875 32.171875 
z
" id="DejaVuSans-65"/>
     <path id="DejaVuSans-20"/>
     <path d="M 19.671875 64.796875 
L 19.671875 8.109375 
L 31.59375 8.109375 
Q 46.6875 8.109375 53.6875 14.9375 
Q 60.6875 21.78125 60.6875 36.53125 
Q 60.6875 51.171875 53.6875 57.984375 
Q 46.6875 64.796875 31.59375 64.796875 
z
M 9.8125 72.90625 
L 30.078125 72.90625 
Q 51.265625 72.90625 61.171875 64.09375 
Q 71.09375 55.28125 71.09375 36.53125 
Q 71.09375 17.671875 61.125 8.828125 
Q 51.171875 0 30.078125 0 
L 9.8125 0 
z
" id="DejaVuSans-44"/>
     <path d="M 11.71875 12.40625 
L 22.015625 12.40625 
L 22.015625 0 
L 11.71875 0 
z
M 11.71875 51.703125 
L 22.015625 51.703125 
L 22.015625 39.3125 
L 11.71875 39.3125 
z
" id="DejaVuSans-3a"/>
     <path d="M 53.515625 70.515625 
L 53.515625 60.890625 
Q 47.90625 63.578125 42.921875 64.890625 
Q 37.9375 66.21875 33.296875 66.21875 
Q 25.25 66.21875 20.875 63.09375 
Q 16.5 59.96875 16.5 54.203125 
Q 16.5 49.359375 19.40625 46.890625 
Q 22.3125 44.4375 30.421875 42.921875 
L 36.375 41.703125 
Q 47.40625 39.59375 52.65625 34.296875 
Q 57.90625 29 57.90625 20.125 
Q 57.90625 9.515625 50.796875 4.046875 
Q 43.703125 -1.421875 29.984375 -1.421875 
Q 24.8125 -1.421875 18.96875 -0.25 
Q 13.140625 0.921875 6.890625 3.21875 
L 6.890625 13.375 
Q 12.890625 10.015625 18.65625 8.296875 
Q 24.421875 6.59375 29.984375 6.59375 
Q 38.421875 6.59375 43.015625 9.90625 
Q 47.609375 13.234375 47.609375 19.390625 
Q 47.609375 24.75 44.3125 27.78125 
Q 41.015625 30.8125 33.5 32.328125 
L 27.484375 33.5 
Q 16.453125 35.6875 11.515625 40.375 
Q 6.59375 45.0625 6.59375 53.421875 
Q 6.59375 63.09375 13.40625 68.65625 
Q 20.21875 74.21875 32.171875 74.21875 
Q 37.3125 74.21875 42.625 73.28125 
Q 47.953125 72.359375 53.515625 70.515625 
z
" id="DejaVuSans-53"/>
     <path d="M 9.421875 75.984375 
L 18.40625 75.984375 
L 18.40625 0 
L 9.421875 0 
z
" id="DejaVuSans-6c"/>
     <path d="M 8.5 21.578125 
L 8.5 54.6875 
L 17.484375 54.6875 
L 17.484375 21.921875 
Q 17.484375 14.15625 20.5 10.265625 
Q 23.53125 6.390625 29.59375 6.390625 
Q 36.859375 6.390625 41.078125 11.03125 
Q 45.3125 15.671875 45.3125 23.6875 
L 45.3125 54.6875 
L 54.296875 54.6875 
L 54.296875 0 
L 45.3125 0 
L 45.3125 8.40625 
Q 42.046875 3.421875 37.71875 1 
Q 33.40625 -1.421875 27.6875 -1.421875 
Q 18.265625 -1.421875 13.375 4.4375 
Q 8.5 10.296875 8.5 21.578125 
z
M 31.109375 56 
z
" id="DejaVuSans-75"/>
     <path d="M 9.421875 54.6875 
L 18.40625 54.6875 
L 18.40625 0 
L 9.421875 0 
z
M 9.421875 75.984375 
L 18.40625 75.984375 
L 18.40625 64.59375 
L 9.421875 64.59375 
z
" id="DejaVuSans-69"/>
     <path d="M 54.890625 33.015625 
L 54.890625 0 
L 45.90625 0 
L 45.90625 32.71875 
Q 45.90625 40.484375 42.875 44.328125 
Q 39.84375 48.1875 33.796875 48.1875 
Q 26.515625 48.1875 22.3125 43.546875 
Q 18.109375 38.921875 18.109375 30.90625 
L 18.109375 0 
L 9.078125 0 
L 9.078125 54.6875 
L 18.109375 54.6875 
L 18.109375 46.1875 
Q 21.34375 51.125 25.703125 53.5625 
Q 30.078125 56 35.796875 56 
Q 45.21875 56 50.046875 50.171875 
Q 54.890625 44.34375 54.890625 33.015625 
z
" id="DejaVuSans-6e"/>
     <path d="M 54.890625 33.015625 
L 54.890625 0 
L 45.90625 0 
L 45.90625 32.71875 
Q 45.90625 40.484375 42.875 44.328125 
Q 39.84375 48.1875 33.796875 48.1875 
Q 26.515625 48.1875 22.3125 43.546875 
Q 18.109375 38.921875 18.109375 30.90625 
L 18.109375 0 
L 9.078125 0 
L 9.078125 75.984375 
L 18.109375 75.984375 
L 18.109375 46.1875 
Q 21.34375 51.125 25.703125 53.5625 
Q 30.078125 56 35.796875 56 
Q 45.21875 56 50.046875 50.171875 
Q 54.890625 44.34375 54.890625 33.015625 
z
" id="DejaVuSans-68"/>
     <path d="M 2.984375 54.6875 
L 12.5 54.6875 
L 29.59375 8.796875 
L 46.6875 54.6875 
L 56.203125 54.6875 
L 35.6875 0 
L 23.484375 0 
z
" id="DejaVuSans-76"/>
     <path d="M 59.515625 10.40625 
L 59.515625 29.984375 
L 43.40625 29.984375 
L 43.40625 38.09375 
L 69.28125 38.09375 
L 69.28125 6.78125 
Q 63.578125 2.734375 56.6875 0.65625 
Q 49.8125 -1.421875 42 -1.421875 
Q 24.90625 -1.421875 15.25 8.5625 
Q 5.609375 18.5625 5.609375 36.375 
Q 5.609375 54.25 15.25 64.234375 
Q 24.90625 74.21875 42 74.21875 
Q 49.125 74.21875 55.546875 72.453125 
Q 61.96875 70.703125 67.390625 67.28125 
L 67.390625 56.78125 
Q 61.921875 61.421875 55.765625 63.765625 
Q 49.609375 66.109375 42.828125 66.109375 
Q 29.4375 66.109375 22.71875 58.640625 
Q 16.015625 51.171875 16.015625 36.375 
Q 16.015625 21.625 22.71875 14.15625 
Q 29.4375 6.6875 42.828125 6.6875 
Q 48.046875 6.6875 52.140625 7.59375 
Q 56.25 8.5 59.515625 10.40625 
z
" id="DejaVuSans-47"/>
     <path d="M 9.8125 72.90625 
L 19.671875 72.90625 
L 19.671875 8.296875 
L 55.171875 8.296875 
L 55.171875 0 
L 9.8125 0 
z
" id="DejaVuSans-4c"/>
     <path d="M 9.8125 72.90625 
L 24.515625 72.90625 
L 43.109375 23.296875 
L 61.8125 72.90625 
L 76.515625 72.90625 
L 76.515625 0 
L 66.890625 0 
L 66.890625 64.015625 
L 48.09375 14.015625 
L 38.1875 14.015625 
L 19.390625 64.015625 
L 19.390625 0 
L 9.8125 0 
z
" id="DejaVuSans-4d"/>
     <path d="M 9.8125 72.90625 
L 23.09375 72.90625 
L 55.421875 11.921875 
L 55.421875 72.90625 
L 64.984375 72.90625 
L 64.984375 0 
L 51.703125 0 
L 19.390625 60.984375 
L 19.390625 0 
L 9.8125 0 
z
" id="DejaVuSans-4e"/>
     <path d="M 9.421875 54.6875 
L 18.40625 54.6875 
L 18.40625 -0.984375 
Q 18.40625 -11.421875 14.421875 -16.109375 
Q 10.453125 -20.796875 1.609375 -20.796875 
L -1.8125 -20.796875 
L -1.8125 -13.1875 
L 0.59375 -13.1875 
Q 5.71875 -13.1875 7.5625 -10.8125 
Q 9.421875 -8.453125 9.421875 -0.984375 
z
M 9.421875 75.984375 
L 18.40625 75.984375 
L 18.40625 64.59375 
L 9.421875 64.59375 
z
" id="DejaVuSans-6a"/>
    </defs>
    <g transform="translate(87.348125 11.114646)scale(0.14 -0.14)">
     <use xlink:href="#DejaVuSans-50"/>
     <use x="60.287109" xlink:href="#DejaVuSans-72"/>
     <use x="101.369141" xlink:href="#DejaVuSans-6f"/>
     <use x="162.550781" xlink:href="#DejaVuSans-73"/>
     <use x="214.650391" xlink:href="#DejaVuSans-74"/>
     <use x="253.859375" xlink:href="#DejaVuSans-61"/>
     <use x="315.138672" xlink:href="#DejaVuSans-74"/>
     <use x="354.347656" xlink:href="#DejaVuSans-65"/>
     <use x="415.871094" xlink:href="#DejaVuSans-20"/>
     <use x="447.658203" xlink:href="#DejaVuSans-44"/>
     <use x="524.660156" xlink:href="#DejaVuSans-61"/>
     <use x="585.939453" xlink:href="#DejaVuSans-74"/>
     <use x="625.148438" xlink:href="#DejaVuSans-61"/>
     <use x="686.427734" xlink:href="#DejaVuSans-3a"/>
     <use x="720.119141" xlink:href="#DejaVuSans-20"/>
     <use x="751.90625" xlink:href="#DejaVuSans-53"/>
     <use x="815.382812" xlink:href="#DejaVuSans-6f"/>
     <use x="876.564453" xlink:href="#DejaVuSans-6c"/>
     <use x="904.347656" xlink:href="#DejaVuSans-75"/>
     <use x="967.726562" xlink:href="#DejaVuSans-74"/>
     <use x="1006.935547" xlink:href="#DejaVuSans-69"/>
     <use x="1034.71875" xlink:href="#DejaVuSans-6f"/>
     <use x="1095.900391" xlink:href="#DejaVuSans-6e"/>
     <use x="1159.279297" xlink:href="#DejaVuSans-20"/>
     <use x="1191.066406" xlink:href="#DejaVuSans-50"/>
     <use x="1251.306641" xlink:href="#DejaVuSans-61"/>
     <use x="1312.585938" xlink:href="#DejaVuSans-74"/>
     <use x="1351.794922" xlink:href="#DejaVuSans-68"/>
     <use x="1415.173828" xlink:href="#DejaVuSans-20"/>
     <use x="1446.960938" xlink:href="#DejaVuSans-76"/>
     <use x="1506.140625" xlink:href="#DejaVuSans-69"/>
     <use x="1533.923828" xlink:href="#DejaVuSans-61"/>
     <use x="1595.203125" xlink:href="#DejaVuSans-20"/>
     <use x="1626.990234" xlink:href="#DejaVuSans-47"/>
     <use x="1704.480469" xlink:href="#DejaVuSans-4c"/>
     <use x="1760.193359" xlink:href="#DejaVuSans-4d"/>
     <use x="1846.472656" xlink:href="#DejaVuSans-4e"/>
     <use x="1921.277344" xlink:href="#DejaVuSans-65"/>
     <use x="1982.800781" xlink:href="#DejaVuSans-74"/>
     <use x="2022.009766" xlink:href="#DejaVuSans-2e"/>
     <use x="2053.796875" xlink:href="#DejaVuSans-6a"/>
     <use x="2081.580078" xlink:href="#DejaVuSans-6c"/>
    </g>
   </g>
   <g id="line2d_16">
    <path clip-path="url(#pd593c2092e)" d="M 429.165354 213.036979 
L 394.610809 213.036979 
L 363.125995 213.036979 
L 334.438204 213.036979 
L 308.298958 213.036979 
L 284.48185 213.036979 
L 262.780589 213.036979 
L 243.007208 213.036979 
L 224.990439 213.036979 
L 208.574231 213.036979 
L 193.616393 213.036979 
L 179.987368 213.036979 
L 167.569109 213.036979 
L 156.254053 213.036979 
L 145.944196 213.036979 
L 136.550238 213.036979 
L 127.990813 213.036979 
L 120.191784 213.036979 
L 113.085599 213.036979 
L 106.610708 213.036979 
L 100.711029 213.036979 
L 95.335461 211.734131 
L 90.437443 209.090335 
L 85.974552 206.685453 
L 81.908132 204.494213 
L 78.202961 202.497636 
L 74.826948 200.67843 
L 71.75085 199.020837 
L 68.948024 197.273866 
L 66.394194 195.03024 
L 64.067239 192.98313 
L 61.947004 191.11782 
L 60.015125 189.418219 
L 58.254869 187.869607 
L 56.650989 186.462381 
L 55.189593 185.20721 
L 53.858024 184.054099 
L 52.644748 183.003583 
L 51.539255 182.046414 
L 50.531972 181.174279 
L 49.614173 180.31857 
L 48.777909 179.531692 
L 48.015936 178.814765 
L 47.321655 178.16149 
L 46.689051 177.566182 
L 46.112647 177.02381 
L 45.587448 176.529622 
L 45.108907 176.079337 
L 44.672878 175.669054 
L 44.275585 175.296306 
L 43.913586 174.955514 
L 43.583746 174.645063 
L 43.283208 174.362197 
L 43.00937 174.10446 
L 42.759858 173.869619 
L 42.532512 173.655642 
L 42.325363 173.462783 
L 42.136616 173.28493 
L 41.964638 173.12289 
L 41.807937 172.975249 
L 41.665157 172.840724 
L 41.535061 172.721796 
L 41.416523 172.610028 
L 41.308515 172.507987 
L 41.210103 172.414984 
L 41.120433 172.330235 
L 41.038729 172.253013 
L 40.964284 172.18752 
L 40.896452 172.123919 
L 40.834646 172.065306 
" style="fill:none;stroke:#800080;stroke-linecap:round;"/>
   </g>
   <g id="line2d_17">
    <path clip-path="url(#pd593c2092e)" d="M 429.165354 213.036979 
L 394.610809 213.036979 
L 363.125995 213.036979 
L 334.438204 213.036979 
L 308.298958 213.036979 
L 284.48185 213.036979 
L 262.780589 213.036979 
L 243.007208 213.036979 
L 224.990439 208.4377 
L 208.574231 201.549117 
L 193.616393 195.310728 
L 179.987368 189.633013 
L 167.569109 184.457827 
L 156.254053 179.74239 
L 145.944196 175.445859 
L 136.550238 171.53102 
L 127.990813 167.963964 
L 120.191784 164.713796 
L 113.085599 161.752364 
L 106.610708 159.054017 
L 100.711029 157.225074 
L 95.335461 155.396762 
L 90.437443 153.427924 
L 85.974552 151.643909 
L 81.908132 150.018387 
L 78.202961 148.537272 
L 74.826948 147.187735 
L 71.75085 145.958087 
L 68.948024 144.862378 
L 66.394194 143.992667 
L 64.067239 143.197018 
L 61.947004 142.471857 
L 60.015125 141.811118 
L 58.254869 141.209077 
L 56.650989 140.661187 
L 55.189593 140.084723 
L 53.858024 139.559001 
L 52.644748 139.081465 
L 51.539255 138.64655 
L 50.531972 138.250297 
L 49.614173 136.857722 
L 48.777909 135.320598 
L 48.015936 133.92403 
L 47.321655 132.66561 
L 46.689051 131.505092 
L 46.112647 130.447566 
L 45.587448 129.483984 
L 45.108907 128.606004 
L 44.672878 127.806021 
L 44.275585 127.094471 
L 43.913586 126.429179 
L 43.583746 125.822606 
L 43.283208 125.269895 
L 43.00937 124.766283 
L 42.759858 124.30741 
L 42.532512 123.889303 
L 42.325363 123.52668 
L 42.136616 123.178984 
L 41.964638 122.861239 
L 41.807937 122.571624 
L 41.665157 122.307722 
L 41.535061 122.089493 
L 41.416523 121.871201 
L 41.308515 121.67003 
L 41.210103 121.486354 
L 41.120433 121.3189 
L 41.038729 121.166295 
L 40.964284 121.051134 
L 40.896452 120.928305 
L 40.834646 120.812161 
" style="fill:none;stroke:#ff0000;stroke-linecap:round;"/>
   </g>
   <g id="line2d_18">
    <path clip-path="url(#pd593c2092e)" d="M 429.165354 213.036979 
L 394.610809 213.036979 
L 363.125995 213.036979 
L 334.438204 213.036979 
L 308.298958 213.036979 
L 284.48185 213.036979 
L 262.780589 213.036979 
L 243.007208 213.036979 
L 224.990439 213.036979 
L 208.574231 213.036979 
L 193.616393 213.036979 
L 179.987368 213.036979 
L 167.569109 213.036979 
L 156.254053 213.036979 
L 145.944196 213.036979 
L 136.550238 213.036979 
L 127.990813 213.036979 
L 120.191784 213.036979 
L 113.085599 213.036979 
L 106.610708 213.036979 
L 100.711029 213.036979 
L 95.335461 213.036979 
L 90.437443 213.036979 
L 85.974552 213.036979 
L 81.908132 213.036979 
L 78.202961 213.036979 
L 74.826948 213.036979 
L 71.75085 213.036979 
L 68.948024 213.036979 
L 66.394194 213.036979 
L 64.067239 213.036979 
L 61.947004 213.036979 
L 60.015125 213.036979 
L 58.254869 213.036979 
L 56.650989 213.036979 
L 55.189593 213.036979 
L 53.858024 213.036979 
L 52.644748 213.036979 
L 51.539255 213.036979 
L 50.531972 213.036979 
L 49.614173 216.089545 
L 48.777909 219.759751 
L 48.015936 223.067301 
L 47.321655 226.042235 
L 46.689051 228.789252 
L 46.112647 231.29323 
L 45.587448 233.574808 
L 45.108907 235.6537 
L 44.672878 237.547909 
L 44.275585 239.230695 
L 43.913586 240.8044 
L 43.583746 242.240789 
L 43.283208 243.549794 
L 43.00937 244.742533 
L 42.759858 245.829315 
L 42.532512 246.81955 
L 42.325363 247.679587 
L 42.136616 248.500139 
L 41.964638 249.252261 
L 41.807937 249.938262 
L 41.665157 250.563443 
L 41.535061 251.085432 
L 41.416523 251.597852 
L 41.308515 252.072727 
L 41.210103 252.507472 
L 41.120433 252.904187 
L 41.038729 253.265835 
L 40.964284 253.547342 
L 40.896452 253.833866 
L 40.834646 254.105471 
" style="fill:none;stroke:#808080;stroke-linecap:round;"/>
   </g>
   <g id="line2d_19">
    <path clip-path="url(#pd593c2092e)" d="M 429.165354 213.036979 
L 394.610809 213.036979 
L 363.125995 213.036979 
L 334.438204 213.036979 
L 308.298958 213.036979 
L 284.48185 213.036979 
L 262.780589 213.036979 
L 243.007208 213.036979 
L 224.990439 213.036979 
L 208.574231 213.036979 
L 193.616393 213.036979 
L 179.987368 213.036979 
L 167.569109 213.036979 
L 156.254053 213.036979 
L 145.944196 213.036979 
L 136.550238 213.036979 
L 127.990813 213.036979 
L 120.191784 213.036979 
L 113.085599 213.036979 
L 106.610708 213.036979 
L 100.711029 213.036979 
L 95.335461 213.036979 
L 90.437443 213.036979 
L 85.974552 213.036979 
L 81.908132 213.036979 
L 78.202961 213.036979 
L 74.826948 213.036979 
L 71.75085 213.036979 
L 68.948024 213.036979 
L 66.394194 213.036979 
L 64.067239 213.036979 
L 61.947004 213.036979 
L 60.015125 213.036979 
L 58.254869 213.036979 
L 56.650989 212.828716 
L 55.189593 212.010488 
L 53.858024 211.295394 
L 52.644748 210.647358 
L 51.539255 210.05735 
L 50.531972 209.519816 
L 49.614173 208.873637 
L 48.777909 208.339909 
L 48.015936 207.822381 
L 47.321655 207.341152 
L 46.689051 206.910807 
L 46.112647 206.519222 
L 45.587448 206.162456 
L 45.108907 205.837387 
L 44.672878 205.541196 
L 44.275585 205.258598 
L 43.913586 205.012236 
L 43.583746 204.789175 
L 43.283208 204.586086 
L 43.00937 204.401055 
L 42.759858 204.232464 
L 42.532512 204.07885 
L 42.325363 203.924934 
L 42.136616 203.795447 
L 41.964638 203.680044 
L 41.807937 203.575394 
L 41.665157 203.480132 
L 41.535061 203.376574 
L 41.416523 203.292334 
L 41.308515 203.220091 
L 41.210103 203.155757 
L 41.120433 203.097597 
L 41.038729 203.044743 
L 40.964284 202.979225 
L 40.896452 202.925882 
L 40.834646 202.88267 
" style="fill:none;stroke:#a52a2a;stroke-linecap:round;"/>
   </g>
   <g id="line2d_20">
    <path clip-path="url(#pd593c2092e)" d="M 429.165354 213.036979 
L 394.610809 213.036979 
L 363.125995 213.036979 
L 334.438204 213.036979 
L 308.298958 213.036979 
L 284.48185 213.036979 
L 262.780589 213.036979 
L 243.007208 213.036979 
L 224.990439 213.036979 
L 208.574231 213.036979 
L 193.616393 213.036979 
L 179.987368 213.036979 
L 167.569109 213.036979 
L 156.254053 213.036979 
L 145.944196 213.036979 
L 136.550238 213.036979 
L 127.990813 213.036979 
L 120.191784 213.036979 
L 113.085599 213.036979 
L 106.610708 213.036979 
L 100.711029 211.004612 
L 95.335461 209.168127 
L 90.437443 207.697679 
L 85.974552 206.356701 
L 81.908132 205.134879 
L 78.202961 204.0216 
L 74.826948 203.007222 
L 71.75085 202.082958 
L 68.948024 201.037987 
L 66.394194 199.469688 
L 64.067239 198.058059 
L 61.947004 196.77179 
L 60.015125 195.599789 
L 58.254869 194.531905 
L 56.650989 193.697681 
L 55.189593 193.388432 
L 53.858024 193.084324 
L 52.644748 192.804076 
L 51.539255 192.548319 
L 50.531972 192.315231 
L 49.614173 191.187779 
L 48.777909 189.774893 
L 48.015936 188.530444 
L 47.321655 187.428009 
L 46.689051 186.394781 
L 46.112647 185.452257 
L 45.587448 184.59341 
L 45.108907 183.810857 
L 44.672878 183.097825 
L 44.275585 182.481749 
L 43.913586 181.889718 
L 43.583746 181.347631 
L 43.283208 180.853453 
L 43.00937 180.403151 
L 42.759858 179.99285 
L 42.532512 179.618998 
L 42.325363 179.309853 
L 42.136616 179.002207 
L 41.964638 178.717301 
L 41.807937 178.456934 
L 41.665157 178.219559 
L 41.535061 178.036696 
L 41.416523 177.847483 
L 41.308515 177.667388 
L 41.210103 177.501063 
L 41.120433 177.348855 
L 41.038729 177.209973 
L 40.964284 177.114095 
L 40.896452 177.012747 
L 40.834646 176.911551 
" style="fill:none;stroke:#0000ff;stroke-linecap:round;"/>
   </g>
   <g id="legend_1">
    <g id="patch_7">
     <path d="M 366.706604 117.454646 
L 423.565354 117.454646 
Q 425.165354 117.454646 425.165354 115.854646 
L 425.165354 22.714646 
Q 425.165354 21.114646 423.565354 21.114646 
L 366.706604 21.114646 
Q 365.106604 21.114646 365.106604 22.714646 
L 365.106604 115.854646 
Q 365.106604 117.454646 366.706604 117.454646 
z
" style="fill:#ffffff;opacity:0.8;stroke:#000000;stroke-linejoin:miter;"/>
    </g>
    <g id="line2d_21">
     <path d="M 368.306604 27.593396 
L 384.306604 27.593396 
" style="fill:none;stroke:#008000;stroke-linecap:round;"/>
    </g>
    <g id="line2d_22"/>
    <g id="text_10">
     <!-- lcavol -->
     <defs>
      <path d="M 48.78125 52.59375 
L 48.78125 44.1875 
Q 44.96875 46.296875 41.140625 47.34375 
Q 37.3125 48.390625 33.40625 48.390625 
Q 24.65625 48.390625 19.8125 42.84375 
Q 14.984375 37.3125 14.984375 27.296875 
Q 14.984375 17.28125 19.8125 11.734375 
Q 24.65625 6.203125 33.40625 6.203125 
Q 37.3125 6.203125 41.140625 7.25 
Q 44.96875 8.296875 48.78125 10.40625 
L 48.78125 2.09375 
Q 45.015625 0.34375 40.984375 -0.53125 
Q 36.96875 -1.421875 32.421875 -1.421875 
Q 20.0625 -1.421875 12.78125 6.34375 
Q 5.515625 14.109375 5.515625 27.296875 
Q 5.515625 40.671875 12.859375 48.328125 
Q 20.21875 56 33.015625 56 
Q 37.15625 56 41.109375 55.140625 
Q 45.0625 54.296875 48.78125 52.59375 
z
" id="DejaVuSans-63"/>
     </defs>
     <g transform="translate(390.706604 30.393396)scale(0.08 -0.08)">
      <use xlink:href="#DejaVuSans-6c"/>
      <use x="27.783203" xlink:href="#DejaVuSans-63"/>
      <use x="82.763672" xlink:href="#DejaVuSans-61"/>
      <use x="144.042969" xlink:href="#DejaVuSans-76"/>
      <use x="203.222656" xlink:href="#DejaVuSans-6f"/>
      <use x="264.404297" xlink:href="#DejaVuSans-6c"/>
     </g>
    </g>
    <g id="line2d_23">
     <path d="M 368.306604 39.335896 
L 384.306604 39.335896 
" style="fill:none;stroke:#ffa500;stroke-linecap:round;"/>
    </g>
    <g id="line2d_24"/>
    <g id="text_11">
     <!-- lweight -->
     <defs>
      <path d="M 4.203125 54.6875 
L 13.1875 54.6875 
L 24.421875 12.015625 
L 35.59375 54.6875 
L 46.1875 54.6875 
L 57.421875 12.015625 
L 68.609375 54.6875 
L 77.59375 54.6875 
L 63.28125 0 
L 52.6875 0 
L 40.921875 44.828125 
L 29.109375 0 
L 18.5 0 
z
" id="DejaVuSans-77"/>
      <path d="M 45.40625 27.984375 
Q 45.40625 37.75 41.375 43.109375 
Q 37.359375 48.484375 30.078125 48.484375 
Q 22.859375 48.484375 18.828125 43.109375 
Q 14.796875 37.75 14.796875 27.984375 
Q 14.796875 18.265625 18.828125 12.890625 
Q 22.859375 7.515625 30.078125 7.515625 
Q 37.359375 7.515625 41.375 12.890625 
Q 45.40625 18.265625 45.40625 27.984375 
z
M 54.390625 6.78125 
Q 54.390625 -7.171875 48.1875 -13.984375 
Q 42 -20.796875 29.203125 -20.796875 
Q 24.46875 -20.796875 20.265625 -20.09375 
Q 16.0625 -19.390625 12.109375 -17.921875 
L 12.109375 -9.1875 
Q 16.0625 -11.328125 19.921875 -12.34375 
Q 23.78125 -13.375 27.78125 -13.375 
Q 36.625 -13.375 41.015625 -8.765625 
Q 45.40625 -4.15625 45.40625 5.171875 
L 45.40625 9.625 
Q 42.625 4.78125 38.28125 2.390625 
Q 33.9375 0 27.875 0 
Q 17.828125 0 11.671875 7.65625 
Q 5.515625 15.328125 5.515625 27.984375 
Q 5.515625 40.671875 11.671875 48.328125 
Q 17.828125 56 27.875 56 
Q 33.9375 56 38.28125 53.609375 
Q 42.625 51.21875 45.40625 46.390625 
L 45.40625 54.6875 
L 54.390625 54.6875 
z
" id="DejaVuSans-67"/>
     </defs>
     <g transform="translate(390.706604 42.135896)scale(0.08 -0.08)">
      <use xlink:href="#DejaVuSans-6c"/>
      <use x="27.783203" xlink:href="#DejaVuSans-77"/>
      <use x="109.570312" xlink:href="#DejaVuSans-65"/>
      <use x="171.09375" xlink:href="#DejaVuSans-69"/>
      <use x="198.876953" xlink:href="#DejaVuSans-67"/>
      <use x="262.353516" xlink:href="#DejaVuSans-68"/>
      <use x="325.732422" xlink:href="#DejaVuSans-74"/>
     </g>
    </g>
    <g id="line2d_25">
     <path d="M 368.306604 51.078396 
L 384.306604 51.078396 
" style="fill:none;stroke:#000000;stroke-linecap:round;"/>
    </g>
    <g id="line2d_26"/>
    <g id="text_12">
     <!-- age -->
     <g transform="translate(390.706604 53.878396)scale(0.08 -0.08)">
      <use xlink:href="#DejaVuSans-61"/>
      <use x="61.279297" xlink:href="#DejaVuSans-67"/>
      <use x="124.755859" xlink:href="#DejaVuSans-65"/>
     </g>
    </g>
    <g id="line2d_27">
     <path d="M 368.306604 62.820896 
L 384.306604 62.820896 
" style="fill:none;stroke:#800080;stroke-linecap:round;"/>
    </g>
    <g id="line2d_28"/>
    <g id="text_13">
     <!-- lbph -->
     <defs>
      <path d="M 48.6875 27.296875 
Q 48.6875 37.203125 44.609375 42.84375 
Q 40.53125 48.484375 33.40625 48.484375 
Q 26.265625 48.484375 22.1875 42.84375 
Q 18.109375 37.203125 18.109375 27.296875 
Q 18.109375 17.390625 22.1875 11.75 
Q 26.265625 6.109375 33.40625 6.109375 
Q 40.53125 6.109375 44.609375 11.75 
Q 48.6875 17.390625 48.6875 27.296875 
z
M 18.109375 46.390625 
Q 20.953125 51.265625 25.265625 53.625 
Q 29.59375 56 35.59375 56 
Q 45.5625 56 51.78125 48.09375 
Q 58.015625 40.1875 58.015625 27.296875 
Q 58.015625 14.40625 51.78125 6.484375 
Q 45.5625 -1.421875 35.59375 -1.421875 
Q 29.59375 -1.421875 25.265625 0.953125 
Q 20.953125 3.328125 18.109375 8.203125 
L 18.109375 0 
L 9.078125 0 
L 9.078125 75.984375 
L 18.109375 75.984375 
z
" id="DejaVuSans-62"/>
      <path d="M 18.109375 8.203125 
L 18.109375 -20.796875 
L 9.078125 -20.796875 
L 9.078125 54.6875 
L 18.109375 54.6875 
L 18.109375 46.390625 
Q 20.953125 51.265625 25.265625 53.625 
Q 29.59375 56 35.59375 56 
Q 45.5625 56 51.78125 48.09375 
Q 58.015625 40.1875 58.015625 27.296875 
Q 58.015625 14.40625 51.78125 6.484375 
Q 45.5625 -1.421875 35.59375 -1.421875 
Q 29.59375 -1.421875 25.265625 0.953125 
Q 20.953125 3.328125 18.109375 8.203125 
z
M 48.6875 27.296875 
Q 48.6875 37.203125 44.609375 42.84375 
Q 40.53125 48.484375 33.40625 48.484375 
Q 26.265625 48.484375 22.1875 42.84375 
Q 18.109375 37.203125 18.109375 27.296875 
Q 18.109375 17.390625 22.1875 11.75 
Q 26.265625 6.109375 33.40625 6.109375 
Q 40.53125 6.109375 44.609375 11.75 
Q 48.6875 17.390625 48.6875 27.296875 
z
" id="DejaVuSans-70"/>
     </defs>
     <g transform="translate(390.706604 65.620896)scale(0.08 -0.08)">
      <use xlink:href="#DejaVuSans-6c"/>
      <use x="27.783203" xlink:href="#DejaVuSans-62"/>
      <use x="91.259766" xlink:href="#DejaVuSans-70"/>
      <use x="154.736328" xlink:href="#DejaVuSans-68"/>
     </g>
    </g>
    <g id="line2d_29">
     <path d="M 368.306604 74.563396 
L 384.306604 74.563396 
" style="fill:none;stroke:#ff0000;stroke-linecap:round;"/>
    </g>
    <g id="line2d_30"/>
    <g id="text_14">
     <!-- svi -->
     <g transform="translate(390.706604 77.363396)scale(0.08 -0.08)">
      <use xlink:href="#DejaVuSans-73"/>
      <use x="52.099609" xlink:href="#DejaVuSans-76"/>
      <use x="111.279297" xlink:href="#DejaVuSans-69"/>
     </g>
    </g>
    <g id="line2d_31">
     <path d="M 368.306604 86.305896 
L 384.306604 86.305896 
" style="fill:none;stroke:#808080;stroke-linecap:round;"/>
    </g>
    <g id="line2d_32"/>
    <g id="text_15">
     <!-- lcp -->
     <g transform="translate(390.706604 89.105896)scale(0.08 -0.08)">
      <use xlink:href="#DejaVuSans-6c"/>
      <use x="27.783203" xlink:href="#DejaVuSans-63"/>
      <use x="82.763672" xlink:href="#DejaVuSans-70"/>
     </g>
    </g>
    <g id="line2d_33">
     <path d="M 368.306604 98.048396 
L 384.306604 98.048396 
" style="fill:none;stroke:#a52a2a;stroke-linecap:round;"/>
    </g>
    <g id="line2d_34"/>
    <g id="text_16">
     <!-- gleason -->
     <g transform="translate(390.706604 100.848396)scale(0.08 -0.08)">
      <use xlink:href="#DejaVuSans-67"/>
      <use x="63.476562" xlink:href="#DejaVuSans-6c"/>
      <use x="91.259766" xlink:href="#DejaVuSans-65"/>
      <use x="152.783203" xlink:href="#DejaVuSans-61"/>
      <use x="214.0625" xlink:href="#DejaVuSans-73"/>
      <use x="266.162109" xlink:href="#DejaVuSans-6f"/>
      <use x="327.34375" xlink:href="#DejaVuSans-6e"/>
     </g>
    </g>
    <g id="line2d_35">
     <path d="M 368.306604 109.790896 
L 384.306604 109.790896 
" style="fill:none;stroke:#0000ff;stroke-linecap:round;"/>
    </g>
    <g id="line2d_36"/>
    <g id="text_17">
     <!-- pgg45 -->
     <defs>
      <path d="M 37.796875 64.3125 
L 12.890625 25.390625 
L 37.796875 25.390625 
z
M 35.203125 72.90625 
L 47.609375 72.90625 
L 47.609375 25.390625 
L 58.015625 25.390625 
L 58.015625 17.1875 
L 47.609375 17.1875 
L 47.609375 0 
L 37.796875 0 
L 37.796875 17.1875 
L 4.890625 17.1875 
L 4.890625 26.703125 
z
" id="DejaVuSans-34"/>
     </defs>
     <g transform="translate(390.706604 112.590896)scale(0.08 -0.08)">
      <use xlink:href="#DejaVuSans-70"/>
      <use x="63.476562" xlink:href="#DejaVuSans-67"/>
      <use x="126.953125" xlink:href="#DejaVuSans-67"/>
      <use x="190.429688" xlink:href="#DejaVuSans-34"/>
      <use x="254.052734" xlink:href="#DejaVuSans-35"/>
     </g>
    </g>
   </g>
  </g>
 </g>
 <defs>
  <clipPath id="pd593c2092e">
   <rect height="241.570709" width="388.330709" x="40.834646" y="17.114646"/>
  </clipPath>
 </defs>
</svg>
